<?xml version="1.0" encoding="UTF-8" standalone="no"?>
<svg
   xmlns:dc="http://purl.org/dc/elements/1.1/"
   xmlns:cc="http://creativecommons.org/ns#"
   xmlns:rdf="http://www.w3.org/1999/02/22-rdf-syntax-ns#"
   xmlns:svg="http://www.w3.org/2000/svg"
   xmlns="http://www.w3.org/2000/svg"
   xmlns:sodipodi="http://sodipodi.sourceforge.net/DTD/sodipodi-0.dtd"
   xmlns:inkscape="http://www.inkscape.org/namespaces/inkscape"
   width="1324mm"
   height="1324mm"
   viewBox="0 0 1324 1324"
   version="1.1"
   id="svg8"
   inkscape:version="1.0 (1.0+r73+1)"
   sodipodi:docname="Pagani-Zonda.svg"
   inkscape:export-filename="/home/masterg/Pictures/Car Designs/Pagani-Zonda.png"
   inkscape:export-xdpi="96"
   inkscape:export-ydpi="96">
  <defs
     id="defs2" />
  <sodipodi:namedview
     inkscape:snap-page="true"
     inkscape:snap-global="true"
     inkscape:object-paths="true"
     inkscape:snap-intersection-paths="true"
     id="base"
     pagecolor="#ffffff"
     bordercolor="#666666"
     borderopacity="1.0"
     inkscape:pageopacity="0.0"
     inkscape:pageshadow="2"
     inkscape:zoom="0.14422651"
     inkscape:cx="1787.0665"
     inkscape:cy="2208.778"
     inkscape:document-units="mm"
     inkscape:current-layer="layer1"
     inkscape:document-rotation="0"
     showgrid="false"
     inkscape:window-width="1920"
     inkscape:window-height="1020"
     inkscape:window-x="0"
     inkscape:window-y="30"
     inkscape:window-maximized="1" />
  <metadata
     id="metadata5">
    <rdf:RDF>
      <cc:Work
         rdf:about="">
        <dc:format>image/svg+xml</dc:format>
        <dc:type
           rdf:resource="http://purl.org/dc/dcmitype/StillImage" />
        <dc:title />
      </cc:Work>
    </rdf:RDF>
  </metadata>
  <g
     inkscape:label="BG"
     id="layer1"
     inkscape:groupmode="layer">
    <rect
       ry="2.2726464"
       y="0"
       x="0"
       height="1324"
       width="1324"
       id="rect961"
       style="display:inline;opacity:0.996;fill:#ffffff;stroke-width:2.64583;stroke-linecap:square" />
  </g>
  <g
     inkscape:groupmode="layer"
     id="layer5"
     inkscape:label="Body Colour">
    <path
       style="opacity:0.996;fill:#b3b3b3;stroke-width:2.64583;stroke-linecap:square;stroke-miterlimit:4;stroke-dasharray:none"
       d="m 1031.9888,510.55772 c -25.9418,-1.1438 -51.61954,2.77021 -76.93903,8.03508 -3.6196,1.74155 -13.58693,-0.1307 -12.4706,6.15796 6.79362,7.6426 17.58233,10.66189 25.10763,17.69697 13.15172,11.89777 31.27084,14.70778 46.4403,23.12387 7.6625,1.1283 -4.6382,2.89441 -1.5733,7.02305 17.4748,12.01157 34.5773,25.60071 47.2814,42.80461 2.2139,5.96859 -5.1333,2.02833 -7.3423,0.95769 -25.9914,-11.62069 -50.318,-26.82339 -75.34576,-40.04303 -51.00201,7.3702 -102.76189,3.12207 -154.07381,5.86774 -3.09853,3.05496 -4.17663,2.57747 -8.7613,0.0737 -30.67111,-12.61657 -63.40833,-22.15045 -96.89338,-20.98512 -20.18215,0.49752 -40.59153,-1.08979 -60.61938,1.17999 -16.3531,3.83465 -33.77189,4.81443 -49.38826,11.08182 -0.60621,1.16738 -27.27052,4.82455 -26.96538,5.53119 0.68879,1.59499 30.34369,-1.43301 36.90456,-0.0942 58.64735,1.38358 113.92551,29.566 157.87185,67.43078 65.94803,52.72937 130.5756,107.13082 197.35789,158.80201 9.13016,7.90636 20.93304,12.44063 33.09007,10.75455 46.54,-4.51673 92.1721,-15.63568 137.6265,-26.2482 26.4779,-7.13116 53.7787,-12.64383 78.8035,-24.11659 23.4859,-15.31128 46.6587,-31.56593 67.4284,-50.4281 7.5795,-8.51159 0.6581,-19.96718 -5.3762,-27.03824 -10.917,-13.94259 -23.2306,-32.61747 -36.1225,-44.73938 -6.2443,0.80664 -8.1838,-2.47626 -13.4249,-5.58324 -3.8378,-1.81432 -15.4333,-17.22284 -19.8264,-13.80193 -0.1709,6.868 13.9269,19.92884 16.2626,26.19197 0.8021,2.0982 5.9808,9.8043 0.6359,7.41069 -23.3679,-11.2572 -44.8224,-27.1163 -62.455,-46.16159 -6.1838,-8.36365 -15.3563,-16.88691 -16.1109,-27.60068 9.4711,0.54436 17.37,8.42811 26.7469,8.54319 0.7029,-0.8257 2.9895,1.73455 3.0042,0.86872 0.061,-3.55311 -6.6588,-10.75098 -7.9599,-13.90392 -1.4979,-2.43623 -3.1557,-4.87966 -3.9397,-7.65391 3.5731,1.53249 15.1117,6.21578 10.7601,-1.09164 -25.9896,-27.01065 -58.8156,-48.46497 -96.0121,-55.76921 -17.5815,-4.69706 -35.6834,-4.35961 -53.7217,-4.27666 z M 895.85256,642.63258 c 7.27348,0.1791 13.82416,5.94151 21.04128,4.82897 2.0714,-4.21828 6.65753,3.27723 10.04305,3.83331 11.71964,7.60444 27.27736,10.75817 34.07397,24.2893 5.63319,9.39692 10.30764,12.01939 16.54839,19.0282 5.42375,6.57124 11.51054,14.53282 13.59345,19.19065 3.68427,6.17273 12.681,14.39699 9.8724,21.9166 -5.24111,1.91553 -12.65704,-4.49291 -17.49455,-6.11851 -18.29437,-9.62364 -35.00696,-21.90285 -51.38716,-34.56676 -1.71672,-0.65378 -23.85832,-23.99337 -24.36696,-23.16152 -1.07323,1.75533 21.25776,29.38145 23.0419,30.81036 7.22982,11.28369 17.20416,25.58683 17.46036,39.29515 -4.00508,6.9609 -15.29265,-1.30408 -20.91108,-2.69015 -37.14025,-15.66455 -69.57266,-44.323 -86.19196,-81.45166 -0.90273,-3.88292 -4.8886,-11.95954 0.47884,-13.84848 13.26737,0.49644 24.9469,8.65262 37.01164,13.39932 8.84033,3.40003 16.35334,9.63063 25.00249,13.16006 0.63687,-0.25072 5.3907,5.6547 5.73452,5.31336 2.74625,-2.72653 -7.31668,-14.24 -8.59745,-17.1755 -2.84689,-4.86545 -7.6096,-10.38024 -7.67924,-15.96401 0.88665,-0.22942 1.8243,-0.15491 2.72611,-0.0887 z"
       id="path991"
       sodipodi:nodetypes="ccccccccccccccsccccccccccccccccscccccsccccccccscccccccsccss" />
    <path
       style="opacity:0.996;fill:#b3b3b3;stroke-width:2.64583;stroke-linecap:square;stroke-miterlimit:4;stroke-dasharray:none"
       d="m 292.97756,538.00385 c -6.5941,1.29629 -3.19318,10.72698 -3.94221,15.36609 1.48365,35.68851 12.2854,70.09371 21.41373,104.37599 4.68638,5.91809 14.60482,5.64557 21.36413,9.0697 52.8185,18.22911 106.57406,34.23111 158.59231,54.3931 18.98533,8.01012 36.30305,19.55289 55.28526,27.49923 5.36858,-1.07715 2.28891,-9.14601 3.45832,-13.06812 -0.21585,-24.50618 8.88722,-47.84389 16.79845,-70.50503 -8.90445,-19.76784 -12.40555,-41.45018 -16.63885,-62.63647 -1.41719,-4.87891 1.37258,-9.58659 1.06412,-14.33746 -4.97908,-3.17267 -11.18481,2.59768 -16.52648,3.10869 -7.60447,3.10151 -15.23614,5.6625 -23.17649,2.08009 -71.11127,-15.93799 -141.2784,-35.76282 -211.65148,-54.5503 -1.98665,-0.39985 -4.00209,-0.85204 -6.04081,-0.79551 z"
       id="path993" />
    <path
       style="opacity:0.996;fill:#b3b3b3;stroke-width:2.64583;stroke-linecap:square;stroke-miterlimit:4;stroke-dasharray:none"
       d="m 83.104463,473.16733 c -17.620967,3.45306 -34.342416,15.38159 -40.435733,32.78943 -5.047866,14.0218 -8.634291,29.03717 -9.047369,43.90925 0.80709,1.21128 -3.228001,50.13384 -2.381451,50.17872 0.56705,0.0301 2.412542,7.0304 2.986588,3.44322 1.200703,-7.50314 1.204878,-30.1663 2.942108,-41.21833 1.523352,-9.69138 4.699119,-17.22415 4.854064,-18.22828 3.346281,-13.91463 15.54679,-29.94194 31.748132,-24.75802 26.070438,11.40042 38.250618,39.62225 48.262178,64.39131 3.39099,7.10281 5.04724,15.39528 9.53102,21.74745 56.90509,16.61344 113.88968,32.82199 170.17119,51.5855 3.30769,1.82253 11.81354,4.22725 9.92238,-2.55844 -7.7533,-30.24272 -17.78183,-60.3706 -19.34633,-91.57072 -0.644,-8.85646 0.83653,-18.1294 -0.97034,-26.69113 -64.76179,-19.19502 -129.0842,-40.06994 -193.425202,-60.68654 -4.825312,-1.27893 -9.772253,-2.6062 -14.811235,-2.33342 z"
       id="path995"
       sodipodi:nodetypes="cccssscccccccccc" />
    <path
       style="opacity:0.996;fill:#b3b3b3;stroke-width:2.64583;stroke-linecap:square;stroke-miterlimit:4;stroke-dasharray:none"
       d="m 155.44034,463.39283 c -20.08691,0.74888 -40.87613,1.02315 -60.091146,7.32454 -4.428362,4.53195 3.917096,7.24518 7.254316,8.02829 61.53292,20.77454 123.49875,40.37277 185.82885,58.57666 5.0291,1.2863 11.00278,-0.40623 14.94804,-3.45578 0.80769,-5.93765 -7.81926,-7.50635 -11.33105,-10.80359 -28.12424,-16.21806 -54.92653,-34.47679 -83.37369,-50.10844 -16.39782,-8.28202 -35.14004,-9.92807 -53.23532,-9.56168 z"
       id="path997" />
    <path
       style="opacity:0.996;fill:#b3b3b3;stroke-width:2.64583;stroke-linecap:square;stroke-miterlimit:4;stroke-dasharray:none"
       d="m 309.90941,494.804 c -4.32109,1.77827 -6.3282,7.56677 -11.98631,6.74689 -10.14405,1.83412 -21.01117,0.88679 -30.77525,3.96503 -2.91273,5.47032 6.1857,7.68726 9.19687,10.53711 7.73297,5.55832 17.54692,9.01047 24.45144,15.247 1.3848,6.32699 10.46038,2.20112 14.90498,2.72105 13.6633,-2.0106 28.12902,-1.69039 41.20087,-6.2427 4.66531,-5.10223 -5.26079,-6.89338 -8.40891,-8.48239 -13.41819,-6.13173 -28.28248,-12.15258 -37.14716,-24.34251 -0.45474,-0.17771 -0.95599,-0.2246 -1.43653,-0.14948 z"
       id="path999" />
    <path
       style="opacity:0.996;fill:#b3b3b3;stroke-width:2.64583;stroke-linecap:square;stroke-miterlimit:4;stroke-dasharray:none"
       d="m 358.73885,525.184 c -19.7122,5.82378 -40.77703,5.2516 -60.94749,8.91816 -4.6665,4.01529 3.15035,7.53764 6.60501,7.81605 70.11379,20.15249 140.70512,38.87496 211.90304,54.78098 12.06106,0.39144 23.46145,-5.77333 35.02509,-8.61991 7.86204,-3.40301 17.68565,-4.32871 24.1889,-9.99186 -0.69345,-5.55202 -9.13733,-3.72449 -13.15215,-5.42883 -66.70026,-9.42344 -132.60935,-24.30799 -196.35866,-46.22301 -2.36879,-0.6287 -4.78676,-1.35118 -7.26374,-1.25158 z"
       id="path1001" />
    <path
       style="opacity:0.996;fill:#b3b3b3;stroke-width:2.64583;stroke-linecap:square;stroke-miterlimit:4;stroke-dasharray:none"
       d="m 387.26681,491.41155 c -7.59733,1.84849 -10.73775,10.98731 -15.80328,16.22622 -2.92322,5.50402 -9.57873,10.55941 -9.19797,17.14086 7.49554,6.84607 18.85265,7.84024 28.02125,11.76589 62.65939,19.84263 127.42016,33.00959 192.64741,40.74483 5.09013,0.6953 14.11097,0.54546 12.98199,-6.87357 -0.53422,-6.18362 -0.39526,-15.49866 -8.94095,-15.55104 -53.47899,-12.2076 -107.89878,-22.41576 -158.54233,-44.33695 -13.46962,-5.45219 -26.48508,-12.13404 -39.22795,-18.93382 -0.63484,-0.14435 -1.28733,-0.21022 -1.93817,-0.18242 z"
       id="path1003" />
    <path
       style="opacity:0.996;fill:#b3b3b3;stroke-width:2.64583;stroke-linecap:square;stroke-miterlimit:4;stroke-dasharray:none"
       d="m 372.073,450.89728 c -21.49771,6.6503 -43.35793,12.10886 -65.72845,14.96789 -10.61225,2.44974 -22.29977,1.44612 -32.30793,5.86563 -2.32359,5.68505 7.04903,5.78347 10.65321,7.03319 6.67901,1.99937 15.01484,3.6413 19.94974,8.51278 -0.70178,4.16192 3.6575,2.37685 5.56626,3.6534 4.00452,5.29793 3.59248,13.61358 10.60299,16.69875 12.25195,6.92818 25.08681,13.60363 38.40887,17.97312 10.87194,-8.8399 16.42822,-23.12955 26.96475,-32.51327 1.57242,-6.32851 -7.39079,-9.48747 -9.90624,-14.37799 -3.57833,-5.39118 -12.32593,-14.08988 -5.61438,-20.5523 1.83425,-1.64587 6.67369,-6.42745 1.41118,-7.2612 z"
       id="path1005" />
    <path
       style="opacity:0.996;fill:#b3b3b3;stroke-width:2.64583;stroke-linecap:square;stroke-miterlimit:4;stroke-dasharray:none"
       d="m 251.32319,473.81593 c -9.50053,0.99867 -24.55646,0.0904 -33.28432,4.40422 -3.28783,5.79091 10.62214,7.82509 13.97806,10.73012 6.32635,3.50469 13.50256,10.27497 21.05652,5.94116 17.08012,-4.64471 34.84697,-4.07694 52.31606,-5.39019 4.8846,-4.16654 -4.11673,-7.88066 -7.40053,-9.18671 -14.85794,-5.36035 -30.99324,-6.43843 -46.66579,-6.4986 z"
       id="path1007"
       sodipodi:nodetypes="ccccccc" />
    <path
       style="opacity:0.996;fill:#b3b3b3;stroke-width:2.64583;stroke-linecap:square;stroke-miterlimit:4;stroke-dasharray:none"
       d="m 133.80621,605.16112 c -6.50845,1.05525 -2.29437,9.96778 -3.27721,14.23709 1.3825,24.59391 0.0927,49.53102 3.74339,73.90571 4.49747,4.97493 13.01622,4.20047 18.99904,6.80048 16.17967,3.70144 32.28779,9.11987 48.72828,10.95729 20.03234,-12.07003 39.76507,-24.94163 61.43252,-34.07029 16.16091,-9.24608 35.56357,-7.44305 52.48611,-1.67926 52.39713,16.32231 105.32488,31.53138 156.44831,51.68038 24.05044,8.84745 40.94837,29.82674 51.47294,52.32471 6.5279,11.67847 13.19273,25.19958 26.98673,29.48697 3.22194,1.62165 12.19174,4.99993 11.57586,-1.56321 -6.69385,-18.73978 -8.31304,-38.96487 -13.34936,-58.19857 -13.63692,-8.59256 -29.23191,-14.52833 -43.1061,-23.0504 -28.47658,-14.41889 -59.71278,-22.30776 -89.62575,-33.14533 -92.52739,-30.77938 -184.89779,-62.45884 -279.21099,-87.38914 -1.08925,-0.1869 -2.19494,-0.35727 -3.30377,-0.29643 z"
       id="path1009" />
    <path
       style="opacity:0.996;fill:#b3b3b3;stroke-width:2.64583;stroke-linecap:square;stroke-miterlimit:4;stroke-dasharray:none"
       d="m 295.42247,668.12535 c -3.58603,1.49444 -3.38434,6.86128 -7.74258,8.08712 -16.58025,12.09664 -35.19721,21.4563 -54.42863,28.61918 -9.6253,2.14307 -10.77476,2.55823 -9.01078,3.91848 2.61198,2.01412 12.60023,3.17556 16.27958,3.77852 87.99509,20.28695 175.57844,43.30202 261.57266,71.03001 10.71017,2.2461 19.30609,9.63673 29.29861,13.27441 6.04392,-1.87108 -0.72642,-8.6106 -1.85712,-11.96602 C 517.7973,764.45617 506.68252,740.9749 484.13809,730.50782 445.73009,711.88574 404.12248,701.149 363.73185,687.76436 341.0423,681.10517 318.62418,672.6992 295.42247,668.12535 Z"
       id="path1011"
       sodipodi:nodetypes="cccsccccccc" />
    <path
       style="opacity:0.996;fill:#b3b3b3;stroke-width:2.64583;stroke-linecap:square;stroke-miterlimit:4;stroke-dasharray:none"
       d="m 612.37428,577.56804 c -20.27013,0.81178 -41.82367,0.96941 -60.36226,10.114 -9.70991,6.69188 -3.43791,19.90208 -2.29034,29.09295 4.04477,15.51307 6.246,32.06543 13.35442,46.4707 5.90315,1.47587 8.57751,-7.06223 12.19648,-10.38228 15.61679,-21.32766 41.47272,-36.10572 68.06398,-33.22921 41.34059,2.99973 74.7876,33.38923 96.06513,67.13985 25.05424,39.96746 37.5459,86.60971 40.12215,133.44639 5.54485,4.66325 15.1652,2.98699 22.26189,5.20295 56.41855,9.45658 113.34252,16.42459 170.3243,20.40763 36.02907,1.97514 70.39477,-10.97849 105.10717,-18.44125 43.6645,-11.1914 87.8397,-20.76659 130.7835,-34.53691 25.4943,-10.73015 45.8174,-30.41647 66.2072,-48.54569 7.3972,-7.83093 17.6907,-16.2905 18.1074,-27.79324 -4.5157,-3.44043 -9.1545,4.10906 -13.285,5.7449 -21.3,14.38399 -39.8511,33.25902 -63.3503,44.12583 -41.6557,15.31361 -85.2923,24.09674 -128.4727,33.81957 -28.3292,5.50418 -56.6075,12.30363 -85.4263,14.16368 -18.55191,8e-5 -33.00322,-15.10369 -47.08886,-25.75626 C 889.95981,737.59247 826.85013,684.54049 762.1309,633.51681 c -40.07249,-30.90027 -87.98967,-55.2316 -139.58787,-55.82565 -3.38836,-0.11005 -6.77881,-0.13891 -10.16875,-0.12312 z"
       id="path1013" />
    <path
       style="opacity:0.996;fill:#b3b3b3;stroke-width:2.64583;stroke-linecap:square;stroke-miterlimit:4;stroke-dasharray:none"
       d="m 778.76375,820.67396 c -2.43856,14.47887 -2.98053,29.38494 -5.69545,43.96245 -1.37827,5.23539 0.15417,13.49415 7.17759,12.64251 54.82193,6.38871 109.38706,15.2518 164.25373,21.29938 29.51329,1.70844 59.45588,0.42053 87.89448,-8.33006 9.8092,-3.39014 21.2733,-4.52176 29.549,-11.07168 3.542,-7.16184 -10.5176,-11.09014 -5.0545,-18.47731 7.0181,-11.84727 17.9963,-21.02437 24.5782,-33.08839 -1.5976,-5.5245 -8.9493,-0.0569 -12.8553,-0.25083 -34.7665,7.51277 -69.31956,20.40382 -105.46026,15.76933 -61.0901,-4.68273 -121.91257,-13.27211 -182.4037,-23.24336 l -1.20557,0.47885 z"
       id="path1015" />
    <path
       style="opacity:0.996;fill:#b3b3b3;stroke-width:2.64583;stroke-linecap:square;stroke-miterlimit:4;stroke-dasharray:none"
       d="m 1212.9893,796.07049 c -11.2873,3.17849 -23.3071,-0.59254 -34.611,3.53684 -7.0639,2.31492 -15.3508,2.46227 -21.5328,6.40739 -0.8957,6.60472 -6.1788,13.37866 -4.6212,19.97213 8.0463,5.33916 18.7977,5.04637 28.044,7.2612 7.9886,0.26635 17.4571,2.00257 24.5123,-2.3182 4.4488,-10.68666 9.0664,-21.66028 11.515,-32.94145 -0.3149,-1.50336 -1.9456,-2.09002 -3.3063,-1.91791 z"
       id="path1017" />
    <path
       style="opacity:0.996;fill:#b3b3b3;stroke-width:2.64583;stroke-linecap:square;stroke-miterlimit:4;stroke-dasharray:none"
       d="m 498.52081,410.67183 c -27.64133,0.39764 -55.38644,6.4284 -80.27101,18.49757 -4.67714,1.86877 -2.09137,8.33226 2.55638,6.32379 3.8362,-0.67684 7.59918,-2.58756 11.10208,-3.73448 -6.43321,8.2126 -16.1612,14.70594 -19.9113,24.62374 1.08643,6.03752 7.45585,0.1039 9.44787,-2.25888 13.19305,-12.15825 24.81557,-29.45406 44.51713,-30.33293 23.13625,-2.1253 47.2163,-2.60376 69.7643,4.01824 13.53563,3.88836 22.50175,15.99778 26.1616,29.01948 14.8649,37.73415 24.60697,77.30737 33.20748,116.82025 3.29722,5.34714 10.51219,-0.55308 15.3193,-0.0591 15.40312,-3.38845 31.60474,-4.73539 46.55547,-9.32017 1.75821,-5.70225 -7.3533,-7.21005 -10.6663,-10.00758 -16.94948,-9.25467 -27.934,-26.05896 -34.38086,-43.82809 -12.0786,-26.01227 -20.15379,-53.96439 -34.51191,-78.86245 -11.19383,-14.57679 -31.25758,-16.84532 -48.1834,-19.49833 -10.18675,-1.18625 -20.45533,-1.60713 -30.70683,-1.40106 z"
       id="path1019" />
    <path
       style="opacity:0.996;fill:#b3b3b3;stroke-width:2.64583;stroke-linecap:square;stroke-miterlimit:4;stroke-dasharray:none"
       d="m 936.64782,565.97592 c -8.92839,1.44337 -17.75436,2.76991 -26.74771,3.57638 -20.73889,1.98284 -41.60001,3.149 -62.47622,3.05883 -16.36609,0.0147 -32.76973,0.30945 -49.10585,-0.2105 -1.87174,-0.52748 -4.70265,0.55249 -3.94512,2.92094 1.12429,2.41394 4.36719,2.31269 6.47073,3.44523 4.11803,1.39767 8.03418,3.51066 12.25222,4.60522 32.90422,0.15591 65.81219,0.11623 98.71509,-0.24817 8.09445,-0.17729 16.23896,-0.32868 24.28364,-1.04622 2.24002,-0.4368 1.84991,-3.27287 0.46329,-4.47327 -0.64606,-1.56127 0.83166,-3.27867 1.12048,-4.86011 0.45183,-1.99825 2.67277,-4.77371 0.42579,-6.39484 -0.39018,-0.33929 -0.96215,-0.37838 -1.45634,-0.37349 z"
       id="path1021" />
    <path
       style="opacity:0.996;fill:#b3b3b3;stroke-width:2.64583;stroke-linecap:square;stroke-miterlimit:4;stroke-dasharray:none"
       d="m 971.24749,544.05043 c -3.07579,1.19761 -0.80153,4.95601 -2.07944,7.17823 -2.47087,5.38303 -8.45305,7.39041 -13.39877,9.77133 -1.97604,0.92603 -1.4374,3.8682 0.56753,4.37041 2.63086,1.04591 5.21285,2.58798 8.04217,2.89016 2.20845,-0.4547 1.74689,-3.59388 4.00368,-4.05054 6.20672,-1.94289 12.86475,-0.61621 19.14805,0.14252 1.8782,0.22637 4.953,1.27009 5.65896,-1.26825 0.39921,-2.40511 -2.40159,-3.60334 -3.72888,-5.17416 -5.39641,-4.67324 -10.6821,-9.54211 -16.53989,-13.63295 -0.51668,-0.33221 -1.09334,-0.24717 -1.67341,-0.22675 z"
       id="path1023" />
    <path
       style="opacity:0.996;fill:#b3b3b3;stroke-width:2.64583;stroke-linecap:square;stroke-miterlimit:4;stroke-dasharray:none"
       d="m 1213.3443,789.02389 c -4.7139,1.11673 -9.1594,3.52187 -13.7408,4.84175 -1.7777,0.44677 -4.5817,1.40155 -3.8624,3.7819 1.0574,2.71925 4.5853,1.70196 6.8343,1.88812 4.4506,-0.32565 9.9735,0.19777 13.0193,-3.79148 1.9001,-2.14278 1.1111,-6.78445 -2.2504,-6.72029 z"
       id="path1025" />
    <path
       style="opacity:0.996;fill:#b3b3b3;stroke-width:2.64583;stroke-linecap:square;stroke-miterlimit:4;stroke-dasharray:none"
       d="m 1207.2226,823.49119 c -2.5613,1.01931 -2.0464,4.56327 -3.592,6.38014 -6.3515,2.74092 -13.5261,2.04433 -20.2572,1.65288 -2.3164,0.11403 -4.9767,-1.26945 -7.1065,0.11324 -2.0032,1.75008 0.1234,4.53972 2.315,4.62417 8.3655,1.96165 17.1391,3.6748 24.4052,8.50773 2.5135,1.91299 5.595,5.31553 3.4876,8.57359 -1.2773,1.48476 -1.1522,4.39695 1.2134,4.5788 3.8823,-0.42127 7.3082,-2.69254 10.7482,-4.40582 4.265,-2.45155 8.5045,-5.67518 10.6972,-10.18564 1.5228,-4.49056 -1.9878,-8.68563 -5.2955,-11.2831 -4.5644,-3.69147 -9.9222,-6.34921 -15.3423,-8.52559 -0.419,-0.12454 -0.8477,-0.10729 -1.2731,-0.0304 z"
       id="path1027" />
    <path
       style="opacity:0.996;fill:#b3b3b3;stroke-width:2.64583;stroke-linecap:square;stroke-miterlimit:4;stroke-dasharray:none"
       d="m 1265.0766,751.28008 c -2.7372,0.66153 -4.4473,3.33999 -6.6978,4.88476 -4.7869,4.20764 -10.0031,7.97258 -14.6833,12.26341 -1.3932,2.0742 0.826,4.39089 1.3235,6.48748 0.9133,2.69473 2.406,5.7921 5.5837,6.18649 2.4154,0.65582 5.9442,1.87142 7.487,-0.96481 2.5086,-4.66389 4.0564,-9.94759 7.7394,-13.89091 1.6477,-3.34174 1.7929,-7.24996 2.0103,-10.91713 0.068,-1.72324 -0.636,-4.10652 -2.7628,-4.04929 z"
       id="path1029" />
    <path
       style="opacity:0.996;fill:#b3b3b3;stroke-width:2.64583;stroke-linecap:square;stroke-miterlimit:4;stroke-dasharray:none"
       d="m 1282.3498,734.24882 c -4.0487,2.84298 -7.2561,6.78453 -10.9019,10.09134 -1.9585,2.21986 -4.6546,3.84665 -6.1762,6.39268 0.42,2.19294 0.9977,4.40687 0.6487,6.69427 -0.3461,2.72894 -0.3112,5.73744 -1.659,8.17523 -3.7134,3.87162 -5.4364,9.09087 -7.5754,13.89534 -0.805,2.12108 1.5273,3.41286 3.3406,3.42728 3.948,0.35195 8.1537,0.68323 11.9483,-0.67456 3.9928,-2.19223 6.1968,-6.4671 8.9587,-9.91981 2.568,-3.22408 3.8523,-8.28098 0.9131,-11.70215 -0.8331,-1.64608 -2.7496,-2.95233 -2.8995,-4.83608 1.6378,-6.42871 4.022,-12.641 6.2453,-18.87191 0.4503,-1.62306 -1.2137,-3.2898 -2.8427,-2.67163 z"
       id="path1031" />
    <path
       style="opacity:0.996;fill:#b3b3b3;stroke-width:2.64583;stroke-linecap:square;stroke-miterlimit:4;stroke-dasharray:none"
       d="m 1207.4966,823.30426 c -1.1429,0.17272 -1.7643,1.23341 -2.0346,2.25952 -0.5112,1.41642 -0.9819,2.84691 -1.4671,4.2723 -5.0117,2.19261 -10.7377,2.3185 -16.016,2.12249 -10.0704,-0.51797 -20.0934,-2.6334 -29.9447,-4.99163 -1.9563,-0.43307 -3.881,-1.05296 -5.8489,-1.40097 -1.3148,-0.0666 -2.3261,0.99587 -3.4352,1.57009 -1.0834,0.5257 -1.8707,1.75819 -1.4126,2.96249 0.4579,1.23391 1.8275,1.51016 2.9878,1.58279 11.1799,1.49119 22.3016,3.08089 33.2841,5.64055 6.1728,1.50188 12.4684,3.23495 18.083,6.34952 2.21,1.51519 4.4401,3.3618 5.4186,5.93638 0.6409,1.6483 -0.1094,3.43527 -1.2562,4.65561 -0.9644,0.93847 -1.0301,2.71795 0.1615,3.49803 1.3031,0.93969 2.8498,-0.0315 4.1654,-0.41797 5.9827,-2.25406 11.9071,-5.2656 16.2574,-10.06575 1.2279,-1.44407 2.538,-2.97588 3.0225,-4.846 0.3186,-3.30745 -1.3747,-6.4601 -3.687,-8.71694 -4.363,-4.31948 -10.0399,-6.91007 -15.4877,-9.56334 -0.8937,-0.36565 -1.7803,-0.97906 -2.7903,-0.84717 z"
       id="path1033" />
    <path
       style="opacity:0.996;fill:#b3b3b3;stroke-width:2.64583;stroke-linecap:square;stroke-miterlimit:4;stroke-dasharray:none"
       d="m 393.97532,427.63471 c -15.29617,0.43224 -30.57131,1.4337 -45.85346,2.20158 -82.20588,4.52116 -164.3431,10.23369 -246.54887,14.59286 -3.150324,-1.29201 -6.34103,-2.72518 -9.708604,-3.25829 -11.844822,1.8688 -23.743272,3.44828 -35.539828,5.59486 -5.194181,1.35907 -8.445637,6.40389 -9.410541,11.43379 -0.867987,4.56443 -0.998164,9.3784 0.122047,13.90881 0.504473,2.42943 2.880196,4.24435 5.369134,3.77156 3.597357,-0.63749 6.80217,-2.58795 10.217089,-3.81141 15.180765,-6.30035 30.354775,-12.61677 45.529993,-18.93037 76.66478,-6.03616 153.29362,-12.73855 230.09261,-16.33374 24.04702,-1.12433 48.11521,-1.77513 72.20285,-2.11784 1.87204,-0.54186 3.64006,-1.54703 5.25897,-2.62948 1.632,-1.36464 0.2436,-4.14097 -1.80234,-3.87935 -6.64054,-0.22645 -13.28386,-0.53022 -19.92905,-0.54298 z"
       id="path1035" />
    <path
       style="opacity:0.996;fill:#b3b3b3;stroke-width:2.64583;stroke-linecap:square;stroke-miterlimit:4;stroke-dasharray:none"
       d="m 394.89704,433.27705 c -44.93969,0.70478 -89.82006,3.40152 -134.65626,6.39935 -48.99712,3.37146 -97.94203,7.4487 -146.89817,11.35898 -2.83803,0.30734 -5.82257,0.0842 -8.37934,1.5737 -3.76972,1.68034 -7.730634,3.01362 -11.317233,5.0642 -1.725536,1.35228 -0.374814,4.29244 1.745372,4.04388 21.267661,-1.62328 42.482351,-3.87912 63.723541,-5.81213 15.62571,-1.42832 31.31227,-3.06977 46.89707,-4.38223 3.72422,-0.21953 7.59838,-0.55645 11.25397,0.54353 4.11505,0.0235 8.19761,-0.80999 12.27268,-1.32392 4.7799,-0.58728 9.40301,-2.27714 14.26753,-2.00469 10.12298,-0.23813 20.29378,-1.2552 30.3149,-1.2657 2.08913,-0.004 3.94349,1.48895 6.07291,0.81235 6.61135,-0.61317 13.18916,-1.6287 19.62933,-3.25148 10.55158,-0.99092 21.15886,-1.27506 31.73539,-1.93011 23.56874,-1.26692 47.1361,-2.55883 70.70365,-3.84793 1.78515,-0.63813 3.57299,-1.62324 4.89974,-2.9945 0.88413,-1.80989 -1.00478,-3.54776 -2.8099,-3.10537 -3.15172,0.0407 -6.30343,0.0814 -9.45518,0.12207 z"
       id="path1037" />
    <path
       style="opacity:0.996;fill:#b3b3b3;stroke-width:2.64583;stroke-linecap:square;stroke-miterlimit:4;stroke-dasharray:none"
       d="m 241.17573,447.04987 c -4.06892,0.28244 -8.0006,1.54718 -12.05079,2.0279 -3.7736,0.70219 -7.59872,0.82604 -11.35431,1.63931 -1.94982,1.02019 -1.40498,3.54034 -1.8779,5.3458 -0.78007,6.31377 -1.70981,12.65926 -3.15814,18.86798 0.0138,2.31176 2.76219,3.69358 4.87616,3.34042 9.90812,-1.18664 19.77858,-2.14668 29.75578,-2.58207 3.07679,-0.0138 6.54948,-0.94524 8.10583,-3.86132 1.44996,-1.82023 -0.34658,-3.59136 -1.2003,-5.19152 -3.46973,-6.15773 -6.66056,-12.49005 -10.12248,-18.6369 -0.65824,-1.00441 -1.89753,-0.99046 -2.97385,-0.9496 z"
       id="path1039" />
    <path
       style="opacity:0.996;fill:#b3b3b3;stroke-width:2.64583;stroke-linecap:square;stroke-miterlimit:4;stroke-dasharray:none"
       d="m 301.42843,442.96569 c -3.81754,0.65425 -7.52509,1.86588 -11.38253,2.34373 -3.86765,0.67908 -7.71451,1.11647 -11.59616,1.42335 -2.29896,0.70683 -1.9649,3.56688 -2.63485,5.38347 -1.38137,5.85006 -2.97262,11.67071 -4.38605,17.47969 -0.0299,1.98975 2.22533,2.6106 3.82709,2.21251 12.97278,-1.38263 26.0296,-2.55372 38.7614,-5.51066 1.93993,-0.26024 2.55956,-2.84045 1.12999,-4.08821 -4.48906,-5.37405 -8.3424,-11.3114 -11.2693,-17.58444 -0.41357,-1.00259 -1.33299,-1.74806 -2.44959,-1.65944 z"
       id="path1041" />
    <path
       style="opacity:0.996;fill:#b3b3b3;stroke-width:2.64583;stroke-linecap:square;stroke-miterlimit:4;stroke-dasharray:none"
       d="m 349.21263,458.04757 c -6.71825,1.94746 -13.45975,3.72769 -20.37559,4.80317 -3.49443,0.55007 -7.04657,0.9283 -10.57256,1.06772 -1.40041,-10e-4 -2.81477,0.26675 -4.13068,0.65004 -6.9375,1.73144 -14.15983,2.76663 -21.27927,3.65673 -6.56923,0.82538 -13.21954,1.45041 -19.82425,2.15867 -1.02074,0.0688 -2.00263,0.33276 -2.98138,0.60839 -1.39483,0.36167 -2.84654,0.33494 -4.25794,0.56965 -1.3548,0.26735 -2.14797,1.9832 -1.3891,3.15763 0.55219,1.07993 1.87464,1.19236 2.95017,1.22775 4.1221,0.30511 8.38264,0.71635 12.49402,1.43757 7.04821,1.20429 13.98638,3.00192 20.44026,6.14667 1.8538,0.90696 3.65045,1.93124 5.37001,3.07264 -0.85733,1.07307 -0.39749,2.8755 0.92448,3.3257 1.08267,0.37578 2.24583,0.0128 3.3392,-0.14829 0.42396,-0.11074 0.61272,0.47092 0.74313,0.78382 1.27103,2.17987 2.54117,4.40602 3.17376,6.87009 0.42963,1.48911 0.57473,3.16967 0.79983,4.75059 0.17484,1.28977 1.45159,1.88728 2.35543,2.62858 0.80396,0.59765 1.65994,1.31134 2.73291,1.17716 10.05715,-0.008 20.11667,0.016 30.17231,-0.012 1.23611,-0.0217 2.1757,-1.23011 2.03616,-2.431 -0.0238,-14.51957 -0.003,-29.03948 -0.0705,-43.55883 -0.0874,-1.32056 -1.36011,-2.25787 -2.65041,-1.94245 z m -38.58165,30.27265 c 0.0468,-0.10841 0.0868,-0.13544 0,0 z"
       id="path1043" />
    <path
       style="opacity:0.996;fill:#b3b3b3;stroke-width:2.64583;stroke-linecap:square;stroke-miterlimit:4;stroke-dasharray:none"
       d="m 255.66445,469.8589 c -1.23046,0.21809 -1.74598,1.45176 -2.38282,2.37364 -0.67295,1.08108 -0.16498,2.64663 1.03718,3.09554 1.26213,0.38073 2.60967,0.1864 3.90961,0.24592 1.09,-0.0213 2.42816,0.1636 3.16298,-0.84097 0.86009,-0.97292 0.47175,-2.64113 -0.68103,-3.20641 -1.10454,-0.45122 -2.31925,-0.63189 -3.34067,-1.28784 -0.51911,-0.3031 -1.1035,-0.45915 -1.70525,-0.37988 z"
       id="path1045" />
  </g>
  <g
     inkscape:groupmode="layer"
     id="layer4"
     inkscape:label="Vents"
     style="display:inline">
    <path
       style="opacity:0.996;fill:#000000;stroke-width:2.64583;stroke-linecap:square;stroke-miterlimit:4;stroke-dasharray:none"
       d="m 1155.9047,807.52144 c -23.7074,5.97818 -47.4083,12.06543 -71.1523,17.93563 -7.9805,9.59924 -16.1654,19.11572 -23.8019,28.99191 0.1808,1.35514 2.3509,-0.12296 3.1414,0.0331 27.5001,-6.26422 54.9417,-13.70489 80.6866,-25.39455 2.6013,-1.48881 6.3996,-2.46684 6.8425,-5.96548 1.6194,-5.10574 3.4783,-10.19865 4.6025,-15.42328 -0.049,-0.14951 -0.1911,-0.19042 -0.3188,-0.17735 z"
       id="path940" />
    <path
       style="opacity:0.996;fill:#000000;stroke-width:2.64583;stroke-linecap:square;stroke-miterlimit:4;stroke-dasharray:none"
       d="m 1242.9073,771.33906 c -5.6334,3.51608 -10.2694,8.54168 -16.065,11.87742 -3.4762,2.41718 -7.555,4.12228 -10.9374,6.52221 1.291,2.62261 1.6204,5.63065 0.5365,8.40931 1.0792,0.97014 2.7597,-0.9516 3.9067,-1.24182 8.9771,-5.13837 17.9015,-10.56503 25.843,-17.21425 0.4279,-2.10351 -1.2698,-4.28503 -1.8664,-6.29187 -0.4281,-0.6015 -0.5875,-1.88558 -1.4174,-2.061 z"
       id="path942" />
    <path
       style="opacity:0.996;fill:#000000;stroke-width:2.64583;stroke-linecap:square;stroke-miterlimit:4;stroke-dasharray:none"
       d="m 291.22983,489.43746 c -13.4343,0.51805 -26.97081,2.4269 -39.77321,6.57588 -3.4771,1.63448 -0.36637,5.21808 1.94181,6.20344 3.90264,2.38069 7.97739,6.17852 12.91895,4.578 11.76623,-1.98187 23.69534,-1.84255 35.50277,-3.81413 4.22158,-0.927 7.75488,-5.60893 7.16745,-9.87078 -2.27385,-3.48337 -7.35004,-2.66291 -10.94374,-3.47986 -2.2659,-0.18634 -4.5415,-0.22668 -6.81403,-0.19255 z"
       id="path948" />
    <path
       style="opacity:0.996;fill:#000000;stroke-width:2.64583;stroke-linecap:square;stroke-miterlimit:4;stroke-dasharray:none"
       d="m 286.23489,668.35924 c -12.96066,0.58438 -24.41692,7.61867 -36.06241,12.61202 -13.78694,6.90341 -27.71995,13.9736 -39.918,23.47738 -2.84035,1.96443 -1.11582,6.2439 2.22641,6.01996 8.9913,0.95451 17.38805,-3.73518 25.86705,-5.98448 18.5501,-5.55918 35.02061,-16.12016 50.91077,-26.89762 2.45134,-1.75776 7.56976,-5.13561 4.15377,-8.40637 -2.12092,-1.27158 -4.83121,-0.6822 -7.17759,-0.82089 z"
       id="path950" />
    <path
       style="opacity:0.996;fill:#333333;stroke-width:2.64583;stroke-linecap:square;stroke-miterlimit:4;stroke-dasharray:none"
       d="m 973.33957,561.85524 c -3.94795,-0.70499 -11.02026,2.11191 -8.20867,7.05673 6.43943,8.48843 17.60757,11.15521 26.04955,17.08651 20.93985,11.98764 41.82545,24.41763 64.11315,33.73484 3.0922,2.05797 9.2426,0.31851 7.1607,-4.14196 -7.0288,-11.24416 -17.8121,-19.64279 -27.3882,-28.65187 -16.1513,-14.54094 -36.77177,-25.86508 -59.08038,-25.09603 -0.88204,-0.0181 -1.76411,0.0108 -2.64615,0.0118 z"
       id="path952" />
    <path
       style="opacity:0.996;fill:#333333;stroke-width:2.64583;stroke-linecap:square;stroke-miterlimit:4;stroke-dasharray:none"
       d="m 964.8801,681.66736 c -3.54655,4.26886 -2.32542,10.93721 -4.41965,16.05007 -0.74755,12.31987 -3.76071,13.63234 -10.37455,8.21645 -1.00457,-0.82262 -0.95404,3.11825 -2.27333,2.41985 4.27173,3.69975 11.22955,7.07872 11.8023,9.50019 11.00463,6.53393 21.61672,14.27292 33.73937,18.58147 3.73483,1.64108 10.05456,0.38513 8.70486,-4.89797 -4.04893,-16.00067 -16.53917,-28.005 -26.44083,-40.6134 -3.42559,-2.88148 -5.70053,-8.8327 -10.47523,-9.28878 z"
       id="path954"
       sodipodi:nodetypes="ccsccccccc" />
    <path
       style="opacity:0.996;fill:#333333;stroke-width:2.64583;stroke-linecap:square;stroke-miterlimit:4;stroke-dasharray:none"
       d="m 842.22845,641.35854 c -6.50594,-0.0574 -6.31745,8.02491 -4.70448,12.42229 6.97432,20.30849 21.03554,37.43592 35.80675,52.66301 17.77754,16.64086 38.84745,30.41129 62.14724,37.83295 4.68339,1.5662 13.29182,1.99703 13.33953,-4.88365 -1.44698,-15.8006 -10.28822,-30.0646 -19.99957,-42.2266 -6.09478,-6.8812 -11.82856,-14.32073 -18.9871,-20.10873 -0.86395,-0.0856 -7.06335,-6.46909 -7.42482,-6.0611 -1.12834,1.27352 9.30452,12.59131 5.30365,15.26585 2.06126,9.47441 0.0663,21.394 -7.61566,28.06031 -5.46634,3.05302 -10.37037,-3.23112 -14.07046,-6.57302 -6.82509,-6.36395 -6.04145,-17.62411 -1.84883,-25.17063 3.82532,-5.72593 10.66638,-9.86825 17.60331,-8.32332 4.53805,-1.62108 0.42384,-6.47949 -2.16413,-7.79481 -15.52932,-9.53833 -32.48954,-16.68499 -49.31111,-23.63531 -2.57239,-0.94078 -5.32956,-1.49611 -8.07432,-1.46724 z"
       id="path956"
       sodipodi:nodetypes="cccccccscccccccc" />
    <path
       style="opacity:0.996;fill:#333333;stroke-width:2.64583;stroke-linecap:square;stroke-miterlimit:4;stroke-dasharray:none"
       d="m 894.05305,640.20662 c -5.06714,0.0292 -3.37164,6.14545 -1.36155,8.72818 11.89779,22.60327 30.7022,40.65521 50.17461,56.76376 1.85819,3.00844 8.9627,4.38113 7.61209,-0.90829 -5.05627,-7.47871 -15.72959,-12.04788 -15.78314,-22.30599 2.58096,-7.26958 10.51573,-14.77094 18.87707,-12.06936 5.91436,2.88377 5.43753,-4.12883 1.23436,-6.09648 -13.56741,-9.69613 -30.15951,-13.90817 -45.50249,-19.97953 -4.99123,-1.58062 -9.96764,-3.82688 -15.25095,-4.13229 z"
       id="path958" />
    <path
       style="opacity:0.996;fill:#333333;stroke-width:2.64583;stroke-linecap:square;stroke-miterlimit:4;stroke-dasharray:none"
       d="m 1153.554,581.44532 c -5.3597,0.87118 -2.5306,7.50567 -0.6879,10.39968 9.55,17.83768 24.2869,32.62423 40.8122,44.05304 1.4641,0.36684 5.8066,4.34231 6.2164,3.62974 0.838,-1.45682 -3.7046,-8.69593 -5.4461,-9.6868 -2.8397,-4.27444 -10.6629,-7.86222 -8.2283,-13.95223 1.6504,-5.3777 6.461,-8.34455 11.4226,-9.95179 3.2289,-4.1692 -3.5192,-6.87978 -6.3187,-8.69954 -12.2158,-5.85771 -24.5655,-11.93012 -37.5445,-15.80105 z"
       id="path960"
       sodipodi:nodetypes="cccscccccc" />
    <path
       style="opacity:0.996;fill:#333333;stroke-width:2.64583;stroke-linecap:square;stroke-miterlimit:4;stroke-dasharray:none"
       d="m 1208.4814,620.07729 c -4.2504,3.62073 -2.6359,10.64042 -5.4365,15.28759 -1.7755,2.91817 -3.844,7.45289 1.0271,8.83859 9.2332,5.99638 18.7046,11.74557 28.5858,16.59109 5.6681,-0.13859 2.4863,-7.21778 0.8742,-10.05213 -6.0908,-11.17965 -14.1538,-21.35634 -23.0638,-30.39104 -0.5954,-0.4221 -1.2878,-0.41876 -1.9868,-0.2741 z"
       id="path962" />
    <path
       style="opacity:0.996;fill:#333333;stroke-width:2.64583;stroke-linecap:square;stroke-miterlimit:4;stroke-dasharray:none"
       d="m 1170.7148,569.90088 c -4.749,1.92214 0.4394,6.94204 1.8685,9.57379 6.6939,10.0855 15.3064,19.82464 26.6415,24.40743 4.5377,-3.42631 8.1292,-8.57131 14.031,-9.8658 4.1278,-3.31884 -2.0992,-6.50784 -4.8962,-7.70884 -12.2631,-5.88465 -24.396,-12.74202 -37.5087,-16.41733 z"
       id="path964" />
    <path
       style="opacity:0.996;fill:#333333;stroke-width:2.64583;stroke-linecap:square;stroke-miterlimit:4;stroke-dasharray:none"
       d="m 1220.6117,610.95675 c -3.8727,0.92011 -3.5115,6.63802 -7.6694,7.68375 -2.3276,4.41287 4.8371,6.65338 7.2002,9.71678 7.7372,5.82046 14.5035,13.39686 23.1819,17.76307 5.0775,-0.0807 1.902,-6.27573 0.055,-8.40788 -6.1815,-9.13699 -13.8574,-17.20617 -20.4584,-25.99254 -0.6523,-0.50751 -1.4717,-0.8375 -2.3093,-0.76318 z"
       id="path966" />
    <path
       style="opacity:0.996;fill:#333333;stroke-width:2.64583;stroke-linecap:square;stroke-miterlimit:4;stroke-dasharray:none"
       d="m 945.13356,561.62064 c -4.2609,-0.48184 -8.82602,4.11439 -5.9957,8.18976 3.96624,5.41396 10.56122,8.28869 16.69114,10.52064 5.86967,0.45469 11.91061,-0.42507 17.64757,-1.61515 3.33807,-1.63032 0.48718,-5.22289 -1.93058,-5.97289 -5.451,-5.0895 -12.05021,-8.92623 -19.44132,-10.35342 -2.28637,-0.49754 -4.62516,-0.84979 -6.97111,-0.76894 z"
       id="path968" />
    <path
       style="opacity:0.996;fill:#333333;stroke-width:2.64583;stroke-linecap:square;stroke-miterlimit:4;stroke-dasharray:none"
       d="m 937.98888,569.51397 c -2.14653,1.97842 -3.48043,5.32163 -3.55838,8.22776 3.92872,5.48756 11.82876,4.42863 17.45613,2.88575 3.42241,-2.67553 -1.94302,-4.82406 -4.1587,-5.87789 -3.45765,-1.205 -5.95008,-5.50139 -9.73905,-5.23562 z"
       id="path970" />
    <path
       style="opacity:0.996;fill:#000000;stroke-width:2.64583;stroke-linecap:square;stroke-miterlimit:4;stroke-dasharray:none"
       d="m 986.17353,552.1375 c -3.69644,1.23818 -0.73776,4.93377 1.20338,6.30617 4.23116,4.43315 9.07955,8.38303 15.19259,9.78198 4.1867,1.45717 9.3941,4.76454 13.3671,0.97036 2.6834,-3.54835 -2.7225,-5.81367 -5.19,-7.28132 -7.7436,-3.92673 -15.71948,-7.79957 -24.19175,-9.80379 z"
       id="path972" />
    <path
       style="opacity:0.996;fill:#333333;stroke-width:2.64583;stroke-linecap:square;stroke-miterlimit:4;stroke-dasharray:none"
       d="m 326.20444,427.3675 c -64.09174,0.50371 -128.05115,5.13044 -191.90167,10.37155 -11.31702,1.02024 -22.72376,1.48501 -33.97009,3.05755 -2.916537,1.32616 -1.15791,5.76508 1.81568,5.28852 76.8664,-3.93784 153.70006,-9.36311 230.53287,-13.56268 2.27266,-0.16659 26.49273,-1.54612 26.61877,-4.7779 -0.33628,-3.14046 -24.41252,-0.059 -26.57268,-0.36027 -2.17414,-0.03 -4.34861,-0.0265 -6.52288,-0.0168 z"
       id="path974"
       sodipodi:nodetypes="sccccccss" />
    <path
       style="opacity:0.996;fill:#333333;stroke-width:2.64583;stroke-linecap:square;stroke-miterlimit:4;stroke-dasharray:none"
       d="m 622.80434,399.13802 c -26.59396,-0.17881 -53.19078,0.83704 -79.63652,3.72841 -10.60976,1.17569 -21.26009,2.25589 -31.77204,4.10285 -3.36192,1.53644 -0.72411,5.83133 2.31315,5.45097 16.44796,1.47565 33.22024,3.1439 48.54316,9.72636 3.33689,1.91034 7.14261,3.46491 10.87538,1.50382 33.17639,-7.7856 67.23374,-11.24648 101.1946,-13.60267 16.89216,-1.30021 33.84182,-0.95992 50.82826,-1.19731 2.95762,0.60362 5.29891,-3.63983 1.92804,-4.86318 -12.57485,-2.1572 -25.47427,-2.52021 -38.19705,-3.67665 -21.98465,-1.42114 -44.05828,-1.07767 -66.07698,-1.1726 z"
       id="path976" />
    <path
       style="opacity:0.996;fill:#333333;stroke-width:2.64583;stroke-linecap:square;stroke-miterlimit:4;stroke-dasharray:none"
       d="m 578.95645,511.66194 c -5.98723,4.32365 -9.19115,11.75946 -12.80456,18.06746 -2.38665,6.17172 -6.16305,12.255 -6.77299,18.8769 3.95811,3.92119 10.66882,3.71257 15.77239,5.64861 5.38141,0.8883 10.98656,3.47977 16.39763,2.72308 3.10446,-3.6243 -0.81552,-8.94105 -1.03058,-13.05907 -2.91782,-10.4826 -4.87349,-21.38471 -9.10396,-31.42214 -0.54621,-0.74616 -1.57883,-1.06607 -2.45793,-0.83484 z"
       id="path978" />
    <path
       style="opacity:0.996;fill:#333333;stroke-width:2.64583;stroke-linecap:square;stroke-miterlimit:4;stroke-dasharray:none"
       d="m 390.83215,488.62478 c -2.5168,-0.13921 -3.54341,3.56056 -1.26109,4.70293 15.20793,9.66039 31.89465,16.71581 48.60134,23.33347 35.5954,13.68789 72.47853,23.96758 109.89672,31.27314 1.64354,0.52908 4.38963,0.67289 4.6205,-1.61798 0.14084,-2.83837 -3.40476,-2.99734 -5.39028,-3.66365 -33.00952,-8.24203 -65.81983,-17.31316 -97.89747,-28.55163 -18.33295,-6.65162 -36.59618,-13.5847 -53.58431,-23.30122 -1.57898,-0.87404 -3.08047,-2.19142 -4.98541,-2.17506 z"
       id="path980" />
    <path
       style="opacity:0.996;fill:#333333;stroke-width:2.64583;stroke-linecap:square;stroke-miterlimit:4;stroke-dasharray:none"
       d="m 370.72193,465.69409 c -1.96223,0.37205 -4.12408,2.24676 -2.85848,4.37547 1.37663,2.49708 2.64388,5.28023 4.89104,7.11299 2.02525,1.24793 4.35218,-1.38169 3.13592,-3.32024 -1.16763,-2.59504 -1.51249,-5.61289 -3.20432,-7.91993 -0.67032,-0.17484 -1.26468,-0.56692 -1.96416,-0.24829 z"
       id="path982" />
    <path
       style="opacity:0.996;fill:#333333;stroke-width:2.64583;stroke-linecap:square;stroke-miterlimit:4;stroke-dasharray:none"
       d="m 1146.5972,829.60225 c -12.3667,2.68557 -23.4983,9.17053 -35.9235,12.17885 -18.0812,6.14209 -37.2523,9.03319 -55.024,15.79427 -5.6603,6.90322 3.4154,13.95521 6.2503,19.7694 -10.8515,7.74716 -25.2252,8.95157 -37.7285,12.73371 -29.25878,7.97203 -59.80712,9.72635 -89.8205,5.20793 -55.23283,-6.35238 -110.20764,-15.4535 -165.48841,-21.2834 -8.62984,0.39452 -7.53721,11.39534 -6.4302,17.39548 0.86027,7.76213 6.58472,14.79478 14.87456,14.58827 54.77402,8.42299 110.03807,13.52812 165.25303,18.03639 21.26568,0.73096 42.79165,1.45854 63.93022,-0.36762 22.0687,-6.77468 45.9079,-9.22874 66.4005,-20.36955 19.904,-10.12532 42.5732,-14.40246 63.5798,-22.27821 23.2067,-8.12993 47.0425,-14.87281 69.6123,-24.608 7.19,-4.79104 -0.7397,-13.65059 -6.453,-15.53837 -16.6455,-7.0036 -35.1937,-9.51904 -53.0326,-11.25915 z"
       id="path984" />
    <path
       style="opacity:0.996;fill:#333333;stroke-width:2.64583;stroke-linecap:square;stroke-miterlimit:4;stroke-dasharray:none"
       d="m 1282.855,768.3938 c -6.0444,2.45113 -7.314,12.90029 -15.166,12.50569 -6.8926,1.40002 -13.7203,-2.5831 -20.3344,-0.93744 -10.7133,6.28713 -21.1131,13.28256 -31.6721,19.80491 -5.035,6.54195 -6.9465,15.3471 -8.6293,23.22015 6.0778,6.92877 17.988,8.17409 21.0134,18.21381 5.5447,2.69081 9.9265,-6.49941 14.9108,-8.70778 16.8039,-14.2121 36.7785,-26.11724 48.854,-44.98359 4.799,-6.92264 -1.5616,-17.59238 -8.9764,-19.11575 z"
       id="path986" />
    <path
       style="opacity:0.996;fill:#333333;stroke-width:2.64583;stroke-linecap:square;stroke-miterlimit:4;stroke-dasharray:none"
       d="m 136.48926,695.59174 c -7.62352,-0.44521 -8.49961,9.36234 -4.11705,13.76487 6.3537,11.81044 21.70453,9.4179 32.83698,11.55954 60.35965,6.23882 120.34731,16.46433 178.83028,32.81304 49.31656,13.49386 99.1044,26.18079 147.0656,44.16293 19.33866,7.80923 35.60059,21.3931 54.77979,29.62143 7.05879,3.29109 17.38622,8.94294 24.42458,3.02611 2.31976,-6.43024 1.57303,-14.10832 0.58018,-20.57003 -11.37248,0.27641 -22.77298,-2.95597 -32.2961,-9.43835 -12.90164,-9.43165 -27.32474,-17.25631 -43.01114,-21.34399 -80.51811,-25.57131 -162.27867,-47.10199 -244.43907,-66.67894 -22.70215,-5.91936 -46.7031,-0.16623 -69.08435,-7.47474 -15.15702,-3.07824 -30.10059,-8.27889 -45.5697,-9.44187 z"
       id="path988" />
    <path
       style="opacity:0.996;fill:#b3b3b3;stroke-width:2.64583;stroke-linecap:square;stroke-miterlimit:4;stroke-dasharray:none"
       d="m 500.49873,410.39614 c -8.77961,0.0471 -17.54182,0.88871 -26.22888,2.12303 -23.38449,3.39191 -46.19197,10.87118 -66.92337,22.23166 -6.73216,3.64385 -13.23625,7.69744 -19.529,12.05379 -6.38275,3.56261 -11.75943,8.57946 -17.22617,13.36303 -0.68062,0.63679 -1.5067,1.08909 -2.447,1.16808 -1.40367,0.24486 -2.28306,1.77883 -1.84433,3.12371 0.28376,1.2369 0.30123,2.87232 1.64658,3.4701 1.35305,0.59281 2.74288,-0.32443 3.93147,-0.91049 2.71709,-1.87398 4.84645,-4.45264 7.40712,-6.52218 5.13908,-4.33243 10.74922,-7.99045 16.40316,-11.501 8.99623,-5.48786 18.37867,-10.50397 28.03908,-14.65966 3.16831,-1.33893 6.42414,-2.62429 9.70264,-3.56598 -14.42704,14.2654 -27.03187,30.25961 -38.64305,46.86584 -2.15059,3.11488 -4.40907,6.16339 -6.40517,9.38018 -0.71202,1.29358 0.2621,3.05174 1.73853,3.12127 0.54557,0.14532 1.1008,-0.43647 1.53895,0.0575 1.06029,0.86792 2.79418,0.65317 3.47014,-0.58471 3.52623,-5.61648 7.28795,-11.10054 11.22553,-16.41317 6.8362,-9.31261 14.41542,-18.08081 22.13282,-26.69358 4.71839,-5.16615 9.58355,-10.39118 15.11395,-14.70435 4.50196,-3.55116 9.79231,-6.13774 15.44309,-7.20649 7.68361,-1.51285 15.59624,-2.38576 23.46365,-2.67342 5.90084,-0.123 11.86923,-0.0524 17.70184,0.28821 5.55461,0.32329 11.2395,0.88809 16.8502,1.23882 1.43037,-0.0437 2.29058,-1.51001 2.17311,-2.82856 0.0161,-2.58175 0.0665,-5.17424 -0.0212,-7.74968 -0.0841,-1.30483 -1.41441,-1.9816 -2.59988,-1.9743 -5.35455,-0.45946 -10.74301,-0.47819 -16.11394,-0.49766 z"
       id="path1047" />
    <path
       style="opacity:0.996;fill:#b3b3b3;stroke-width:2.64583;stroke-linecap:square;stroke-miterlimit:4;stroke-dasharray:none"
       d="m 381.69815,447.82108 c -5.31366,1.10264 -10.44176,2.9338 -15.52668,4.80052 -8.32136,2.72571 -16.70428,5.50635 -25.23548,7.68224 -7.44858,1.87246 -15.00778,3.35153 -22.6926,3.60516 -2.90031,0.0641 -5.6388,1.15724 -8.47481,1.6484 -8.30551,1.71988 -16.64148,2.65916 -25.08859,3.59961 -4.44915,0.53224 -8.91431,0.81531 -13.34667,1.48826 -1.5226,0.49536 -3.11414,0.66474 -4.69958,0.82208 -1.49572,0.14007 -2.51021,1.94521 -1.69437,3.2517 0.77071,1.41213 2.55916,1.1991 3.91613,1.33772 9.76783,0.79706 19.50442,2.46583 28.6145,6.20535 2.85607,1.19646 5.67179,2.62673 8.13856,4.36111 -0.8981,1.18662 -0.18659,3.08034 1.28818,3.33387 1.07566,0.27163 2.22294,-0.0909 3.25799,-0.15955 0.56108,0.51659 0.70822,1.33428 1.17558,1.94143 1.68719,2.84412 2.91806,6.00623 3.13973,9.33097 0.0494,1.10092 0.31644,2.31607 1.37075,2.88882 8.28609,6.20191 17.6394,10.77682 27.0401,15.01672 5.15588,2.28907 10.37489,4.44795 15.63327,6.48193 1.4986,0.50988 2.60803,-0.86387 3.58199,-1.78084 1.6705,-1.79353 2.93499,-3.92142 4.4128,-5.87083 5.41451,-7.56816 10.75729,-15.18742 16.1658,-22.75977 1.50442,-0.77764 3.20191,-1.18686 4.61878,-2.11558 1.14678,-0.89252 0.87423,-2.78684 -0.34113,-3.50257 -5.31749,-3.89249 -9.9509,-8.63721 -13.8109,-13.99561 -2.33927,-3.3871 -4.52671,-7.06542 -5.21843,-11.18127 -0.42183,-2.32311 0.24108,-4.9254 2.16437,-6.41425 2.12166,-1.658 4.73024,-2.37186 7.2009,-3.25731 1.91317,-0.65493 3.97184,-1.14658 5.49605,-2.56589 1.09302,-0.63421 1.68498,-2.11259 0.94126,-3.22684 -0.4581,-0.65577 -1.22211,-1.04252 -2.0275,-0.96558 z m -71.15244,40.59746 c 0.0895,-0.24274 0.17669,-0.3534 0,0 z m -0.1646,0.55806 c -0.008,-0.0395 0.0468,-0.14939 0,0 z"
       id="path1049" />
    <path
       style="opacity:0.996;fill:#c0c0c0;fill-opacity:1;stroke-width:2.64583;stroke-linecap:square;stroke-miterlimit:4;stroke-dasharray:none"
       d="m 897.52772,672.21755 c -8.39693,0.35655 -15.64352,7.09777 -17.57029,15.13173 -0.9882,4.45421 -0.73211,9.12297 -0.31541,13.63441 0.55094,2.85474 2.25694,5.61078 4.58544,7.3117 2.21056,0.88273 3.42958,-1.64663 3.12229,-3.49046 0.12335,-5.72331 -0.28654,-11.71699 2.5304,-16.95842 1.94992,-4.2224 5.17326,-8.74651 10.07536,-9.49264 1.85086,0.2208 4.86291,0.29057 4.96747,-2.25348 -0.28213,-2.79485 -3.74124,-3.6734 -6.1124,-3.8509 -0.42667,-0.0336 -0.85514,-0.0371 -1.28286,-0.0319 z"
       id="path1051" />
    <path
       style="opacity:0.996;fill:#c0c0c0;fill-opacity:1;stroke-width:2.64583;stroke-linecap:square;stroke-miterlimit:4;stroke-dasharray:none"
       d="m 949.45381,667.80726 c -6.23483,0.18201 -10.95917,5.05815 -14.56357,9.64782 -2.2742,2.80189 -2.73039,6.67798 -1.35101,9.9848 0.89416,2.15437 1.6819,5.38107 4.36025,5.77807 2.75847,-0.11599 2.47497,-3.47781 2.85851,-5.4519 1.15493,-6.81101 6.50687,-13.68305 13.91409,-13.73886 1.93736,0.4049 4.11004,-1.84811 2.53429,-3.50829 -2.03902,-1.79888 -4.98536,-2.91439 -7.75256,-2.71164 z"
       id="path1053" />
    <path
       style="opacity:0.996;fill:#b3b3b3;stroke-width:2.64583;stroke-linecap:square;stroke-miterlimit:4;stroke-dasharray:none"
       d="m 1195.702,604.7018 c -4.5293,0.84185 -8.2714,4.41592 -10.3311,8.4298 -1.5741,2.9388 -2.7922,7.0961 0,9.74347 0.9259,1.72206 3.6989,2.68527 4.7847,0.59096 1.4371,-3.95278 1.9438,-8.19824 4.4913,-11.70445 1.0299,-1.92527 4.559,-3.27007 3.285,-5.90476 -0.4107,-0.80331 -1.3529,-1.2023 -2.2253,-1.15502 z"
       id="path1055" />
    <path
       style="opacity:0.996;fill:#b3b3b3;stroke-width:2.64583;stroke-linecap:square;stroke-miterlimit:4;stroke-dasharray:none"
       d="m 1210.8952,593.11389 c -4.2467,0.73367 -7.5906,3.96272 -10.1333,7.19957 -0.7356,1.90179 0.9345,3.91775 2.093,5.37896 1.5981,1.50795 3.68,-0.0482 4.2336,-1.7697 1.3968,-3.1031 4.343,-5.05923 6.1547,-7.83379 0.6172,-1.49726 -0.7768,-3.18399 -2.348,-2.97504 z"
       id="path1057" />
  </g>
  <g
     inkscape:label="Body"
     id="layer2"
     inkscape:groupmode="layer">
    <path
       sodipodi:nodetypes="ccccccccsccccccccccccc"
       id="path832"
       d="m 402.5344,438.38739 -99.92053,5.45736 c 3.90748,8.94416 8.69293,15.30355 13.71727,20.95964 17.24687,-0.31726 33.68965,-6.12252 50.20744,-11.41578 7.0933,-2.78492 14.28658,-4.99522 21.71232,-5.86954 35.65413,-24.81893 70.71325,-33.62064 101.90911,-35.90448 92.73371,-19.33609 236.62804,-11.88085 262.71378,-1.54732 36.03228,14.00437 69.3883,36.21796 109.00848,64.445 32.99285,23.50545 69.81131,41.36036 76.88912,48.32483 29.9536,-5.58037 59.87526,-12.14527 90.00251,-12.37543 95.4321,-0.42164 127.5901,38.26133 160.2767,67.56615 l 19.2561,8.88807 c 5.7861,1.91719 9.0369,9.09567 11.18,18.57291 6.3958,14.64431 13.7549,20.07826 20.922,28.43486 17.8933,22.15482 34.8279,43.49348 47.843,61.49562 9.3448,14.17525 0.6063,19.54195 -2.7248,22.75038 l -44.3943,33.80268 c -8.7028,7.70209 -19.7583,15.41536 -47.5372,23.37225 -50.312,14.27836 -122.0029,31.00185 -175.2356,38.60021 -32.10576,5.48332 -36.99047,-5.05795 -48.96506,-11.3713 L 777.52716,646.75766 c -88.8099,-75.86583 -169.22394,-82.97663 -256.3828,-49.87671"
       style="fill:none;stroke:#000000;stroke-width:2.64583;stroke-linecap:butt;stroke-linejoin:miter;stroke-miterlimit:4;stroke-dasharray:none;stroke-opacity:1" />
    <path
       sodipodi:nodetypes="cccccc"
       id="path834"
       d="M 1265.1118,713.53745 C 1215.6493,674.7436 1113.3761,558.07532 982.82758,533.86642 c 15.26748,5.92922 66.03092,22.41745 27.70672,36.75901 -12.9373,-7.1404 -39.96771,-10.87523 -44.08885,-6.25498 -4.53008,5.09451 6.03474,10.39686 11.73504,13.08147 -51.34182,6.98031 -109.07618,5.21902 -165.60798,5.10218"
       style="fill:none;stroke:#000000;stroke-width:2.64583;stroke-linecap:butt;stroke-linejoin:miter;stroke-miterlimit:4;stroke-dasharray:none;stroke-opacity:1" />
    <path
       sodipodi:nodetypes="cccccccccccccccccccccccc"
       id="path836"
       d="m 1291.7772,702.5783 c 2.2287,9.85421 0.2762,19.34944 -5.8343,28.48769 0.6624,1.28648 -1.2386,4.9813 -2.7045,8.96056 l -1.111,2.30823 -4.0845,12.59954 c -0.5257,1.97456 0.8218,3.08065 1.8202,4.34858 4.1872,5.14969 2.5641,6.20961 2.6709,8.48712 4.7508,3.97671 10.518,7.02036 10.1082,15.82859 -5.5871,12.65082 -14.1439,20.49538 -23.8157,26.5353 l -40.2264,32.65696 c -6.0665,12.02507 -28.1878,17.40669 -31.5137,16.274 -36.7553,13.21327 -73.9373,26.02617 -112.7622,37.29767 -11.3767,3.54334 -15.6114,9.06809 -19.5233,10.51299 -18.2581,5.84482 -33.5273,9.5111 -48.6362,13.06051 -16.23955,4.78861 -39.38862,5.27715 -66.15571,3.51406 -62.55554,-4.6284 -124.28104,-11.08889 -173.37885,-18.28847 -8.53097,-1.11165 -12.88031,-5.85028 -13.89502,-18.13511 -1.35624,-9.37494 1.93846,-14.23398 12.83825,-11.70872 l 153.90935,20.89652 c 30.17831,3.9082 57.89322,3.46619 82.87438,-1.80351 20.3684,-5.43926 46.2977,-10.30334 51.4703,-17.31438 -1.8886,-3.39308 -8.0761,-7.30151 -9.1357,-10.43607 -1.8436,-6.03141 3.4444,-10.46561 7.274,-15.22642 l 22.1972,-26.92347"
       style="fill:none;stroke:#000000;stroke-width:2.64583;stroke-linecap:butt;stroke-linejoin:miter;stroke-miterlimit:4;stroke-dasharray:none;stroke-opacity:1" />
    <path
       sodipodi:nodetypes="ccccccc"
       id="path838"
       d="m 775.57335,875.3178 c -4.81413,-5.06464 -1.99172,-9.64326 -0.94975,-14.3352 3.22349,-12.76406 3.28042,-28.84204 4.76582,-42.63167 3.3186,-38.1539 -25.28715,-167.47124 -115.37143,-196.41335 -48.44987,-14.15092 -76.96603,9.79632 -98.52931,42.83224 -9.75565,25.39233 -20.37779,50.27878 -17.23374,83.20238 4.95443,24.93966 9.64586,59.38599 15.20582,62.43757"
       style="fill:none;stroke:#000000;stroke-width:2.64583;stroke-linecap:butt;stroke-linejoin:miter;stroke-miterlimit:4;stroke-dasharray:none;stroke-opacity:1" />
    <path
       sodipodi:nodetypes="ccsscccc"
       id="path840"
       d="m 276.16774,454.48929 -4.36134,16.8003 c -2.45097,1.05249 -6.17843,1.0086 -8.11037,1.07181 -6.26577,0.20502 -8.71682,-2.46646 -10.32234,-5.46327 l -10.11092,-18.87274 27.46621,-1.47832 c 2.24407,0.0701 4.26766,-0.50234 7.02243,1.05636 z"
       style="fill:none;stroke:#000000;stroke-width:2.64583;stroke-linecap:butt;stroke-linejoin:miter;stroke-miterlimit:4;stroke-dasharray:none;stroke-opacity:1" />
    <path
       sodipodi:nodetypes="ccccccccccccccccccccccccc"
       id="path842"
       d="m 86.809085,461.56895 20.924615,-1.67561 98.56924,-9.3038 c 3.63248,-0.21855 7.65165,-0.73255 11.01968,0.82697 -1.07365,8.5188 -1.91843,17.34049 -4.09041,24.40568 -29.97738,-18.13061 -90.11232,-11.69329 -122.265563,-3.82885 -26.467406,6.20338 -35.314509,14.4353 -41.860356,22.42831 -10.978541,18.48101 -14.108575,46.36386 -16.114979,64.65856 -1.940039,21.31325 -2.917466,43.4161 1.391655,63.40812 1.253285,7.85149 3.651022,18.79922 13.080661,20.92102 l -0.07713,-1.86298 c -9.425361,1.61004 -17.137887,-35.46341 -10.957128,-74.9607 0.475491,-7.18586 5.924826,-57.29527 38.099276,-48.43235 32.318994,13.62513 46.459384,59.37771 56.879174,86.65326 l 2.11266,78.94704 c -0.0915,3.92529 0.22494,10.06428 4.20329,11.95284 -4.27863,-0.75308 -6.415,4.17305 -7.90684,6.92948 6.40214,12.51024 7.51723,13.57584 18.46265,15.41094 66.91372,6.49185 120.98302,15.10393 161.71026,25.91838 60.49869,14.05095 108.2909,29.40731 159.5159,44.411 18.43516,6.61289 36.78205,13.34717 51.42773,25.17102 16.4562,6.63504 34.10422,22.76374 49.00072,16.97479 l 0.49849,-15.71533 c 1.07168,-5.97173 -2.08598,-4.35754 -4.4479,-4.17063 -0.63153,0.19094 -1.27421,0.40555 -2.52402,-0.22634"
       style="fill:none;stroke:#000000;stroke-width:2.64583;stroke-linecap:butt;stroke-linejoin:miter;stroke-miterlimit:4;stroke-dasharray:none;stroke-opacity:1" />
    <path
       sodipodi:nodetypes="cccc"
       id="path855"
       d="m 131.40782,604.80658 c 125.08025,33.30586 229.37093,71.00546 339.68986,107.43102 13.01005,4.76111 26.17233,9.19819 37.86298,16.76776 14.43781,7.66186 30.85806,17.30599 39.29428,18.96684"
       style="fill:none;stroke:#000000;stroke-width:2.64583;stroke-linecap:butt;stroke-linejoin:miter;stroke-miterlimit:4;stroke-dasharray:none;stroke-opacity:1" />
    <path
       sodipodi:nodetypes="ccscscccccc"
       id="path857"
       d="m 1075.3948,784.93333 c -30.7775,-33.07626 -60.6933,-66.06815 -106.8753,-100.65266 -3.48815,-3.6287 -8.18548,-12.46877 -10.95531,-15.7918 -7.61547,-9.13648 -17.93608,-10.8822 -28.38,-15.91319 -19.84527,-14.64371 -39.58256,-29.30345 -63.3965,-43.35816 -18.77462,-11.08057 -40.08311,-21.78509 -65.97606,-31.80923 -28.08865,-8.82154 -61.1994,-21.38911 -136.04403,-14.42889 -31.72531,5.32415 -63.45469,10.70606 -95.31876,17.99646 l -14.34626,5.99248 c -9.4472,4.40236 -6.40595,15.0985 -4.21664,25.3653 6.08204,29.62787 11.55111,50.80393 15.60274,52.43618"
       style="fill:none;stroke:#000000;stroke-width:2.64583;stroke-linecap:butt;stroke-linejoin:miter;stroke-miterlimit:4;stroke-dasharray:none;stroke-opacity:1" />
    <path
       sodipodi:nodetypes="cccccc"
       id="path859"
       d="m 1285.9429,731.06599 c -13.6369,14.69943 -30.2881,29.36873 -48.6848,43.08208 -21.8475,19.4918 -48.0904,23.79308 -81.3094,32.18725 -39.3845,10.70375 -85.579,21.33629 -128.451,32.00357 -39.33832,10.68135 -59.63918,6.48998 -88.6629,3.42299 -61.70817,-4.33355 -107.2179,-12.71331 -159.66944,-21.20786"
       style="fill:none;stroke:#000000;stroke-width:2.64583;stroke-linecap:butt;stroke-linejoin:miter;stroke-miterlimit:4;stroke-dasharray:none;stroke-opacity:1" />
    <path
       sodipodi:nodetypes="cc"
       id="path861"
       d="M 521.14436,596.88095 C 379.80452,565.09747 231.45309,521.86317 87.668417,472.79966"
       style="fill:none;stroke:#000000;stroke-width:2.64583;stroke-linecap:butt;stroke-linejoin:miter;stroke-miterlimit:4;stroke-dasharray:none;stroke-opacity:1" />
    <path
       sodipodi:nodetypes="ccccc"
       id="path863"
       d="m 938.77139,522.8371 24.38103,14.48293 c 14.03812,11.87554 6.96588,20.12623 -11.19803,25.73732 m -12.75034,3.18114 c -41.84515,8.51554 -115.1959,8.50952 -154.40939,6.43718"
       style="fill:none;stroke:#000000;stroke-width:2.64583;stroke-linecap:butt;stroke-linejoin:miter;stroke-miterlimit:4;stroke-dasharray:none;stroke-opacity:1" />
    <path
       sodipodi:nodetypes="ccccc"
       id="path865"
       d="m 663.7676,562.9794 c -20.42824,-6.52369 -40.30544,-16.08775 -54.74792,-55.63773 L 587.57541,454.1147 c -5.81555,-15.29762 -10.05867,-28.2093 -30.63917,-35.41295 -8.55329,-3.07985 -38.98469,-9.25726 -66.77623,-7.08716"
       style="fill:none;stroke:#000000;stroke-width:2.64583;stroke-linecap:butt;stroke-linejoin:miter;stroke-miterlimit:4;stroke-dasharray:none;stroke-opacity:1" />
    <path
       sodipodi:nodetypes="csccccccssccc"
       id="path867"
       d="m 380.64678,452.62104 c -7.57141,2.42614 -12.35481,3.68081 -13.44346,8.28337 -1.89387,8.00685 9.54681,22.50255 19.9877,29.66421 17.25531,13.48315 85.19195,43.20267 172.57887,58.70296 3.98389,-11.98506 5.90494,-20.66767 20.29896,-39.39859 -2.821,-18.41837 -11.77872,-39.60814 -21.53137,-64.26016 -7.46707,-15.58699 -21.96202,-20.75533 -42.25317,-23.00294 -17.60176,-1.37104 -33.79403,-3.27968 -57.27184,1.13748 -6.11215,1.30558 -11.38847,3.38093 -18.416,9.44163 -7.43807,6.41475 -16.02465,16.39848 -22.88482,24.39722 -12.71427,14.82446 -21.88461,29.08603 -23.99777,32.93131 l -2.40485,-1.50208 c -1.49549,0.7492 -2.42191,1.62296 -2.73659,2.63063"
       style="fill:none;stroke:#000000;stroke-width:2.64583;stroke-linecap:butt;stroke-linejoin:miter;stroke-miterlimit:4;stroke-dasharray:none;stroke-opacity:1" />
    <path
       sodipodi:nodetypes="cc"
       id="path869"
       d="M 560.59757,546.74822 C 505.60344,533.88063 428.57307,511.92258 393.71388,490.51753"
       style="fill:none;stroke:#000000;stroke-width:2.64583;stroke-linecap:butt;stroke-linejoin:miter;stroke-miterlimit:4;stroke-dasharray:none;stroke-opacity:1" />
    <path
       sodipodi:nodetypes="ccc"
       id="path871"
       d="m 559.76987,549.27158 c 10.88488,3.49521 22.25063,5.52299 32.91652,7.50324 -3.96827,-15.58843 -5.94058,-25.84772 -12.61755,-46.90183"
       style="fill:none;stroke:#000000;stroke-width:2.64583;stroke-linecap:butt;stroke-linejoin:miter;stroke-miterlimit:4;stroke-dasharray:none;stroke-opacity:1" />
    <path
       sodipodi:nodetypes="cc"
       id="path873"
       d="m 592.68639,556.77482 3.2729,18.33076"
       style="fill:none;stroke:#000000;stroke-width:2.64583;stroke-linecap:butt;stroke-linejoin:miter;stroke-miterlimit:4;stroke-dasharray:none;stroke-opacity:1" />
    <path
       sodipodi:nodetypes="cc"
       id="path875"
       d="m 213.23221,475.82219 c 28.78779,18.38593 57.70597,36.76697 90.17216,55.01499"
       style="fill:none;stroke:#000000;stroke-width:2.64583;stroke-linecap:butt;stroke-linejoin:miter;stroke-miterlimit:4;stroke-dasharray:none;stroke-opacity:1" />
    <path
       sodipodi:nodetypes="cc"
       id="path877"
       d="m 271.8064,471.28959 c 19.7138,-1.92085 34.28878,-3.56103 44.52474,-6.4852"
       style="fill:none;stroke:#000000;stroke-width:2.64583;stroke-linecap:butt;stroke-linejoin:miter;stroke-miterlimit:4;stroke-dasharray:none;stroke-opacity:1" />
    <path
       sodipodi:nodetypes="ccc"
       id="path879"
       d="m 388.2509,447.51907 c -6.09023,3.35584 -11.28645,8.06155 -16.49847,12.7434 -1.47316,1.45479 -2.99505,2.38155 -4.69035,1.42944"
       style="fill:none;stroke:#000000;stroke-width:2.64583;stroke-linecap:butt;stroke-linejoin:miter;stroke-miterlimit:4;stroke-dasharray:none;stroke-opacity:1" />
    <path
       sodipodi:nodetypes="ccsc"
       id="path881"
       d="m 386.98021,490.42311 c 14.06067,-20.81298 28.88297,-41.48856 49.1169,-61.18784 -15.09706,3.26745 -48.82317,21.92698 -60.40478,33.3886 -4.7037,4.65497 -4.68289,3.91605 -7.69103,5.1296"
       style="fill:none;stroke:#000000;stroke-width:2.64583;stroke-linecap:butt;stroke-linejoin:miter;stroke-miterlimit:4;stroke-dasharray:none;stroke-opacity:1" />
    <path
       sodipodi:nodetypes="ccc"
       id="path883"
       d="m 388.34527,488.72255 -1.06808,-0.96342 c -7.1269,-5.05047 -12.42907,-10.23324 -14.98856,-22.01578"
       style="fill:none;stroke:#000000;stroke-width:2.64583;stroke-linecap:butt;stroke-linejoin:miter;stroke-miterlimit:4;stroke-dasharray:none;stroke-opacity:1" />
    <path
       sodipodi:nodetypes="ccccccscc"
       id="path885"
       d="m 410.68537,433.87155 c -93.67602,0.79419 -197.87985,10.18179 -302.61187,18.39757 l -51.502937,21.37847 c -3.243921,1.42162 -7.272427,3.4009 -8.923523,-2.1487 -0.271399,-1.28422 -3.750053,-21.19896 9.97506,-24.23403 l 34.601205,-5.28634 c 12.886015,3.68285 5.333177,3.4761 13.774205,3.04829 75.2796,-3.81537 204.57616,-12.90405 287.53622,-16.64865 l 26.69397,0.80924"
       style="fill:none;stroke:#000000;stroke-width:2.64583;stroke-linecap:butt;stroke-linejoin:miter;stroke-miterlimit:4;stroke-dasharray:none;stroke-opacity:1" />
    <path
       sodipodi:nodetypes="ccc"
       id="path887"
       d="m 302.61387,443.84475 c -1.91092,-0.0471 -3.74767,0.27345 -5.50709,0.97729 -1.87533,0.59847 -11.93747,2.40579 -19.35538,2.78139"
       style="fill:none;stroke:#000000;stroke-width:2.64583;stroke-linecap:butt;stroke-linejoin:miter;stroke-miterlimit:4;stroke-dasharray:none;stroke-opacity:1" />
    <path
       sodipodi:nodetypes="ccc"
       id="path889"
       d="m 243.26277,448.02539 c -1.56073,-0.27576 -3.12841,-0.24788 -5.9025,0.36846 -4.26355,1.12581 -12.7923,2.32442 -20.03765,3.02266"
       style="fill:none;stroke:#000000;stroke-width:2.64583;stroke-linecap:butt;stroke-linejoin:miter;stroke-miterlimit:4;stroke-dasharray:none;stroke-opacity:1" />
    <path
       sodipodi:nodetypes="ccc"
       id="path891"
       d="m 92.223304,441.97852 c 76.420796,-5.65761 141.921926,-13.08105 247.340506,-13.9046 8.42332,-0.30259 29.32789,-1.16602 29.56808,1.48599"
       style="fill:none;stroke:#000000;stroke-width:2.64583;stroke-linecap:butt;stroke-linejoin:miter;stroke-miterlimit:4;stroke-dasharray:none;stroke-opacity:1" />
    <path
       sodipodi:nodetypes="cc"
       id="path893"
       d="m 754.55424,410.7271 c -71.3524,-10.13434 -183.12947,9.92568 -186.07693,13.61634"
       style="fill:none;stroke:#000000;stroke-width:2.64583;stroke-linecap:butt;stroke-linejoin:miter;stroke-miterlimit:4;stroke-dasharray:none;stroke-opacity:1" />
    <path
       sodipodi:nodetypes="cc"
       id="path895"
       d="m 966.86749,540.91885 c 11.67563,7.87171 20.35828,16.15483 29.42003,24.38585"
       style="fill:none;stroke:#000000;stroke-width:2.64583;stroke-linecap:butt;stroke-linejoin:miter;stroke-miterlimit:4;stroke-dasharray:none;stroke-opacity:1" />
    <path
       sodipodi:nodetypes="cc"
       id="path897"
       d="m 1017.7666,567.3334 c -10.4535,-7.59683 -24.42633,-12.39418 -38.49261,-17.11716"
       style="fill:none;stroke:#000000;stroke-width:2.64583;stroke-linecap:butt;stroke-linejoin:miter;stroke-miterlimit:4;stroke-dasharray:none;stroke-opacity:1" />
    <path
       sodipodi:nodetypes="ccc"
       id="path899"
       d="m 965.60924,568.30274 c -10.21165,-4.39336 -19.9099,-8.43019 -24.80285,-4.60787 -4.50078,3.87422 -0.80614,9.99787 15.91211,16.16226"
       style="fill:none;stroke:#000000;stroke-width:2.64583;stroke-linecap:butt;stroke-linejoin:miter;stroke-miterlimit:4;stroke-dasharray:none;stroke-opacity:1" />
    <path
       sodipodi:nodetypes="ccc"
       id="path901"
       d="m 939.13212,566.25312 -3.88956,10.59995 c 0.69871,2.62639 3.34923,3.3606 5.73074,4.20973"
       style="fill:none;stroke:#000000;stroke-width:2.64583;stroke-linecap:butt;stroke-linejoin:miter;stroke-miterlimit:4;stroke-dasharray:none;stroke-opacity:1" />
    <path
       sodipodi:nodetypes="cccc"
       id="path903"
       d="m 978.18047,577.45192 c 22.28173,12.65426 44.72923,26.84225 66.70183,36.63623 6.3949,2.90248 22.4642,12.03351 14.5624,-2.21333 -13.5187,-14.34997 -26.9853,-28.71119 -48.9104,-41.24939"
       style="fill:none;stroke:#000000;stroke-width:2.64583;stroke-linecap:butt;stroke-linejoin:miter;stroke-miterlimit:4;stroke-dasharray:none;stroke-opacity:1" />
    <path
       sodipodi:nodetypes="cccccc"
       id="path905"
       d="m 1265.3381,751.23822 c 2.6672,1.33633 1.6206,7.56265 0.2556,14.24306 -1.6276,1.34409 -4.4045,4.85348 -5.0118,7.54363 l -4.1215,8.61772 c 7.9167,0.76951 14.6329,2.82859 18.569,-2.82784 2.502,-3.68064 5.5713,-6.29542 7.5046,-11.04477"
       style="fill:none;stroke:#000000;stroke-width:2.64583;stroke-linecap:butt;stroke-linejoin:miter;stroke-miterlimit:4;stroke-dasharray:none;stroke-opacity:1" />
    <path
       sodipodi:nodetypes="ccc"
       id="path907"
       d="m 1256.4604,781.64263 -8.4174,-2.13114 c -1.3295,-3.01989 -2.4496,-4.70419 -4.1948,-10.37479"
       style="fill:none;stroke:#000000;stroke-width:2.64583;stroke-linecap:butt;stroke-linejoin:miter;stroke-miterlimit:4;stroke-dasharray:none;stroke-opacity:1" />
    <path
       sodipodi:nodetypes="cc"
       id="path909"
       d="m 1248.043,779.51149 c -9.3813,7.96839 -20.7553,14.99196 -33.1947,21.40536"
       style="fill:none;stroke:#000000;stroke-width:2.64583;stroke-linecap:butt;stroke-linejoin:miter;stroke-miterlimit:4;stroke-dasharray:none;stroke-opacity:1" />
    <path
       sodipodi:nodetypes="cccccc"
       id="path911"
       d="m 137.72377,695.70646 64.34153,15.26305 c 20.024,-2.86931 38.32782,-0.25165 56.08955,4.09514 74.17232,18.56047 148.0143,36.74412 228.59992,62.62029 13.54716,3.57047 34.48017,9.71476 46.72734,21.36767 9.92355,5.63079 19.18339,12.19708 29.97865,11.35716"
       style="fill:none;stroke:#000000;stroke-width:2.64583;stroke-linecap:butt;stroke-linejoin:miter;stroke-miterlimit:4;stroke-dasharray:none;stroke-opacity:1" />
    <path
       sodipodi:nodetypes="cccccc"
       id="path913"
       d="m 546.64763,806.44841 c -14.23692,-7.06415 -20.1137,-26.60806 -28.84658,-40.77011 -7.29476,-10.93284 -12.90788,-24.54486 -41.33112,-38.47075 -41.67393,-17.35872 -104.45739,-35.15053 -157.76145,-52.5035 -15.73323,-4.34849 -31.40208,-9.3763 -48.2667,-1.78783 -26.92821,11.06485 -49.61116,23.79204 -68.37648,38.05329"
       style="fill:none;stroke:#000000;stroke-width:2.64583;stroke-linecap:butt;stroke-linejoin:miter;stroke-miterlimit:4;stroke-dasharray:none;stroke-opacity:1" />
    <path
       sodipodi:nodetypes="ccccc"
       id="path915"
       d="m 292.54695,669.12126 c 3.11194,3.84659 -0.36176,5.31176 -4.40036,8.26598 -11.27647,7.48298 -23.01116,14.88879 -37.16052,21.88792 l -31.62723,10.49103 c -4.88377,-0.0646 -10.62838,0.6039 -10.21,-3.97566"
       style="fill:none;stroke:#000000;stroke-width:2.64583;stroke-linecap:butt;stroke-linejoin:miter;stroke-miterlimit:4;stroke-dasharray:none;stroke-opacity:1" />
    <path
       sodipodi:nodetypes="cc"
       id="path917"
       d="m 315.44589,502.60893 c 31.71125,25.73099 158.55048,62.19858 272.2431,74.17852"
       style="fill:none;stroke:#000000;stroke-width:2.64583;stroke-linecap:butt;stroke-linejoin:miter;stroke-miterlimit:4;stroke-dasharray:none;stroke-opacity:1" />
    <path
       sodipodi:nodetypes="ccccccc"
       id="path919"
       d="m 388.57244,491.64608 -6.4091,2.69842 -19.48445,27.50923 c -2.18572,2.52537 -6.78729,6.89055 -14.31067,7.68478 -4.80807,0.59855 -31.51862,2.95045 -46.03758,4.62864 -5.37076,0.4213 -12.51335,3.0415 -12.2759,8.62507 -1.21669,40.94024 12.94441,82.05423 21.82764,116.22791"
       style="fill:none;stroke:#000000;stroke-width:2.64583;stroke-linecap:butt;stroke-linejoin:miter;stroke-miterlimit:4;stroke-dasharray:none;stroke-opacity:1" />
    <path
       sodipodi:nodetypes="ccc"
       id="path921"
       d="m 313.4067,502.11143 c -0.17641,-3.06253 -0.611,-6.13578 -4.3523,-9.34631 -17.16276,-6.14446 -45.35391,0.55718 -61.44035,4.83212"
       style="fill:none;stroke:#000000;stroke-width:2.64583;stroke-linecap:butt;stroke-linejoin:miter;stroke-miterlimit:4;stroke-dasharray:none;stroke-opacity:1" />
    <path
       sodipodi:nodetypes="ccc"
       id="path923"
       d="m 315.4459,502.60893 c -0.33585,-3.05812 -0.246,-6.00723 -3.62471,-11.64198 l -2.76681,1.79817"
       style="fill:none;stroke:#000000;stroke-width:2.64583;stroke-linecap:butt;stroke-linejoin:miter;stroke-miterlimit:4;stroke-dasharray:none;stroke-opacity:1" />
    <path
       sodipodi:nodetypes="ccc"
       id="path925"
       d="m 311.64589,488.27446 c -0.8323,0.87293 -5.16007,1.39141 -9.65543,0.95431 -24.81592,-2.15323 -44.45277,3.45152 -56.83768,6.83027"
       style="fill:none;stroke:#000000;stroke-width:2.64583;stroke-linecap:butt;stroke-linejoin:miter;stroke-miterlimit:4;stroke-dasharray:none;stroke-opacity:1" />
    <path
       sodipodi:nodetypes="cc"
       id="path927"
       d="m 216.09932,477.65296 c 32.3732,-4.36728 71.36312,-5.68614 91.76698,9.51572"
       style="fill:none;stroke:#000000;stroke-width:2.64583;stroke-linecap:butt;stroke-linejoin:miter;stroke-miterlimit:4;stroke-dasharray:none;stroke-opacity:1" />
    <path
       sodipodi:nodetypes="cc"
       id="path929"
       d="m 255.44191,469.76202 c -0.70305,2.07662 -1.54529,4.11194 -6.09001,5.04879"
       style="fill:none;stroke:#000000;stroke-width:2.64583;stroke-linecap:butt;stroke-linejoin:miter;stroke-miterlimit:4;stroke-dasharray:none;stroke-opacity:1" />
    <path
       sodipodi:nodetypes="ccc"
       id="path931"
       d="m 309.05438,492.76512 c -1.80593,5.02891 -2.93667,10.45696 -13.49962,10.3092 -10.7474,0.63093 -21.44165,1.17481 -33.27546,3.58514"
       style="fill:none;stroke:#000000;stroke-width:2.64583;stroke-linecap:butt;stroke-linejoin:miter;stroke-miterlimit:4;stroke-dasharray:none;stroke-opacity:1" />
    <path
       style="fill:none;stroke:#000000;stroke-width:2.64583;stroke-linecap:butt;stroke-linejoin:miter;stroke-miterlimit:4;stroke-dasharray:none;stroke-opacity:1"
       d="m 929.18419,652.57568 -31.28566,-11.25673 c -7.2207,-1.42603 -6.68196,1.28515 -5.84507,4.15531 11.69478,26.42849 46.50179,62.25441 93.26105,86.40236 15.43459,8.53049 19.04869,4.84739 13.0734,-8.74384 C 992.088,712.10123 981.7295,698.93932 968.5195,684.28067"
       id="path878"
       sodipodi:nodetypes="cccccc" />
    <path
       style="fill:none;stroke:#000000;stroke-width:2.64583;stroke-linecap:butt;stroke-linejoin:miter;stroke-miterlimit:4;stroke-dasharray:none;stroke-opacity:1"
       d="m 915.60847,683.81974 c 16.79985,16.73096 28.3721,34.04195 32.20148,52.21206 0.0547,2.94997 2.6713,12.45329 -15.77889,6.19357 -29.81135,-11.03112 -69.47699,-35.73219 -92.17595,-83.90723 -2.34421,-8.25109 -8.16408,-21.20569 14.00487,-13.60627 l 33.57195,15.6247 c 13.1258,5.66854 20.48827,14.67006 28.17654,23.48317 z"
       id="path880"
       sodipodi:nodetypes="ccccccc" />
    <path
       style="fill:none;stroke:#000000;stroke-width:2.64583;stroke-linecap:butt;stroke-linejoin:miter;stroke-miterlimit:4;stroke-dasharray:none;stroke-opacity:1"
       d="m 940.26742,695.80632 c -3.79293,-13.45273 8.80218,-26.5385 17.69087,-21.51052 11.15447,7.58435 2.35072,32.90658 -2.64081,35.17289 z"
       id="path882"
       sodipodi:nodetypes="cccc" />
    <path
       style="fill:none;stroke:#000000;stroke-width:2.64583;stroke-linecap:butt;stroke-linejoin:miter;stroke-miterlimit:4;stroke-dasharray:none;stroke-opacity:1"
       d="m 940.2674,695.80632 c -5.76339,-4.43835 -8.7116,-13.27517 -5.19897,-17.24185 4.178,-5.76377 16.30464,-19.27058 27.53446,-0.24319 1.06271,2.02733 1.12759,6.6669 0.74634,9.5093"
       id="path884"
       sodipodi:nodetypes="cccc" />
    <path
       style="fill:none;stroke:#000000;stroke-width:2.64583;stroke-linecap:butt;stroke-linejoin:miter;stroke-miterlimit:4;stroke-dasharray:none;stroke-opacity:1"
       d="m 887.80161,711.3666 c -5.99992,-23.81229 8.31449,-36.18226 14.46318,-33.74816 14.43863,7.3001 5.51038,41.79995 -7.36947,39.06549 z"
       id="path886"
       sodipodi:nodetypes="cccc" />
    <path
       style="fill:none;stroke:#000000;stroke-width:2.64583;stroke-linecap:butt;stroke-linejoin:miter;stroke-miterlimit:4;stroke-dasharray:none;stroke-opacity:1"
       d="m 908.45435,685.23341 c -0.67048,-4.98423 -2.62419,-12.17187 -10.76582,-12.31702 -2.94115,0.19489 -20.39356,2.51505 -17.32822,27.44589 0.11776,4.4738 4.8744,7.3657 7.4413,11.00432"
       id="path888"
       sodipodi:nodetypes="cccc" />
    <path
       style="fill:none;stroke:#000000;stroke-width:2.64583;stroke-linecap:butt;stroke-linejoin:miter;stroke-miterlimit:4;stroke-dasharray:none;stroke-opacity:1"
       d="m 1158.0509,805.80705 -6.3014,20.44889 -6.5056,3.92662 c 18.5726,2.41417 44.9716,5.85112 57.0822,12.89713 13.6751,9.75409 -0.2556,15.38654 -5.2397,15.98518"
       id="path890"
       sodipodi:nodetypes="ccccc" />
    <path
       style="fill:none;stroke:#000000;stroke-width:2.64583;stroke-linecap:butt;stroke-linejoin:miter;stroke-miterlimit:4;stroke-dasharray:none;stroke-opacity:1"
       d="m 1151.7495,826.25593 c 18.1793,4.64692 41.778,9.75315 52.9063,4.15562 2.5728,-7.90911 7.8912,-21.72024 10.3206,-30.58309 1.3906,-5.07318 2.3997,-6.94749 -1.0825,-10.55811"
       id="path892"
       sodipodi:nodetypes="ccsc" />
    <path
       style="fill:none;stroke:#000000;stroke-width:2.64583;stroke-linecap:butt;stroke-linejoin:miter;stroke-miterlimit:4;stroke-dasharray:none;stroke-opacity:1"
       d="m 1207.0611,823.40396 -0.014,0.0394 c 8.4307,4.21506 22.9184,9.97397 21.5529,19.34752"
       id="path894"
       sodipodi:nodetypes="ccc" />
    <path
       style="fill:none;stroke:#000000;stroke-width:2.64583;stroke-linecap:butt;stroke-linejoin:miter;stroke-miterlimit:4;stroke-dasharray:none;stroke-opacity:1"
       d="m 1145.2439,830.18256 v 0 c -27.394,11.98491 -57.0928,20.23283 -87.8715,26.73008"
       id="path896"
       sodipodi:nodetypes="ccc" />
    <path
       style="fill:none;stroke:#000000;stroke-width:2.64583;stroke-linecap:butt;stroke-linejoin:miter;stroke-miterlimit:4;stroke-dasharray:none;stroke-opacity:1"
       d="m 1190.2005,797.69008 c 11.8452,1.63896 26.0997,2.48946 25.6711,-5.64229"
       id="path898"
       sodipodi:nodetypes="cc" />
    <path
       style="fill:none;stroke:#000000;stroke-width:2.64583;stroke-linecap:butt;stroke-linejoin:miter;stroke-miterlimit:4;stroke-dasharray:none;stroke-opacity:1"
       d="m 1234.1315,627.07191 c 8.977,8.69249 12.5511,19.62707 13.4134,21.91419 -14.0732,-9.86322 -34.8826,-28.20223 -41.5615,-34.3713 0.4049,0.54442 -0.041,0.7305 0.4146,1.31694 8.0837,10.39661 24.5268,27.48647 28.4274,40.21377 1.338,6.46845 -2.2026,3.79087 -5.2459,2.04567 -21.7392,-11.10331 -60.0353,-36.2551 -75.9383,-66.68584 -3.4957,-7.45384 -4.9657,-13.30117 11.3246,-5.06388 l 22.0175,9.37172"
       id="path900"
       sodipodi:nodetypes="cccsccccc" />
    <path
       style="fill:none;stroke:#000000;stroke-width:2.64583;stroke-linecap:butt;stroke-linejoin:miter;stroke-miterlimit:4;stroke-dasharray:none;stroke-opacity:1"
       d="m 1186.9833,595.81318 c -6.3872,-6.19166 -11.5829,-13.83383 -16.7622,-21.49585 -2.639,-4.61669 -0.4205,-4.66712 3.8546,-2.7843 l 14.9749,6.49479"
       id="path902"
       sodipodi:nodetypes="cccc" />
    <path
       style="fill:none;stroke:#000000;stroke-width:2.64583;stroke-linecap:butt;stroke-linejoin:miter;stroke-miterlimit:4;stroke-dasharray:none;stroke-opacity:1"
       d="m 1205.9834,614.6148 c -4.1137,-10.7007 -9.9616,-13.54487 -19.0001,-18.80162"
       id="path904"
       sodipodi:nodetypes="cc" />
    <path
       style="fill:none;stroke:#000000;stroke-width:2.64583;stroke-linecap:butt;stroke-linejoin:miter;stroke-miterlimit:4;stroke-dasharray:none;stroke-opacity:1"
       d="m 1219.4867,605.4888 c 0.5371,8.70382 -3.1077,16.1619 -7.3222,11.53472 l -7.0403,-8.57586 c -1.0676,-4.30978 8.4104,-17.25047 12.1457,-10.65459"
       id="path906"
       sodipodi:nodetypes="cccc" />
    <path
       style="fill:none;stroke:#000000;stroke-width:2.64583;stroke-linecap:butt;stroke-linejoin:miter;stroke-miterlimit:4;stroke-dasharray:none;stroke-opacity:1"
       d="m 1205.1242,608.44766 v 0 l -4.0385,-7.21233 c 2.4281,-3.66073 9.8227,-12.02139 16.1837,-3.4436"
       id="path908"
       sodipodi:nodetypes="cccc" />
    <path
       style="fill:none;stroke:#000000;stroke-width:2.64583;stroke-linecap:butt;stroke-linejoin:miter;stroke-miterlimit:4;stroke-dasharray:none;stroke-opacity:1"
       d="m 1205.9834,614.6148 c 2.3025,10.7472 -0.3963,19.82611 -3.7321,24.42974 l -13.1274,-13.13143 c 0.8116,-5.07375 4.3447,-25.19018 15.1152,-15.18939"
       id="path910"
       sodipodi:nodetypes="cccc" />
    <path
       style="fill:none;stroke:#000000;stroke-width:2.64583;stroke-linecap:butt;stroke-linejoin:miter;stroke-miterlimit:4;stroke-dasharray:none;stroke-opacity:1"
       d="m 1189.1239,625.91311 -4.9235,-5.64551 c 0.7937,-12.17646 14.5324,-21.00772 20.0387,-9.54386"
       id="path912"
       sodipodi:nodetypes="ccc" />
  </g>
  <g
     inkscape:groupmode="layer"
     id="layer3"
     inkscape:label="Wheels">
    <path
       id="path916"
       style="fill:#000000;stroke:#000000;stroke-width:2.64583;stroke-linecap:butt;stroke-linejoin:miter;stroke-miterlimit:4;stroke-dasharray:none;stroke-opacity:1"
       d="m 637.65524,632.70817 c -1.08651,-0.003 -2.18059,0.0143 -3.28197,0.0496 -102.10837,9.80199 -97.62477,231.5247 22.69527,266.3853 136.60382,33.62259 118.57339,-266.15162 -19.4133,-266.43491 z m 0.0982,30.1222 c 47.50318,-0.40018 83.82243,53.11413 89.96558,106.99192 6.62479,58.10234 -19.92956,115.13492 -74.98818,104.0965 -94.18032,-26.21846 -103.83764,-199.85987 -18.41699,-210.96594 1.15271,-0.0725 2.29952,-0.11287 3.43959,-0.12248 z" />
    <path
       style="fill:none;stroke:#000000;stroke-width:2.64583;stroke-linecap:butt;stroke-linejoin:miter;stroke-miterlimit:4;stroke-dasharray:none;stroke-opacity:1"
       d="m 618.41547,636.25976 c 11.03048,-6.98169 43.37502,-11.53482 59.67212,-8.78137"
       id="path918"
       sodipodi:nodetypes="cc" />
    <path
       style="fill:none;stroke:#000000;stroke-width:2.64583;stroke-linecap:butt;stroke-linejoin:miter;stroke-miterlimit:4;stroke-dasharray:none;stroke-opacity:1"
       d="m 668.27497,901.20828 c 35.15373,9.08758 63.13306,-10.96786 94.18552,-18.53996"
       id="path920"
       sodipodi:nodetypes="cc" />
    <path
       id="path928"
       style="fill:#000000;stroke:#000000;stroke-width:2.64583;stroke-linecap:butt;stroke-linejoin:miter;stroke-miterlimit:4;stroke-dasharray:none;stroke-opacity:1"
       d="m 76.138627,534.39738 c -22.911043,1.90266 -32.984934,42.39508 -31.039966,84.62275 2.168681,47.08475 24.961643,98.74086 50.200038,96.63803 49.924851,-5.50428 36.809781,-181.64488 -19.160072,-181.26078 z m -1.232482,20.92069 c 43.317775,-0.29886 53.468315,136.75104 14.829067,141.03377 -19.53321,1.63615 -37.17396,-38.55588 -38.852408,-75.19128 -1.505304,-32.85623 6.291376,-64.36209 24.023341,-65.84249 z" />
    <path
       style="fill:none;stroke:#000000;stroke-width:2.64583;stroke-linecap:butt;stroke-linejoin:miter;stroke-miterlimit:4;stroke-dasharray:none;stroke-opacity:1"
       d="m 85.761324,713.94361 c 11.057297,9.47206 36.496926,3.51951 52.155826,0.85103"
       id="path930"
       sodipodi:nodetypes="cc" />
    <path
       style="fill:none;stroke:#000000;stroke-width:2.64583;stroke-linecap:butt;stroke-linejoin:miter;stroke-miterlimit:4;stroke-dasharray:none;stroke-opacity:1"
       d="m 65.487759,538.58949 c 5.176423,-7.42312 12.927501,-9.38556 26.287889,-8.88555"
       id="path932"
       sodipodi:nodetypes="cc" />
    <path
       style="opacity:0.996;fill:#000000;stroke-width:2.64583;stroke-linecap:square;stroke-miterlimit:4;stroke-dasharray:none"
       d="m 85.368108,530.80302 c -2.921275,0.40425 -6.399424,-0.23524 -8.939598,1.47799 -0.175313,1.3582 2.359223,1.06866 3.252957,1.45119 11.342708,1.29199 19.90577,10.19214 26.068593,19.14507 12.46731,19.6738 17.28415,43.08343 20.29232,65.88763 1.20676,14.91111 1.11969,29.96032 0.1899,44.89775 -1.96099,14.6445 -4.90897,29.93038 -13.66468,42.21765 -3.59137,5.16562 -9.10686,8.67916 -15.020856,10.58241 -0.97282,1.31913 1.814963,1.48378 2.591116,1.50373 11.44018,0.76928 22.7923,-1.68254 34.03168,-3.46903 2.04586,-0.35234 -0.51596,-2.67213 -0.83037,-3.63762 -1.58634,-2.78268 -3.80715,-5.78102 -4.29252,-8.78494 1.25757,-2.76984 3.16732,-5.27592 5.52508,-7.13258 -0.26235,-2.13209 -1.78929,-4.08064 -1.71178,-6.36699 -1.12461,-27.88195 -1.60016,-55.79475 -2.4463,-83.68646 -8.65505,-22.44965 -16.41419,-45.867 -31.104963,-65.25996 -2.482459,-3.16784 -5.115068,-6.28563 -7.965916,-9.08919 -1.991554,0.0878 -3.983109,0.17556 -5.974663,0.26335 z"
       id="path935" />
    <path
       style="opacity:0.996;fill:#000000;stroke-width:2.64583;stroke-linecap:square;stroke-miterlimit:4;stroke-dasharray:none"
       d="m 663.57213,627.87794 c -7.95994,0.11448 -15.99843,0.78443 -23.74545,2.6371 -1.54305,0.63648 0.57369,1.57604 1.37406,1.35077 21.26871,0.73634 42.04581,9.55612 57.68641,23.95541 14.44869,12.84282 25.45564,29.18944 33.41193,46.74245 12.13921,26.09514 18.25858,54.81516 19.30749,83.512 0.73385,27.48542 -3.05086,55.91304 -16.28206,80.37666 -8.35848,15.52879 -22.15592,28.61527 -39.28319,33.75728 -0.71012,0.073 -2.74312,1.29514 -1.34811,1.85333 19.80933,-2.16564 37.95845,-11.14631 56.75472,-17.15937 3.15745,-1.3368 6.78291,-1.68066 9.76825,-3.30499 1.10697,-2.4131 1.62277,-5.49206 4.40262,-6.69663 2.11545,-1.48502 4.88884,-0.7807 7.1275,-1.52905 -0.32475,-1.64192 -1.04097,-3.40278 -0.58295,-5.22115 1.20912,-7.63416 3.49964,-15.12039 3.98592,-22.89379 1.83126,-19.26815 3.86418,-38.848 0.30705,-58.05443 -5.69669,-35.59275 -18.01958,-70.29484 -37.02122,-100.98084 -15.21155,-24.2959 -36.0639,-45.81052 -62.24577,-58.13068 -4.53929,-0.0697 -9.07735,-0.21934 -13.6172,-0.21407 z"
       id="path937" />
  </g>
</svg>
