<?xml version="1.0" encoding="UTF-8" standalone="no"?>
<svg
   xmlns:dc="http://purl.org/dc/elements/1.1/"
   xmlns:cc="http://creativecommons.org/ns#"
   xmlns:rdf="http://www.w3.org/1999/02/22-rdf-syntax-ns#"
   xmlns:svg="http://www.w3.org/2000/svg"
   xmlns="http://www.w3.org/2000/svg"
   xmlns:sodipodi="http://sodipodi.sourceforge.net/DTD/sodipodi-0.dtd"
   xmlns:inkscape="http://www.inkscape.org/namespaces/inkscape"
   inkscape:export-ydpi="96"
   inkscape:export-xdpi="96"
   inkscape:export-filename="/home/masterg/Pictures/Car Designs/Subaru-WRX.png"
   width="508mm"
   height="508mm"
   viewBox="0 0 508 508"
   version="1.1"
   id="svg8"
   inkscape:version="1.0 (1.0+r73+1)"
   sodipodi:docname="Subaru-WRX.svg">
  <defs
     id="defs2" />
  <sodipodi:namedview
     inkscape:snap-page="true"
     inkscape:snap-intersection-paths="true"
     inkscape:object-paths="true"
     id="base"
     pagecolor="#ffffff"
     bordercolor="#666666"
     borderopacity="1.0"
     inkscape:pageopacity="0.0"
     inkscape:pageshadow="2"
     inkscape:zoom="0.35355339"
     inkscape:cx="939.59482"
     inkscape:cy="1036.4124"
     inkscape:document-units="mm"
     inkscape:current-layer="layer6"
     inkscape:document-rotation="0"
     showgrid="false"
     inkscape:window-width="1920"
     inkscape:window-height="1020"
     inkscape:window-x="0"
     inkscape:window-y="30"
     inkscape:window-maximized="1" />
  <metadata
     id="metadata5">
    <rdf:RDF>
      <cc:Work
         rdf:about="">
        <dc:format>image/svg+xml</dc:format>
        <dc:type
           rdf:resource="http://purl.org/dc/dcmitype/StillImage" />
        <dc:title></dc:title>
      </cc:Work>
    </rdf:RDF>
  </metadata>
  <g
     inkscape:label="BG"
     id="layer6"
     inkscape:groupmode="layer">
    <rect
       ry="2.2726464"
       y="0"
       x="0"
       height="508"
       width="508"
       id="rect1177"
       style="opacity:0.996;fill:#ffffff;fill-opacity:1;stroke:none;stroke-width:1.32292;stroke-linecap:square;stroke-miterlimit:4;stroke-dasharray:none" />
    <rect
       ry="2.2726464"
       y="0"
       x="0"
       height="508"
       width="508"
       id="rect1175"
       style="opacity:0.996;fill:#bba559;fill-opacity:0.27671251;stroke:none;stroke-width:1.32292;stroke-linecap:square;stroke-miterlimit:4;stroke-dasharray:none" />
  </g>
  <g
     inkscape:label="Body Colour"
     id="layer5"
     inkscape:groupmode="layer">
    <path
       sodipodi:nodetypes="ccccccccccccccccccccccccccc"
       id="path1051"
       d="m 194.39868,208.92421 c -1.72714,1.38614 -0.29424,4.40404 -0.58917,6.30072 -0.20196,6.82416 -3.13504,13.24126 -3.29006,20.11592 -1.20416,18.65013 -0.91547,37.37659 -0.5335,56.05145 0.0765,8.17908 1.42139,15.95974 3.90363,23.64816 1.73734,1.34343 4.76376,3.18442 6.92927,3.08736 0.25656,-2.90108 -1.88803,-5.67137 -2.20383,-8.61388 -2.70755,-12.20515 -1.66657,-26.03569 6.5334,-36.10263 5.48319,-7.66683 15.26601,-12.57984 24.69435,-10.37976 14.92194,1.97201 27.57802,11.84951 36.1485,23.7787 2.71978,3.39714 4.98277,7.20499 7.67453,10.56793 18.21894,3.61687 36.55063,6.95424 54.92573,9.46221 5.00491,0.50298 10.05101,-0.8417 13.8952,-4.1556 1.59483,-1.64959 6.38807,-3.13515 3.15238,-5.62853 -5.11741,-7.39083 -7.41469,-17.26329 -4.8369,-26.00259 0.71501,-2.70582 3.58671,-4.126 4.62835,-6.50824 -3.46382,-3.11458 -8.18745,-4.76367 -12.30381,-6.9648 -30.81367,-13.47782 -62.89273,-23.75037 -94.43981,-35.32626 -11.19104,-3.76556 -22.06794,-8.56607 -33.49282,-11.57984 -3.70372,-0.16517 -7.26549,-0.58514 -10.79544,-1.75032 z m 119.0272,70.69879 c 4.73389,0.4023 10.4119,2.12865 12.06767,7.19821 2.31989,5.13793 5.21404,10.27757 6.42551,15.80385 -0.56904,2.05172 -3.64276,0.69108 -5.06786,0.59486 -4.78001,-0.73737 -7.97919,-4.61326 -9.81307,-8.80575 -2.04177,-4.59015 -5.32459,-8.97722 -5.69156,-14.0633 0.25339,-0.84619 1.40906,-0.72689 2.07931,-0.72787 z"
       style="opacity:0.996;fill:#0b1e6b;fill-opacity:1;stroke:none;stroke-width:1.32292;stroke-linecap:square;stroke-miterlimit:4;stroke-dasharray:none" />
    <path
       id="path1053"
       d="m 495.28106,278.4892 c -2.31682,1.22247 -4.55184,2.85399 -7.11261,3.74358 -2.48345,1.02673 -3.29816,4.01227 -6.00411,4.76097 -22.79541,9.33284 -47.11459,14.25585 -71.26366,18.57111 -1.82555,0.73109 -3.23827,-0.2299 -4.46233,-1.43447 -3.88568,-0.59574 -7.92954,0.94502 -11.85736,0.66409 -3.69438,-0.37192 -7.33785,0.40961 -10.30851,2.69683 -6.21316,3.57097 -13.96696,2.93466 -20.60691,0.8787 -6.03015,-1.90563 -11.18545,-5.56176 -16.55456,-8.73637 -4.16825,1.98934 -7.33055,6.33851 -12.26532,6.88483 -9.60583,0.96799 -19.08968,-1.9448 -28.62183,-3.12003 -10.69945,-1.6656 -21.36298,-3.80947 -31.98206,-5.80767 -0.96486,1.844 1.14104,4.16941 1.5276,6.09116 6.36444,15.30931 10.44704,31.75931 10.17084,48.37802 0.32909,3.03807 4.533,2.38866 6.54773,3.42065 15.77641,3.72543 31.5015,7.86148 47.49556,10.53266 19.39423,2.4357 39.04819,0.79562 58.25802,-2.36927 -4.70773,0.54441 -8.88084,2.94746 -13.66842,3.03395 -2.26656,0.008 -4.88464,0.88085 -4.91885,3.589 1.06302,1.79818 4.5401,-0.70181 6.58919,-0.72716 1.13337,-0.14303 2.49846,-1.09098 2.78998,0.36544 3.65738,0.23313 7.27572,-1.6202 10.83712,-2.4285 24.01951,-7.7751 48.11183,-15.40188 71.77566,-24.21157 8.8115,-3.75874 18.17934,-7.03419 25.62,-13.23542 1.3453,-1.73714 1.77692,-3.99543 3.24247,-5.72774 1.44335,-5.93056 0.23868,-12.20817 1.00259,-18.2366 0.30379,-5.4247 1.2415,-10.88955 3.4405,-15.93141 -0.27228,-2.18473 -4.08982,1.80598 -1.84242,-0.47984 1.83136,-1.75548 3.01286,-5.23511 0.39481,-6.87167 -2.34299,-1.95551 -5.15747,-3.83891 -8.22312,-4.29327 z m -0.27535,16.62137 c -15.80346,7.4847 -32.94457,11.53375 -49.63819,16.50401 -4.15366,1.14925 -8.33233,2.26323 -12.50645,3.29607 20.00879,-5.38908 40.18637,-10.59852 59.37419,-18.52251 0.48358,-0.1718 3.71917,-1.75903 2.77045,-1.27757 z m 0.0749,7.68254 c 2.70918,0.193 1.32919,3.96033 1.31549,5.58525 -1.46357,7.47153 -2.63613,15.17025 -5.38099,22.25978 -5.20634,4.22816 -11.84281,6.33664 -17.87766,9.18482 -18.76372,7.55648 -38.19099,13.44538 -57.68332,18.80597 -2.58215,0.71611 -4.60251,-2.21459 -3.39029,-4.53117 2.24604,-8.99963 4.35491,-18.26313 7.84352,-26.84383 2.18551,-4.12316 7.53216,-3.86277 11.37041,-5.31066 21.06753,-4.99534 42.13246,-10.5441 62.10517,-18.98819 0.5556,-0.12614 1.12718,-0.20137 1.69767,-0.16197 z m -86.65405,17.06578 c -6.877,1.0255 -13.81837,1.60588 -20.7304,2.23522 7.06946,-0.75211 14.16937,-1.24637 21.20315,-2.30709 z m -15.81455,5.99297 c 3.68594,5.90465 1.48789,13.14049 0.11743,19.4083 -1.49471,5.9645 -4.81949,12.636 -11.53184,13.80474 -5.95175,2.00635 -12.36615,1.3683 -18.50385,2.08068 -1.72789,0.66337 0.97121,2.32659 0.79164,2.09045 -5.66667,-1.92377 -9.60906,-7.92693 -8.93681,-13.90328 -0.0832,-6.06382 -0.57176,-12.66458 3.22628,-17.79263 4.05164,-4.94552 11.02169,-4.30131 16.73778,-5.22563 6.10878,-0.55511 12.23962,-0.86428 18.38282,-1.06699 l -0.22008,0.46927 z m -47.92247,0.97487 c 1.48747,-0.013 3.3953,0.19447 4.61923,0.37456 -2.72285,-0.0182 -7.33599,-1.64057 -8.56628,1.88394 -0.9439,2.26749 -0.29692,5.25375 2.35061,5.9221 2.1399,1.04169 5.36361,1.50022 6.96987,2.70493 -0.33814,0.89498 0.0241,1.65109 -1.37576,1.23808 -2.41318,0.2308 -5.81874,-1.32883 -7.53271,0.10022 0.52689,3.49868 2.09891,7.27243 5.88637,8.23504 1.43939,0.41836 1.77689,0.93979 1.00555,2.11599 0.55713,1.06402 0.54589,0.75065 -0.61045,0.90603 -1.27603,1.44458 1.08202,3.47035 1.66325,4.87131 0.43728,0.92392 3.28943,4.06596 2.13905,3.00458 -2.11526,-2.27634 -5.18202,-4.219 -6.2086,-7.21079 1.45973,-1.00519 3.46837,-2.87865 0.23587,-2.89829 -3.98999,-0.67569 -4.74731,-5.64214 -5.17094,-8.93276 0.24355,-1.27993 3.69899,-0.41751 2.18964,-2.13195 -1.84113,-0.3817 -3.33473,-1.56585 -2.95193,-3.65956 -0.40211,-2.92806 0.99018,-6.80397 4.55446,-6.49711 0.26723,-0.0157 0.53499,-0.0265 0.80277,-0.0263 z m 36.19469,36.52876 c -2.70838,0.22696 -5.4328,0.37862 -8.12798,0.42214 2.59403,-0.0672 6.04732,-0.25619 8.12798,-0.42214 z"
       style="opacity:0.996;fill:#0b1e6b;fill-opacity:1;stroke:none;stroke-width:1.32292;stroke-linecap:square;stroke-miterlimit:4;stroke-dasharray:none" />
    <path
       id="path1055"
       d="m 369.78712,202.97579 c -17.91583,1.83495 -36.02106,2.73351 -53.97968,4.58843 -25.38584,2.41366 -50.79836,4.56785 -76.2402,6.16709 -1.18685,-0.25098 -3.46867,1.13993 -1.66083,2.07064 1.16975,0.57243 6.06222,1.80739 2.69536,0.91621 -6.01033,-1.41014 -12.52021,-4.02083 -18.67188,-2.02268 -0.89757,1.68478 2.39379,1.79903 3.28373,2.50417 36.16105,13.80512 73.29999,25.17363 108.73919,40.76364 4.37898,1.7244 8.22531,4.54455 12.3858,6.61048 3.43496,-0.59925 7.01617,-1.01929 10.54743,-0.44643 10.25366,1.46174 19.74297,6.84999 27.44166,13.72325 2.55669,3.79836 7.42196,2.52541 11.32128,3.381 5.15342,0.60581 10.36161,1.55668 15.09885,3.74662 2.45544,-0.49982 4.34033,-2.78702 6.99526,-2.88073 19.30535,-4.35625 38.7114,-8.28197 57.89393,-13.17324 2.31286,-0.92737 5.04717,-0.41634 7.2471,-1.39245 1.64306,-3.4125 1.91053,-7.78732 0.63674,-11.37348 -6.46128,-7.55328 -15.72008,-12.02204 -24.28806,-16.75246 -26.85693,-13.63716 -55.47,-23.30326 -83.36031,-34.54 -2.00017,-0.67072 -3.98468,-1.60387 -6.08537,-1.89006 z m 1.26844,7.86577 c 6.78932,-0.003 14.23723,1.00696 19.83045,5.21044 1.03629,1.66714 1.86732,3.61492 3.90453,4.37628 0.72493,0.26623 2.21671,1.3587 0.52943,1.53975 -18.00981,2.74504 -36.12965,5.11004 -54.29403,6.61757 -9.98884,-1.08231 -19.69241,-4.49978 -28.99606,-8.25551 -1.05238,-0.37052 -3.27671,-1.76193 -1.16618,-2.51867 9.06984,-3.08849 18.83431,-3.41056 28.27885,-4.63346 10.61067,-0.95527 21.26994,-2.12229 31.91301,-2.3364 z m -42.11478,35.15401 c 13.44692,5.16316 26.98601,10.3031 39.8907,16.71856 -13.43798,-6.42796 -27.30392,-11.91064 -41.21582,-17.21662 0.4417,0.16602 0.88342,0.33204 1.32512,0.49806 z"
       style="opacity:0.996;fill:#0b1e6b;fill-opacity:1;stroke:none;stroke-width:1.32292;stroke-linecap:square;stroke-miterlimit:4;stroke-dasharray:none" />
    <path
       id="path1057"
       d="m 388.27825,280.52296 c -1.58981,1.04035 0.78224,3.31511 1.05687,4.73971 2.77723,5.66759 3.8018,12.72305 0.25612,18.31398 -0.29546,1.97316 2.80128,1.06552 3.98248,1.26541 4.32861,-0.39843 9.02753,-0.0776 13.07013,-1.75436 1.60694,-5.45631 2.10447,-11.25097 4.00679,-16.66491 0.35896,-2.54048 -3.47847,-2.64458 -5.13553,-3.368 -5.64547,-1.3541 -11.44122,-2.2134 -17.23686,-2.53183 z"
       style="opacity:0.996;fill:#0b1e6b;fill-opacity:1;stroke:none;stroke-width:1.32292;stroke-linecap:square;stroke-miterlimit:4;stroke-dasharray:none" />
    <path
       id="path1059"
       d="m 371.58095,200.23036 c -1.95871,1.0802 0.73689,3.17459 1.96696,3.58364 30.12464,12.47316 61.33761,22.56524 90.20326,37.90045 6.42337,3.22466 12.15681,7.57909 17.9637,11.73386 2.03023,-0.11072 0.58528,-3.11323 0.5507,-4.25885 -1.02179,-3.12797 -0.83314,-6.46691 -0.77073,-9.55089 -32.95716,-17.35654 -68.98674,-27.88806 -104.6589,-38.14786 -1.74524,-0.42322 -3.47104,-1.0323 -5.25499,-1.26035 z"
       style="opacity:0.996;fill:#0b1e6b;fill-opacity:1;stroke:none;stroke-width:1.32292;stroke-linecap:square;stroke-miterlimit:4;stroke-dasharray:none" />
    <path
       id="path1072"
       d="m 495.09411,302.7508 c -0.752,0.66677 -0.3183,1.9004 -0.47885,2.7956 -0.0148,1.29415 -0.004,2.58846 -0.007,3.88267 -3.68297,2.03269 -7.45559,3.89412 -11.24056,5.72693 -0.71797,1.01733 -0.60986,2.44881 -0.99393,3.62318 -0.80026,3.79811 -1.9091,8.12758 -5.46494,10.27881 -3.86382,1.99416 -8.13599,3.09806 -12.20878,4.61898 -16.66481,5.71686 -33.42484,11.22338 -50.44987,15.75153 -1.52366,0.18142 -1.52186,1.98032 -1.91389,3.11561 -0.38352,1.74614 -1.20505,4.12499 0.42341,5.49716 1.43034,0.90504 3.28446,0.4158 4.83825,0.14531 14.59061,-4.41386 29.2263,-8.71952 43.59256,-13.83079 9.43655,-3.40871 18.73779,-7.26081 27.63661,-11.90416 1.83864,-1.16289 3.26326,-3.0742 3.50938,-5.27579 1.61152,-7.12733 3.27757,-14.25178 4.61142,-21.43505 -0.0641,-1.11402 -0.32838,-2.73069 -1.5988,-3.03329 l -0.18066,0.0307 z"
       style="opacity:0.996;fill:#0b1e6b;fill-opacity:1;stroke:none;stroke-width:1.32292;stroke-linecap:square;stroke-miterlimit:4;stroke-dasharray:none" />
    <path
       id="path1074"
       d="m 484.68117,263.38 c -0.55452,0.17068 -0.50512,0.87705 -0.69131,1.32067 -0.3288,1.25454 -0.6985,2.50249 -0.94953,3.77487 0.0976,0.57352 0.64201,0.94205 0.8673,1.47186 0.95245,1.83644 1.23682,3.90844 1.47135,5.92831 0.21926,2.14185 0.23064,4.31411 0.3039,6.46805 0.0138,0.50753 0.64333,0.67142 1.00639,0.39068 1.34631,-0.62954 2.70714,-1.24477 4.02945,-1.91493 0.44894,-0.28291 0.17357,-0.83144 -0.14793,-1.09513 -1.11268,-1.37794 -1.50111,-3.1835 -2.0061,-4.81779 -1.03886,-3.68429 -1.77966,-7.48648 -3.15261,-11.08117 -0.11229,-0.29288 -0.40323,-0.52799 -0.73091,-0.44542 z"
       style="opacity:0.996;fill:#0b1e6b;fill-opacity:1;stroke:none;stroke-width:1.32292;stroke-linecap:square;stroke-miterlimit:4;stroke-dasharray:none" />
    <path
       id="path1076"
       d="m 484.81012,282.57248 c -0.34845,0.0231 -0.51937,0.36092 -0.58025,0.66351 -0.25075,0.91652 -0.9923,1.60376 -1.77147,2.09478 -1.07362,0.60896 -2.21834,1.03721 -3.34864,1.52061 -5.25466,2.148 -10.6575,3.93082 -16.08469,5.60665 -2.55574,0.79242 -5.1291,1.52623 -7.69588,2.28127 -0.29226,0.0777 -0.65119,0.20278 -0.69554,0.54997 -0.0815,0.40217 0.3623,0.75488 0.74023,0.61318 8.6596,-2.3525 17.20249,-5.13788 25.57841,-8.3584 1.36371,-0.5405 2.77466,-1.13729 3.79629,-2.22807 0.44937,-0.4839 0.76346,-1.13643 0.68104,-1.80981 -0.0109,-0.33273 -0.029,-0.78411 -0.41257,-0.90091 -0.0689,-0.009 -0.13726,-0.0362 -0.20693,-0.0328 z"
       style="opacity:0.996;fill:#0b1e6b;fill-opacity:1;stroke:none;stroke-width:1.32292;stroke-linecap:square;stroke-miterlimit:4;stroke-dasharray:none" />
    <path
       id="path1078"
       d="m 340.51844,334.46274 c -0.33586,0.1417 -0.78348,0.14084 -0.9915,0.48168 -0.0795,0.26921 -0.0982,0.58968 0.022,0.84576 0.2023,0.33584 0.65238,0.30113 0.98362,0.42278 1.63451,0.41109 3.29229,0.73816 4.96387,0.95428 0.31075,0.0635 0.67403,-0.0987 0.73396,-0.43249 0.0713,-0.33235 -0.21548,-0.6102 -0.52478,-0.6661 -1.62922,-0.54244 -3.26017,-1.08522 -4.89476,-1.60793 -0.0994,-0.0131 -0.19463,-0.0317 -0.29248,0.002 z"
       style="opacity:0.996;fill:#0b1e6b;fill-opacity:1;stroke:none;stroke-width:1.32292;stroke-linecap:square;stroke-miterlimit:4;stroke-dasharray:none" />
    <path
       id="path1080"
       d="m 342.49879,336.97512 c -0.24982,0.0542 -0.43764,0.30452 -0.41068,0.56013 0.004,0.0972 0.0507,0.1862 0.0507,0.28427 0.0338,0.25353 0.25849,0.46154 0.51416,0.47376 2.38255,0.23763 4.76544,0.47194 7.1478,0.70857 0.27273,0.0295 0.54922,-0.16376 0.60052,-0.43588 0.0568,-0.1891 0.0455,-0.40666 -0.0809,-0.56603 -0.11583,-0.15251 -0.30999,-0.2169 -0.49617,-0.21306 -1.47712,-0.0592 -2.93177,-0.17425 -4.39976,-0.37034 -0.63161,-0.084 -1.24799,-0.17958 -1.87793,-0.29105 -0.28311,-0.0471 -0.58248,-0.11294 -0.87392,-0.15762 -0.0584,-0.01 -0.11578,-2.6e-4 -0.17381,0.007 z"
       style="opacity:0.996;fill:#0b1e6b;fill-opacity:1;stroke:none;stroke-width:1.32292;stroke-linecap:square;stroke-miterlimit:4;stroke-dasharray:none" />
    <path
       id="path1082"
       d="m 346.82015,348.45708 c -0.32594,0.14367 -0.43706,0.52136 -0.58314,0.81434 -0.15618,0.36338 0.19738,0.75904 0.57433,0.71186 0.46152,-0.009 0.92745,0.0551 1.38621,0.005 0.24778,-0.0512 0.39277,-0.28247 0.43929,-0.51249 0.17147,-0.23688 0.24003,-0.59612 0.01,-0.81711 -0.26789,-0.25721 -0.67035,-0.1625 -1.00637,-0.20757 -0.27334,-7.9e-4 -0.55012,-0.0551 -0.81976,0.006 z m 1.78607,0.86137 c 0.009,0.055 -0.0161,-0.0694 0,0 z"
       style="opacity:0.996;fill:#0b1e6b;fill-opacity:1;stroke:none;stroke-width:1.32292;stroke-linecap:square;stroke-miterlimit:4;stroke-dasharray:none" />
    <path
       id="path1084"
       d="m 343.28701,345.91102 c -0.32742,0.1412 -0.64965,0.50798 -0.47572,0.88123 0.15627,0.32364 0.54523,0.41961 0.83474,0.58953 0.65619,0.30105 1.354,0.54445 2.07428,0.62136 0.36735,0.0448 0.70392,-0.33568 0.56986,-0.6915 -0.13063,-0.36639 -0.57227,-0.42978 -0.87564,-0.60368 -0.60468,-0.26506 -1.19459,-0.57443 -1.81049,-0.80711 -0.10626,-0.0457 -0.2091,-0.005 -0.31703,0.0102 z"
       style="opacity:0.996;fill:#0b1e6b;fill-opacity:1;stroke:none;stroke-width:1.32292;stroke-linecap:square;stroke-miterlimit:4;stroke-dasharray:none" />
    <path
       id="path1086"
       d="m 360.95465,360.78757 c -0.3692,-2e-4 -0.63855,0.4246 -0.483,0.75945 0.13671,0.29881 0.47583,0.40721 0.73353,0.57623 0.27794,0.14281 0.54528,0.32379 0.84611,0.41152 0.35692,0.086 0.70961,-0.26915 0.63259,-0.62528 -0.0143,-0.0681 -0.0569,-0.13618 0.0185,-0.18605 0.2099,-0.25747 0.0983,-0.68614 -0.21283,-0.80491 -0.30617,-0.10468 -0.6419,-0.0724 -0.96104,-0.10726 -0.19119,-0.009 -0.38246,-0.0239 -0.57396,-0.0237 z"
       style="opacity:0.996;fill:#0b1e6b;fill-opacity:1;stroke:none;stroke-width:1.32292;stroke-linecap:square;stroke-miterlimit:4;stroke-dasharray:none" />
    <path
       id="path1088"
       d="m 286.62549,354.43222 c -0.54994,0.60317 0.005,1.49403 0.018,2.20532 0.53475,2.74073 1.11236,5.49464 1.73553,8.20417 0.54235,0.62529 1.59526,0.48781 2.34776,0.79044 20.15815,4.80944 40.61753,9.15747 61.42027,9.50981 4.1856,0.0346 8.37975,-0.13896 12.54686,-0.53104 0.69066,0.10078 1.06994,-0.93967 0.32419,-1.14419 -1.62803,-0.26964 -3.47342,-0.20609 -4.77716,-1.42359 -0.61306,-0.62363 -1.2578,-1.49807 -1.13961,-2.40755 0.66688,-1.24214 2.28939,-0.70999 3.39532,-1.09204 0.61325,-0.36053 0.0892,-1.17809 -0.51374,-1.04828 -5.64425,-0.21537 -11.29938,-0.22572 -16.91442,-0.78949 -5.49886,-0.54531 -11.00439,-1.15557 -16.37694,-2.51106 -13.91552,-3.20141 -27.78043,-6.64343 -41.69767,-9.84576 -0.12282,0.0277 -0.24567,0.0555 -0.36849,0.0833 z"
       style="opacity:0.996;fill:#0b1e6b;fill-opacity:1;stroke:none;stroke-width:1.32291;stroke-linecap:square;stroke-miterlimit:4;stroke-dasharray:none" />
    <path
       id="path1090"
       d="m 379.54409,369.64493 c -0.21971,0.0642 -0.41395,0.19537 -0.63376,0.26236 -0.6753,0.25667 -1.38544,0.40367 -2.09931,0.50294 -2.56119,0.39611 -5.11188,0.83326 -7.68295,1.12393 -1.83501,0.20336 -3.66551,0.30419 -5.51288,0.27395 -0.43064,0 -0.86024,-0.0397 -1.29032,-0.0486 -0.32118,0.003 -0.58748,0.33097 -0.5144,0.64543 0.0447,0.26363 0.2926,0.43394 0.5444,0.4695 0.81241,0.17844 1.6473,0.24157 2.47801,0.22815 1.44844,0.003 2.88809,-0.17978 4.32694,-0.32369 3.14664,-0.33676 6.2723,-0.85468 9.36824,-1.5082 0.47646,-0.10512 0.9593,-0.18717 1.42941,-0.31785 0.283,-0.10017 0.4263,-0.45371 0.29893,-0.72432 -0.0494,-0.0908 -0.0973,-0.17735 -0.12259,-0.27811 -0.10091,-0.22275 -0.34935,-0.3511 -0.58972,-0.30548 z"
       style="opacity:0.996;fill:#0b1e6b;fill-opacity:1;stroke:none;stroke-width:1.32292;stroke-linecap:square;stroke-miterlimit:4;stroke-dasharray:none" />
    <path
       id="path1092"
       d="m 366.13294,367.35282 c -1.09159,0.0222 -2.17784,0.053 -3.26941,0.075 -0.23891,-0.0177 -0.50225,0.0905 -0.59401,0.32494 -0.096,0.21767 -0.0422,0.4931 0.10623,0.67378 0.1461,0.16968 0.38227,0.19328 0.59124,0.16489 1.09847,-0.0521 2.198,-0.0901 3.29501,-0.16743 0.32425,-0.0336 0.56425,-0.3979 0.44577,-0.70625 -0.0727,-0.24117 -0.3293,-0.3874 -0.57483,-0.36496 z"
       style="opacity:0.996;fill:#0b1e6b;fill-opacity:1;stroke:none;stroke-width:1.32292;stroke-linecap:square;stroke-miterlimit:4;stroke-dasharray:none" />
    <path
       id="path1094"
       d="m 366.94778,373.26091 c -0.45363,0.0421 -0.9034,0.0637 -1.36092,0.0876 -0.18814,0.006 -0.39978,0.014 -0.53739,0.16171 -0.17941,0.16573 -0.2014,0.44622 -0.12118,0.66609 0.0909,0.23881 0.36005,0.38092 0.60949,0.33626 0.51531,-0.0577 1.03156,-0.11092 1.54485,-0.18381 0.25985,-0.0473 0.46194,-0.30057 0.43974,-0.56539 -0.0116,-0.27175 -0.25728,-0.50025 -0.52779,-0.50257 -0.0156,0 -0.0312,1.8e-4 -0.0468,1.3e-4 z"
       style="opacity:0.996;fill:#0b1e6b;fill-opacity:1;stroke:none;stroke-width:1.32292;stroke-linecap:square;stroke-miterlimit:4;stroke-dasharray:none" />
    <path
       id="path1096"
       d="m 388.87136,369.0021 c -0.34438,0.0391 -0.67336,0.1616 -1.00952,0.24188 -2.03702,0.55099 -4.08506,1.08246 -6.13484,1.57649 -0.2159,0.0461 -0.44624,0.14909 -0.52808,0.37079 -0.11999,0.27178 0.036,0.62142 0.3193,0.71305 0.24236,0.0854 0.493,-0.0299 0.73507,-0.0624 2.26835,-0.46361 4.52985,-0.96221 6.77886,-1.5122 0.26964,-0.0478 0.50559,-0.28192 0.49821,-0.56528 -0.0175,-0.22704 -0.0999,-0.46445 -0.26638,-0.62551 -0.10835,-0.0927 -0.25003,-0.14245 -0.39262,-0.13686 z"
       style="opacity:0.996;fill:#0b1e6b;fill-opacity:1;stroke:none;stroke-width:1.32292;stroke-linecap:square;stroke-miterlimit:4;stroke-dasharray:none" />
    <path
       id="path1098"
       d="m 505.09128,287.22932 c -0.23053,0.0347 -0.38306,0.22975 -0.47408,0.42947 -0.26786,0.54505 -0.61939,1.04229 -0.98427,1.52561 -0.1633,0.24329 -0.0813,0.60738 0.1779,0.7479 0.16632,0.10622 0.36751,0.0655 0.55293,0.0683 0.19637,0.18184 0.52588,0.2161 0.73152,0.0325 0.19809,-0.16649 0.23492,-0.43984 0.32266,-0.66963 0.15269,-0.49439 0.26773,-1.00463 0.30395,-1.52154 0.0266,-0.29107 -0.18706,-0.58954 -0.48662,-0.61553 -0.0474,-0.004 -0.0963,0.003 -0.14399,0.003 z"
       style="opacity:0.996;fill:#0b1e6b;fill-opacity:1;stroke:none;stroke-width:1.32292;stroke-linecap:square;stroke-miterlimit:4;stroke-dasharray:none" />
    <path
       id="path1100"
       d="m 415.74856,303.5375 c -0.28335,0.0358 -0.56465,0.0883 -0.84709,0.13129 -0.99412,0.15915 -1.98694,0.32621 -2.98135,0.48357 -0.27679,0.0435 -0.5623,0.0874 -0.84188,0.12801 -0.34981,0.0508 -0.71395,0.10041 -1.06723,0.13789 -0.27249,0.029 -0.54326,0.0508 -0.82002,0.0622 -0.19341,0.0111 -0.40743,-0.0103 -0.57269,0.11175 -0.21714,0.14048 -0.29689,0.45136 -0.17314,0.67872 0.0882,0.18495 0.28929,0.29461 0.49035,0.30035 0.63264,0.0663 1.27037,0.01 1.89923,-0.0682 0.73329,-0.0957 1.45772,-0.2465 2.18557,-0.37535 0.92011,-0.17007 1.8411,-0.33562 2.76029,-0.51059 0.15719,-0.0253 0.31779,-0.087 0.4151,-0.21944 0.15984,-0.19524 0.14708,-0.50428 -0.0276,-0.68635 -0.1048,-0.11726 -0.26347,-0.17847 -0.41957,-0.17381 z"
       style="opacity:0.996;fill:#0b1e6b;fill-opacity:1;stroke:none;stroke-width:1.32291;stroke-linecap:square;stroke-miterlimit:4;stroke-dasharray:none" />
    <path
       id="path1102"
       d="m 483.45665,270.45708 c -0.29996,0.0335 -0.52041,0.34486 -0.46006,0.63888 0.0767,0.32799 0.20032,0.64374 0.27691,0.9723 0.20678,0.79469 0.36042,1.62934 0.48364,2.44357 0.13099,0.87258 0.22756,1.72078 0.30644,2.59471 0.10141,1.16249 0.17235,2.32226 0.21899,3.49167 0.007,0.30632 0.29784,0.57016 0.60479,0.53155 0.28278,-0.0194 0.49654,-0.28986 0.48998,-0.56676 0.01,-0.7537 -0.0336,-1.50721 -0.0641,-2.26014 -0.10801,-2.10735 -0.2843,-4.22997 -0.84977,-6.27088 -0.13366,-0.43168 -0.25958,-0.86947 -0.45058,-1.27993 -0.10576,-0.20051 -0.33102,-0.32023 -0.55626,-0.29497 z"
       style="opacity:0.996;fill:#0b1e6b;fill-opacity:1;stroke:none;stroke-width:1.32292;stroke-linecap:square;stroke-miterlimit:4;stroke-dasharray:none" />
    <path
       id="path1104"
       d="m 480.72229,267.98616 c -0.25678,-0.0122 -0.51483,0.16802 -0.56338,0.42551 -0.0648,0.26125 0.10729,0.54264 0.35954,0.62523 0.26736,0.0843 0.54361,0.14086 0.80465,0.24565 0.19801,0.0721 0.39645,0.20412 0.61632,0.14851 0.34414,-0.0696 0.56327,-0.49102 0.40558,-0.80945 -0.0997,-0.21401 -0.3324,-0.2998 -0.53123,-0.39507 -0.34319,-0.14504 -0.71853,-0.23208 -1.09148,-0.24038 z"
       style="opacity:0.996;fill:#0b1e6b;fill-opacity:1;stroke:none;stroke-width:1.32292;stroke-linecap:square;stroke-miterlimit:4;stroke-dasharray:none" />
    <path
       id="path1106"
       d="m 482.41498,252.67912 c -0.21,-0.001 -0.36822,0.15008 -0.54287,0.24265 -0.24413,0.17177 -0.28956,0.54977 -0.0918,0.77333 0.16275,0.15961 0.3225,0.33548 0.52867,0.43937 0.26797,0.11663 0.61523,-0.0289 0.70395,-0.31083 0.0816,-0.22347 -0.008,-0.46179 -0.0447,-0.68606 -0.0476,-0.26292 -0.28366,-0.46523 -0.55327,-0.45846 z"
       style="opacity:0.996;fill:#0b1e6b;fill-opacity:1;stroke:none;stroke-width:1.32292;stroke-linecap:square;stroke-miterlimit:4;stroke-dasharray:none" />
    <path
       id="path1108"
       d="m 106.08733,193.16832 c -1.88006,0.34067 -2.39183,2.65496 -3.19712,4.091 -2.4324,5.57768 -2.916431,11.71187 -2.968067,17.72455 -0.346184,9.65405 0.141357,19.31496 0.450087,28.94073 -0.14949,9.04314 -0.468748,18.31333 2.40073,27.02321 1.02339,3.99503 2.92416,7.74454 3.4607,11.82665 1.04767,1.10764 2.90624,1.16308 4.2492,1.86573 27.45887,9.81336 55.01593,19.36102 82.57266,28.88942 1.36984,-0.15746 0.26005,-1.87766 0.1612,-2.65113 -1.44565,-4.47427 -2.71435,-9.03467 -2.8958,-13.76276 -2.01388,-22.30255 -1.15933,-44.80525 0.51145,-67.11518 0.94276,-4.3026 2.28878,-8.54838 2.85514,-12.91855 -0.74306,-1.06301 -2.47225,-0.85865 -3.6036,-1.3899 -8.69151,-2.25702 -17.31371,-4.85186 -26.12854,-6.58962 -6.8842,-0.82359 -14.03247,-1.71188 -20.13992,-5.2554 -2.85872,-1.59663 -6.22483,-2.0389 -9.3157,-3.05499 -9.4661,-2.55615 -18.93347,-5.15032 -28.41242,-7.62376 z"
       style="opacity:0.996;fill:#0b1e6b;fill-opacity:1;stroke:none;stroke-width:1.32292;stroke-linecap:square;stroke-miterlimit:4;stroke-dasharray:none" />
    <path
       id="path1110"
       d="m 48.97299,178.26245 c -2.976586,3.76147 -5.303001,8.12313 -6.542328,12.76163 -0.374701,2.60429 -0.167669,5.40154 -1.718826,7.68655 -1.193827,2.62706 -2.513764,5.4064 -1.966534,8.37434 0.109302,4.00907 0.845325,8.13759 3.280423,11.43448 6.519955,9.85192 11.447994,20.71432 14.22401,32.21413 1.82675,6.63689 5.283049,12.76253 9.640202,18.03832 13.180449,4.72135 26.31249,9.62764 39.531293,14.21163 1.24661,-0.53013 0.18838,-2.2176 0.0648,-3.1796 -2.30087,-7.15384 -4.97464,-14.31031 -5.19834,-21.89112 -0.433598,-6.75639 0.26843,-13.57099 -0.22888,-20.3515 -0.370588,-10.98974 -1.229169,-22.1317 0.573,-33.01093 0.61302,-3.94625 2.10906,-7.71922 4.06287,-11.20509 -0.18683,-1.24863 -2.13303,-0.89653 -3.04826,-1.42039 -17.410089,-4.59498 -34.773066,-9.38064 -52.208769,-13.87144 l -0.236349,0.1063 z"
       style="opacity:0.996;fill:#0b1e6b;fill-opacity:1;stroke:none;stroke-width:1.32292;stroke-linecap:square;stroke-miterlimit:4;stroke-dasharray:none" />
    <path
       id="path1112"
       d="m 62.317459,267.86118 c -1.73714,0.71776 -2.882995,2.68356 -3.15038,4.50373 0.03577,3.00609 0.488473,6.00707 0.95886,8.97222 0.491747,1.67621 2.702687,1.71454 4.032713,2.38642 9.473393,2.93937 19.099747,5.4004 28.423005,8.80882 27.417553,9.7605 54.266323,21.04144 81.616383,30.99929 7.1353,2.90795 14.66616,5.25448 20.90914,9.921 1.36276,0.72039 2.77446,2.04043 4.3937,1.87118 1.55346,-1.04576 0.86365,-3.30655 0.80885,-4.88612 -0.13273,-2.67677 -1.4586,-5.42957 -0.52286,-8.05066 0.47711,-1.06337 2.56814,-1.84368 1.66266,-3.16332 -2.31262,-1.67299 -5.28536,-2.19608 -7.66786,-3.80213 -16.75697,-6.55564 -33.75331,-12.488 -50.65394,-18.66245 -26.35202,-9.43121 -52.652842,-19.00522 -79.024971,-28.37954 -0.593958,-0.15534 -1.166056,-0.49426 -1.7853,-0.51844 z"
       style="opacity:0.996;fill:#0b1e6b;fill-opacity:1;stroke:none;stroke-width:1.32292;stroke-linecap:square;stroke-miterlimit:4;stroke-dasharray:none" />
    <path
       id="path1114"
       d="m 107.23912,126.17161 c -6.32457,-0.18025 -12.342417,2.31204 -18.076727,4.69548 -16.930361,7.41184 -30.465696,20.35104 -43.979861,32.59045 -1.60528,1.3139 -3.080901,3.01774 -4.843613,3.99481 -6.590133,0.12407 -13.215604,-0.3307 -19.783542,0.32846 -2.051039,0.19094 -3.919057,1.32962 -4.810178,3.22556 -3.842781,6.0085 -6.0176864,12.92243 -6.8997316,19.96986 -0.6552401,4.94462 -1.2862258,9.91038 -1.8503016,14.85642 0.7259291,2.33318 3.2004022,3.53741 5.0274702,4.93115 3.311168,2.1072 6.77228,4.12737 10.308337,5.74141 2.379413,-1.09384 5.040045,-2.30718 7.763412,-1.66828 6.529943,1.44502 11.029611,6.92571 14.710645,12.12139 0.697185,0.66114 1.238102,2.34363 2.424829,1.97505 0.853268,-1.01241 -0.66685,-2.1834 -0.970605,-3.15916 -1.875036,-3.64732 -4.568793,-6.83143 -6.206437,-10.59623 -1.36843,-3.72387 -1.612254,-7.81387 -1.365742,-11.73742 0.917138,-3.55683 3.432704,-6.6405 3.385127,-10.46813 0.216217,-4.5436 2.746044,-8.50129 4.970348,-12.3245 0.785567,-1.28305 1.726203,-2.50823 3.008323,-3.27971 1.098283,-1.96443 1.850705,-4.1686 3.193458,-5.99189 7.468877,-11.37437 17.539882,-20.74083 27.676286,-29.72236 4.28421,-3.97096 9.866937,-6.27603 15.414482,-7.7541 6.396221,-1.70497 13.062181,-0.65909 19.581541,-0.69873 9.70585,0.0127 19.2996,1.49086 28.71896,3.81589 4.75037,1.27017 9.72364,2.1782 14.20536,4.31334 5.45938,2.97604 8.10388,8.94801 11.19535,14.02595 9.51806,16.88851 17.85196,34.47191 24.46031,52.6993 0.71161,1.40975 2.72306,1.42288 4.06604,1.90301 1.98349,0.34647 4.14459,0.8969 6.11791,0.32995 0.74071,-1.04226 -0.75144,-2.21887 -0.97875,-3.271 -10.27391,-20.49393 -21.27994,-40.61729 -31.41786,-61.17796 -0.9341,-1.90135 0.22379,-4.07708 -0.57993,-5.95228 -3.79012,-4.94644 -10.08883,-6.91264 -15.84046,-8.57231 -14.45104,-3.67426 -29.44043,-4.38655 -44.27386,-5.04729 -1.44983,-0.0463 -2.90011,-0.0794 -4.35059,-0.0961 z"
       style="opacity:0.996;fill:#0b1e6b;fill-opacity:1;stroke:none;stroke-width:1.32292;stroke-linecap:square;stroke-miterlimit:4;stroke-dasharray:none" />
    <path
       id="path1116"
       d="m 7.4063098,207.66395 c -1.272145,0.30293 -0.6064687,2.29129 -1.934016,2.67043 -1.4157122,0.6279 -3.023176,1.55225 -3.0191339,3.32765 -0.1790672,5.24603 0.015384,10.56773 1.0413023,15.72882 0.9648433,3.77814 2.9289367,7.27733 3.2536497,11.22635 0.4426882,2.31385 -0.1074782,5.03385 1.7292884,6.85959 2.3529287,2.87952 4.5916057,5.92349 7.3299927,8.4419 1.26601,0.47463 0.940277,-1.22281 0.720588,-1.85579 -1.739504,-10.56361 -2.333703,-21.91533 2.350282,-31.80805 0.740377,-1.8945 2.379425,-3.35637 2.953118,-5.29271 -0.658315,-1.17704 -2.35583,-1.45905 -3.410289,-2.26777 -3.742056,-2.01336 -7.430477,-4.20919 -10.6602966,-6.96915 -0.1120725,-0.0454 -0.23358,-0.067 -0.3544856,-0.0613 z"
       style="opacity:0.996;fill:#0b1e6b;fill-opacity:1;stroke:none;stroke-width:1.32292;stroke-linecap:square;stroke-miterlimit:4;stroke-dasharray:none" />
    <path
       id="path1118"
       d="m 47.159607,228.38413 c -0.317942,0.0626 -0.789382,0.10082 -0.835795,0.51622 -0.06752,0.41156 0.302729,0.72606 0.451178,1.08183 1.309966,2.22394 2.480141,4.52715 3.563612,6.86871 0.130474,0.35631 0.539912,0.64182 0.905987,0.41962 0.375279,-0.23109 0.272176,-0.71075 0.09326,-1.03228 -1.03106,-2.43706 -2.120521,-4.85376 -3.360303,-7.19247 -0.17462,-0.3118 -0.387236,-0.73144 -0.817936,-0.66163 z"
       style="opacity:0.996;fill:#0b1e6b;fill-opacity:1;stroke:none;stroke-width:1.32292;stroke-linecap:square;stroke-miterlimit:4;stroke-dasharray:none" />
    <path
       id="path1120"
       d="m 54.146293,245.50838 c -0.264764,0.0323 -0.47488,0.28252 -0.464172,0.54853 0.01291,0.21396 0.09501,0.40949 0.139922,0.61723 0.309671,1.19226 0.577837,2.40148 0.794607,3.61781 0.02823,0.18332 0.07305,0.38291 0.230378,0.50046 0.132406,0.0987 0.292455,0.16014 0.452258,0.19708 0.280956,0.0618 0.581729,-0.15315 0.616778,-0.43832 0.0291,-0.19524 -0.05186,-0.38512 -0.08713,-0.57466 -0.330779,-1.34982 -0.679018,-2.69588 -1.071975,-4.02906 -0.0525,-0.22865 -0.248325,-0.41951 -0.48582,-0.44102 -0.04138,-0.004 -0.08333,0.002 -0.124851,0.002 z"
       style="opacity:0.996;fill:#0b1e6b;fill-opacity:1;stroke:none;stroke-width:1.32292;stroke-linecap:square;stroke-miterlimit:4;stroke-dasharray:none" />
    <path
       id="path1122"
       d="m 51.179416,236.76873 c -0.260223,0.01 -0.528727,0.18528 -0.573463,0.45419 -0.05138,0.22105 0.08527,0.41994 0.159203,0.61831 0.308057,0.72538 0.611986,1.45917 0.894622,2.19255 0.06535,0.22148 0.263927,0.40475 0.500282,0.41396 0.275246,0.0262 0.541557,-0.19328 0.572233,-0.46751 0.02695,-0.21443 -0.09307,-0.40679 -0.155382,-0.60437 -0.292341,-0.7718 -0.586811,-1.54336 -0.902417,-2.3058 -0.08934,-0.18786 -0.287634,-0.30654 -0.495078,-0.30133 z"
       style="opacity:0.996;fill:#0b1e6b;fill-opacity:1;stroke:none;stroke-width:1.32292;stroke-linecap:square;stroke-miterlimit:4;stroke-dasharray:none" />
    <path
       id="path1124"
       d="m 52.347623,239.8853 c -0.173024,0.0124 -0.33719,0.11304 -0.423722,0.26385 -0.08254,0.13729 -0.09379,0.31098 -0.03851,0.46041 0.08084,0.22615 0.166306,0.45047 0.24933,0.67571 0.06473,0.1732 0.224589,0.30584 0.407003,0.33667 0.192394,0.0359 0.400309,-0.045 0.517443,-0.20183 0.111969,-0.14405 0.139266,-0.34619 0.07335,-0.51585 -0.08151,-0.22861 -0.16124,-0.45794 -0.246632,-0.68512 -0.07673,-0.18403 -0.259424,-0.32087 -0.459679,-0.333 -0.02606,-0.003 -0.05238,-5.3e-4 -0.07858,-7.9e-4 z"
       style="opacity:0.996;fill:#0b1e6b;fill-opacity:1;stroke:none;stroke-width:1.32291;stroke-linecap:square;stroke-miterlimit:4;stroke-dasharray:none" />
    <path
       id="path1126"
       d="m 53.802501,244.11174 c -0.1689,0.002 -0.333984,0.0898 -0.428607,0.22991 -0.08954,0.12787 -0.115059,0.29524 -0.07522,0.44543 0.03429,0.12375 0.07237,0.24645 0.107561,0.36996 0.0488,0.1676 0.09821,0.33989 0.146224,0.50958 0.04286,0.15897 0.163934,0.29399 0.317675,0.35315 0.201565,0.0806 0.44782,0.0224 0.594961,-0.13629 0.116977,-0.12281 0.167259,-0.30374 0.132379,-0.46952 -0.02466,-0.1087 -0.06174,-0.21411 -0.09243,-0.32119 -0.0635,-0.20816 -0.124474,-0.41715 -0.191757,-0.62413 -0.05714,-0.16527 -0.200353,-0.29725 -0.370031,-0.3399 -0.0459,-0.0119 -0.09336,-0.0174 -0.140763,-0.017 z"
       style="opacity:0.996;fill:#0b1e6b;fill-opacity:1;stroke:none;stroke-width:1.32292;stroke-linecap:square;stroke-miterlimit:4;stroke-dasharray:none" />
    <path
       id="path1128"
       d="m 50.930158,155.74016 c -10.61448,0.29384 -21.249582,0.60136 -31.833262,1.41691 -1.334367,1.12699 0.779181,2.51417 1.376519,3.50971 0.41853,1.31756 1.580089,1.90195 2.934481,1.99785 6.006229,1.07889 12.002992,2.53667 18.07846,3.05303 3.136016,-1.17792 5.228585,-4.15706 7.81449,-6.18296 0.93853,-1.11246 2.524418,-1.90269 3.000372,-3.30313 -0.252214,-0.63661 -0.83725,-0.46678 -1.37106,-0.49141 z"
       style="opacity:0.996;fill:#0b1e6b;fill-opacity:1;stroke:none;stroke-width:1.32292;stroke-linecap:square;stroke-miterlimit:4;stroke-dasharray:none" />
    <path
       id="path1130"
       d="m 37.356022,165.41679 c -0.375107,0.0189 -0.6189,0.45531 -0.444764,0.78592 0.240834,0.60653 0.883208,0.92101 1.499602,0.99379 0.663877,0.0834 1.341348,0.11613 2.007587,0.0484 0.292476,-0.0886 0.571958,-0.31542 0.670941,-0.61095 0.08335,-0.3477 -0.22135,-0.66005 -0.559276,-0.67361 -1.042908,-0.18728 -2.084544,-0.39125 -3.132778,-0.54311 -0.01371,0.003 -0.02756,-0.002 -0.04131,-5.3e-4 z"
       style="opacity:0.996;fill:#0b1e6b;fill-opacity:1;stroke:none;stroke-width:1.32292;stroke-linecap:square;stroke-miterlimit:4;stroke-dasharray:none" />
    <path
       id="path1132"
       d="m 18.693331,157.05951 c -0.159551,0.0246 -0.322702,0.0346 -0.478481,0.0783 -0.235827,0.073 -0.401184,0.32317 -0.366525,0.56897 0.01409,0.1699 0.127269,0.30838 0.252551,0.41464 0.145961,0.12674 0.293358,0.28312 0.49671,0.30328 0.247426,0.036 0.500367,-0.13039 0.572345,-0.36866 0.02696,-0.0896 0.03247,-0.1843 0.07155,-0.27048 0.08006,-0.21546 0.01415,-0.48 -0.173867,-0.61749 -0.104457,-0.0834 -0.241863,-0.11966 -0.374285,-0.10855 z"
       style="opacity:0.996;fill:#0b1e6b;fill-opacity:1;stroke:none;stroke-width:1.32291;stroke-linecap:square;stroke-miterlimit:4;stroke-dasharray:none" />
    <path
       id="path1134"
       d="m 18.849235,159.2424 c -0.135033,0.004 -0.267684,0.0611 -0.362166,0.15776 -0.100586,0.10103 -0.157096,0.24404 -0.152743,0.38654 0.0028,0.12718 0.05402,0.25207 0.140095,0.34558 0.179595,0.19331 0.37449,0.37214 0.579369,0.5383 0.07335,0.0607 0.162127,0.10309 0.256281,0.11849 0.136971,0.0234 0.282459,-0.0102 0.395287,-0.0913 0.114025,-0.0806 0.193445,-0.20802 0.215507,-0.3459 0.0229,-0.13589 -0.01041,-0.28002 -0.09048,-0.39216 -0.04344,-0.0615 -0.100434,-0.11145 -0.153397,-0.1644 -0.11163,-0.10902 -0.226585,-0.21456 -0.343416,-0.31797 -0.05138,-0.0447 -0.101066,-0.0916 -0.155567,-0.13251 -0.09348,-0.0686 -0.209754,-0.10543 -0.325726,-0.10246 -10e-4,1e-5 -0.002,1e-5 -0.003,2e-5 z"
       style="opacity:0.996;fill:#0b1e6b;fill-opacity:1;stroke:none;stroke-width:1.32292;stroke-linecap:square;stroke-miterlimit:4;stroke-dasharray:none" />
    <path
       id="path1136"
       d="m 162.96749,123.89622 c -11.6438,0.007 -23.33925,-0.29226 -34.94024,0.81688 -1.43079,-0.086 -1.65906,1.85558 -0.14173,1.84784 13.1464,1.15045 26.66353,1.90865 39.02026,7.02334 3.03196,1.24526 5.67792,3.21626 8.00879,5.49393 6.44124,-0.34621 12.92809,-1.36671 19.4065,-1.62803 23.75248,-1.33355 47.60376,-0.95553 71.38448,-0.18375 5.21623,0.15852 10.44522,1.08504 15.67325,1.07561 1.07683,-1.17074 -1.29458,-1.7526 -2.07423,-2.13086 -11.84769,-3.97588 -24.35034,-5.47761 -36.6661,-7.29346 -26.39961,-3.65171 -53.04558,-4.75472 -79.67098,-5.0215 z"
       style="opacity:0.996;fill:#0b1e6b;fill-opacity:1;stroke:none;stroke-width:1.32292;stroke-linecap:square;stroke-miterlimit:4;stroke-dasharray:none" />
    <path
       id="path1138"
       d="m 126.94328,124.67573 c -0.83976,0.0306 -1.67895,0.0781 -2.5184,0.1171 -1.66722,0.0835 -3.33445,0.16836 -5.00081,0.26756 -0.19274,0.004 -0.39933,0.0639 -0.51467,0.22911 -0.17494,0.22059 -0.12461,0.57502 0.10497,0.738 0.18883,0.14958 0.44358,0.11405 0.66824,0.1317 2.34741,0.086 4.69049,0.19058 7.03602,0.31871 0.19757,0.0292 0.41891,-0.0134 0.55383,-0.17068 0.14126,-0.14657 0.16501,-0.36699 0.11248,-0.55677 -0.0242,-0.14019 0.062,-0.25884 0.10252,-0.38545 0.082,-0.25982 -0.0667,-0.56869 -0.32811,-0.65384 -0.0674,-0.0292 -0.14331,-0.0354 -0.21607,-0.0354 z"
       style="opacity:0.996;fill:#0b1e6b;fill-opacity:1;stroke:none;stroke-width:1.32292;stroke-linecap:square;stroke-miterlimit:4;stroke-dasharray:none" />
    <path
       id="path1144"
       d="m 237.48925,213.72749 c -0.90781,0.0442 -1.81295,0.0544 -2.71592,0.10209 -0.33702,0.006 -0.6199,0.35993 -0.51145,0.68794 0.0792,0.3287 0.44594,0.41586 0.72919,0.48865 0.71367,0.19152 1.42183,0.40832 2.14041,0.57889 0.34775,0.0604 0.65277,-0.25965 0.64979,-0.59735 0.1044,-0.26797 0.45327,-0.40279 0.44349,-0.72161 0.0275,-0.34017 -0.32109,-0.60774 -0.64575,-0.54386 -0.0299,0.002 -0.0598,0.003 -0.0898,0.005 z"
       style="opacity:0.996;fill:#0b1e6b;fill-opacity:1;stroke:none;stroke-width:1.32292;stroke-linecap:square;stroke-miterlimit:4;stroke-dasharray:none" />
    <path
       id="path1146"
       d="m 221.902,214.11309 c -0.72616,0.005 -1.45339,5.2e-4 -2.17878,0.0282 -0.36177,0.0219 -0.62565,0.43712 -0.46776,0.76922 0.14301,0.33308 0.54344,0.3795 0.83822,0.51195 0.5377,0.19289 1.06879,0.41074 1.61256,0.58296 0.32872,0.0807 0.66729,-0.21302 0.64079,-0.54922 -0.008,-0.13629 -0.091,-0.33643 0.0734,-0.4156 0.25609,-0.22851 0.20882,-0.69793 -0.10527,-0.84964 -0.11975,-0.0849 -0.27367,-0.0754 -0.41318,-0.0778 z"
       style="opacity:0.996;fill:#0b1e6b;fill-opacity:1;stroke:none;stroke-width:1.32292;stroke-linecap:square;stroke-miterlimit:4;stroke-dasharray:none" />
    <path
       id="path1148"
       d="m 152.33553,186.78701 c -3.48477,0.0176 -7.92097,0.21644 -9.83456,3.66387 -1.50442,3.02262 -1.95595,6.62253 -1.35059,9.93385 1.48219,3.63833 5.66799,4.95393 9.09643,6.06158 5.59532,1.45237 11.35692,2.76643 17.16397,2.63311 1.33344,-0.41147 1.5267,-2.49666 3.20775,-2.32365 2.74968,-0.37959 5.66678,0.44546 8.3239,-0.43915 2.08596,-1.37457 1.80346,-4.39435 1.69625,-6.52492 -0.85918,-0.90475 -3.13604,0.38354 -3.74415,-1.02119 -0.43984,-2.60383 -2.20047,-4.80487 -3.49001,-7.05802 -1.26358,-2.30275 -3.68611,-3.67141 -6.27072,-3.87173 -4.89971,-0.62711 -9.86042,-0.95385 -14.79827,-1.05375 z"
       style="opacity:0.996;fill:#0b1e6b;fill-opacity:1;stroke:none;stroke-width:1.32292;stroke-linecap:square;stroke-miterlimit:4;stroke-dasharray:none" />
    <path
       id="path1150"
       d="m 371.10073,210.86044 c -9.59834,-0.0157 -19.10707,1.41912 -28.66784,2.09702 -10.10391,1.00208 -20.31979,1.73691 -30.18274,4.27275 -0.83106,0.26784 -2.71815,0.74303 -2.01684,1.95042 2.88687,1.98223 6.42387,2.81218 9.663,4.07713 5.87,1.91776 11.75401,3.9674 17.84959,5.02522 7.02395,0.68184 14.01037,-0.82774 20.98193,-1.46601 11.90686,-1.49352 23.83986,-2.82297 35.7173,-4.52549 0.93742,0.10737 1.628,-1.04165 0.66863,-1.54957 -1.67267,-0.8145 -3.39733,-1.97113 -3.77741,-3.92106 -0.3239,-1.22195 -2.77201,-0.98442 -2.07856,0.42785 0.78425,0.91436 0.34147,3.04795 -1.09088,3.14518 -6.81482,1.04576 -13.7292,1.36121 -20.57032,2.24001 -9.62578,1.03886 -19.2908,2.29943 -28.83101,3.68799 0.0787,-0.87227 0.0379,-2.64281 -1.31152,-2.12818 -0.55647,-0.1312 0.72263,-0.83605 0.84664,-1.07826 3.56667,-3.10513 8.60005,-3.00565 12.98856,-3.91577 11.04482,-1.75776 22.12914,-3.25249 33.32189,-3.46428 1.31942,-0.23443 2.91137,0.15446 4.06897,-0.5669 0.1937,-1.26834 -1.71423,-1.19729 -2.50171,-1.69672 -4.08141,-1.54277 -8.35869,-2.59873 -12.74564,-2.56554 -0.77706,-0.027 -1.55456,-0.04 -2.33204,-0.0458 z"
       style="opacity:0.996;fill:#0b1e6b;fill-opacity:1;stroke:none;stroke-width:1.32292;stroke-linecap:square;stroke-miterlimit:4;stroke-dasharray:none" />
    <path
       id="path1152"
       d="m 339.19746,222.65833 c -0.19476,0.0108 -0.34531,0.14566 -0.49157,0.25937 -0.33285,0.26095 -0.6422,0.55174 -0.92631,0.86486 -0.16219,0.17662 -0.19098,0.46375 -0.0506,0.66135 0.0611,0.10085 0.16415,0.16348 0.26443,0.21909 0.16062,0.14369 0.40526,0.19548 0.60221,0.0979 0.15209,-0.0645 0.24699,-0.20777 0.31491,-0.35182 0.17537,-0.32051 0.4372,-0.57964 0.69181,-0.83691 0.1647,-0.16139 0.21309,-0.43045 0.0994,-0.63375 -0.0938,-0.18334 -0.29975,-0.29438 -0.50432,-0.28013 z"
       style="opacity:0.996;fill:#0b1e6b;fill-opacity:1;stroke:none;stroke-width:1.32291;stroke-linecap:square;stroke-miterlimit:4;stroke-dasharray:none" />
    <path
       id="path1154"
       d="m 305.70885,152.43925 c -0.48411,-0.0195 -0.74684,0.63755 -0.38907,0.96089 0.89996,0.77734 1.8787,1.46188 2.8044,2.20926 8.79517,6.88821 17.37379,14.04725 25.96618,21.19522 8.56938,7.13262 17.07825,14.33921 25.74227,21.35732 0.41978,0.27088 0.95448,0.26855 1.42488,0.41252 1.72982,0.37261 3.44612,0.77461 5.16806,1.17543 0.41841,0.0949 0.77139,-0.42195 0.58959,-0.75989 -0.21322,-0.42551 -0.75686,-0.4089 -1.14437,-0.57519 -1.36094,-0.42245 -2.7463,-0.78993 -4.1048,-1.2031 -1.78218,-1.39518 -3.48938,-2.88387 -5.242,-4.31589 -12.19947,-10.10974 -24.41628,-20.20198 -36.85879,-30.01238 -4.41727,-3.46768 -8.85558,-6.91092 -13.38342,-10.23329 -0.16904,-0.1163 -0.3601,-0.22587 -0.57293,-0.2109 z"
       style="opacity:0.996;fill:#0b1e6b;fill-opacity:1;stroke:none;stroke-width:1.32292;stroke-linecap:square;stroke-miterlimit:4;stroke-dasharray:none" />
    <path
       id="path1156"
       d="m 367.05149,198.76863 c -0.19809,0.002 -0.38756,0.12237 -0.47463,0.29993 -0.0833,0.16766 -0.099,0.37765 -0.003,0.54315 0.0758,0.14232 0.22148,0.23586 0.37716,0.26832 0.54086,0.14484 1.08649,0.29579 1.61735,0.46182 0.20939,0.0654 0.42114,0.13446 0.62428,0.20484 0.4839,0.1689 0.97613,0.35732 1.42986,0.60823 0.10713,0.0657 0.22215,0.1288 0.35103,0.13185 0.18767,0.0101 0.37092,-0.09 0.47474,-0.24477 0.0412,-0.0672 0.0915,-0.12766 0.14827,-0.18223 0.14214,-0.148 0.19571,-0.37823 0.11748,-0.57021 -0.0618,-0.16821 -0.21593,-0.29257 -0.38942,-0.33114 -1.35892,-0.3865 -2.71743,-0.77451 -4.07707,-1.15847 -0.064,-0.0189 -0.13001,-0.0324 -0.19703,-0.0313 z"
       style="opacity:0.996;fill:#0b1e6b;fill-opacity:1;stroke:none;stroke-width:1.32291;stroke-linecap:square;stroke-miterlimit:4;stroke-dasharray:none" />
    <path
       id="path1158"
       d="m 301.25369,149.154 c -0.24408,0.0149 -0.46191,0.21691 -0.48707,0.46132 -0.0313,0.20311 0.0752,0.40635 0.23789,0.5248 0.41875,0.32294 0.84542,0.6356 1.26621,0.95589 0.8876,0.66893 1.77113,1.34323 2.65235,2.02053 0.18814,0.14396 0.47037,0.1406 0.6532,-0.011 0.14015,-0.12393 0.26757,-0.2888 0.27419,-0.48337 0.0143,-0.19546 -0.0966,-0.3831 -0.25911,-0.48696 -1.31434,-0.96517 -2.63242,-1.92543 -3.96227,-2.86915 -0.10832,-0.0792 -0.24116,-0.12014 -0.37539,-0.11206 z"
       style="opacity:0.996;fill:#0b1e6b;fill-opacity:1;stroke:none;stroke-width:1.32291;stroke-linecap:square;stroke-miterlimit:4;stroke-dasharray:none" />
    <path
       id="path1160"
       d="m 281.55755,137.40373 c -0.20793,0.0288 -0.38769,0.18835 -0.44336,0.39038 -0.0796,0.1642 -0.10448,0.3648 -0.0183,0.53149 0.0841,0.17861 0.27347,0.28944 0.46749,0.30216 0.1914,0.0147 0.37904,0.0606 0.57036,0.0739 0.24866,0.0111 0.48996,-0.17357 0.5362,-0.41941 0.0572,-0.23831 -0.0797,-0.49877 -0.30218,-0.5974 -0.19021,-0.09 -0.37859,-0.18585 -0.57536,-0.26056 -0.0759,-0.0242 -0.15608,-0.03 -0.235,-0.0206 z m -0.46079,0.48236 c 0.008,-0.0573 0.0111,-0.0608 7e-5,-5.3e-4 z"
       style="opacity:0.996;fill:#0b1e6b;fill-opacity:1;stroke:none;stroke-width:1.32291;stroke-linecap:square;stroke-miterlimit:4;stroke-dasharray:none" />
    <path
       id="path1162"
       d="m 344.86385,178.34498 c -1.32048,-0.29763 -4.28061,0.85423 -2.50759,2.38885 3.63353,3.17462 7.19434,6.81577 11.50737,8.97192 2.28655,-1.21575 0.90773,-4.59173 0.30972,-6.4984 -1.1624,-4.20824 -5.55678,-4.86914 -9.3095,-4.86237 z"
       style="opacity:0.996;fill:#0b1e6b;fill-opacity:1;stroke:none;stroke-width:1.32292;stroke-linecap:square;stroke-miterlimit:4;stroke-dasharray:none" />
    <path
       id="path1164"
       d="m 454.59397,294.95502 c -0.1373,0.0151 -0.26766,0.065 -0.40116,0.0981 -1.59846,0.44552 -3.2008,0.88084 -4.80672,1.30778 -0.14935,0.0428 -0.30194,0.0762 -0.44764,0.13055 -0.21612,0.0904 -0.35523,0.33433 -0.31833,0.56626 0.0276,0.2272 0.21985,0.42033 0.4466,0.45032 0.16144,0.0255 0.31697,-0.0392 0.47212,-0.073 1.75604,-0.44507 3.50922,-0.90166 5.25732,-1.37704 0.20243,-0.0566 0.35981,-0.24184 0.38103,-0.45121 0.0172,-0.17487 -0.0449,-0.3568 -0.16301,-0.48656 -0.10748,-0.11341 -0.26432,-0.17485 -0.42021,-0.16521 z m -5.89854,1.74645 c -0.003,0.003 0.004,-0.007 0,0 z m -0.003,0.005 c -0.006,0.0113 0.008,-0.0121 0,0 z m -0.003,0.006 c 2.7e-4,-2.1e-4 0.003,-0.003 0,0 z m -0.0241,0.0466 c 0.006,-0.0121 0.0116,-0.0224 0,0 z"
       style="opacity:0.996;fill:#0b1e6b;fill-opacity:1;stroke:none;stroke-width:1.32291;stroke-linecap:square;stroke-miterlimit:4;stroke-dasharray:none" />
    <path
       id="path1166"
       d="m 448.61835,296.58108 c -0.0517,7.9e-4 -0.10279,0.0103 -0.1525,0.024 -0.11383,0.0298 -0.22768,0.0596 -0.3411,0.0909 -0.0931,0.0268 -0.17878,0.0793 -0.24419,0.15086 -0.0845,0.0913 -0.13464,0.21333 -0.1393,0.33763 -0.005,0.11868 0.0316,0.23855 0.1021,0.33417 0.0743,0.10197 0.18637,0.1756 0.30954,0.20315 0.0861,0.02 0.17684,0.0169 0.26207,-0.006 0.11737,-0.0296 0.23505,-0.0581 0.35226,-0.0885 0.10761,-0.029 0.20564,-0.0925 0.27528,-0.17966 0.0795,-0.0982 0.1217,-0.22554 0.11692,-0.35176 -0.004,-0.1084 -0.0408,-0.21563 -0.1061,-0.30235 -0.0745,-0.10031 -0.18582,-0.17237 -0.30777,-0.19957 -0.0417,-0.009 -0.0845,-0.0137 -0.12721,-0.013 z"
       style="opacity:0.996;fill:#0b1e6b;fill-opacity:1;stroke:none;stroke-width:1.32292;stroke-linecap:square;stroke-miterlimit:4;stroke-dasharray:none" />
    <path
       id="path1168"
       d="m 484.83928,280.60238 c -0.0939,0.004 -0.18817,0.0264 -0.26934,0.0749 -0.1396,0.0807 -0.23752,0.22848 -0.25718,0.38852 -0.01,0.075 0,0.15073 0,0.22601 0.006,0.14751 0.007,0.29518 0.0159,0.44256 0.006,0.0554 0.0108,0.11083 0.0204,0.16566 0.0287,0.14842 0.12385,0.28231 0.255,0.35763 0.14092,0.0831 0.32094,0.0954 0.47152,0.0311 0.15406,-0.0631 0.27363,-0.20348 0.31083,-0.36582 0.0243,-0.0933 0.0135,-0.19023 0.0143,-0.28536 -0.003,-0.17159 -0.003,-0.34323 -0.007,-0.51479 -0.003,-0.11803 -0.0445,-0.23508 -0.11975,-0.32637 -0.10181,-0.12629 -0.26432,-0.20037 -0.42643,-0.19421 -0.003,5e-5 -0.005,9e-5 -0.008,1.4e-4 z"
       style="opacity:0.996;fill:#0b1e6b;fill-opacity:1;stroke:none;stroke-width:1.32292;stroke-linecap:square;stroke-miterlimit:4;stroke-dasharray:none" />
  </g>
  <g
     inkscape:label="Vents"
     id="layer4"
     inkscape:groupmode="layer">
    <path
       id="path997"
       d="m 233.73212,278.02775 c -8.30577,-0.14808 -15.57292,5.38365 -20.12959,11.93886 -5.32814,7.96823 -7.87681,17.56994 -8.42381,27.06738 -0.36608,8.16945 0.25864,16.39723 2.35593,24.31927 3.31235,13.08803 9.90862,25.83292 20.59982,34.372 6.21654,4.9479 14.54495,8.08829 22.48559,6.01414 8.99269,-2.03028 15.59507,-9.57749 19.18872,-17.72248 3.84665,-8.57935 5.35054,-18.08459 4.92938,-27.44885 -0.0759,-10.14359 -2.56141,-20.18464 -6.40938,-29.53038 -4.70945,-10.59867 -11.92024,-20.76468 -22.41737,-26.23161 -3.7538,-1.94184 -7.94439,-2.96247 -12.17929,-2.77833 z m 1.27604,15.07049 c 6.20398,0.0881 11.59088,4.05831 15.76039,8.35725 9.89078,10.75283 14.73372,25.61346 14.21558,40.12201 -0.4241,9.156 -3.12375,18.84857 -10.09896,25.24789 -4.00621,3.75873 -9.96573,5.27053 -15.26587,3.82763 -8.25333,-2.0447 -14.43096,-8.63378 -18.60604,-15.69764 -5.70531,-9.80628 -8.29678,-21.34323 -7.70707,-32.6907 0.26722,-8.22797 2.54791,-16.75639 8.19456,-23.00818 3.41922,-3.89686 8.23581,-6.36199 13.50741,-6.15826 z"
       style="opacity:0.996;fill:#000000;stroke:none;stroke-width:1.32292;stroke-linecap:square;stroke-miterlimit:4;stroke-dasharray:none" />
    <path
       sodipodi:nodetypes="ccccccccccccccccccc"
       id="path999"
       d="m 249.41102,273.07748 c -5.49015,0.67142 -11.08453,1.30304 -16.31565,3.16453 -4.71842,1.21698 -1.18361,1.83421 0.90299,1.46078 5.53504,0.16852 11.05108,1.98836 15.60348,5.20538 12.06537,8.44841 19.368,22.19011 22.90429,36.19662 2.00811,7.65014 2.69952,15.49409 2.2683,23.3931 -0.14708,9.60352 -2.79559,19.31321 -7.99949,27.46014 -3.89669,6.0682 -9.99641,11.0602 -17.26067,12.23246 -1.73994,-0.30517 -7.09922,-0.19688 -0.93791,1.62224 6.72749,0.70202 13.50989,-0.29446 20.09614,-1.66415 4.51065,-1.0441 9.22505,-1.51916 13.51786,-3.32227 5.00507,-2.17731 7.85468,-7.21116 9.83247,-12.0338 -0.27199,-1.25751 -2.08396,-0.94062 -3.02736,-1.38891 -1.29784,-0.30138 -0.9049,-2.16265 -1.3798,-3.17163 -1.24749,-4.8011 -1.75395,-9.73794 -1.74948,-14.69149 -0.34176,-14.08559 -3.82067,-27.91952 -9.03698,-40.95581 -2.03332,-5.22642 -4.03357,-10.53967 -7.42029,-15.07355 -4.74575,-6.9432 -10.21191,-13.60147 -16.92511,-18.68517 -1.00789,-0.0386 -2.05431,0.18901 -3.07279,0.25153 z"
       style="opacity:0.996;fill:#000000;stroke:none;stroke-width:1.32292;stroke-linecap:square;stroke-miterlimit:4;stroke-dasharray:none" />
    <path
       sodipodi:nodetypes="ccccscccccccc"
       id="path1001"
       d="m 48.590958,235.65388 c -1.781127,1.00145 0.179107,3.60243 0.382659,5.08592 4.037751,13.25922 4.585398,27.96867 0.312809,41.26745 -1.637043,4.73164 -4.787924,9.68912 -9.889408,11.05966 -0.169384,0.25998 -2.664521,-0.0865 -2.677496,0.12314 -0.08405,1.35795 5.165111,2.29154 6.241894,2.3196 6.61665,0.21879 13.596225,0.24509 19.834495,-2.18258 2.457992,-1.79854 5.641136,-4.05686 5.994992,-7.27963 -2.312532,-2.57197 -7.698975,-1.64984 -8.834564,-5.53337 -0.342096,-3.38886 -1.558277,-7.16506 -0.105283,-10.42796 2.191385,-1.95899 1.860751,-4.22202 -0.0748,-6.28053 -5.667846,-8.32795 -5.316381,-19.08342 -10.191197,-27.77512 -0.271595,-0.22439 -0.631642,-0.4079 -0.994103,-0.37658 z"
       style="opacity:0.996;fill:#000000;stroke:none;stroke-width:1.32292;stroke-linecap:square;stroke-miterlimit:4;stroke-dasharray:none" />
    <path
       id="path1003"
       d="m 34.101227,222.87813 c -2.617933,0.029 -5.013137,1.52032 -6.617206,3.52308 -3.461502,4.08452 -4.969285,9.40052 -5.969258,14.55933 -1.721361,9.89222 -1.171836,20.13278 1.169954,29.87709 1.58572,6.20139 3.859467,12.44575 8.037521,17.39843 1.756228,1.97503 3.940125,3.89117 6.630577,4.33259 1.746586,0.14626 3.615214,0.0759 5.102374,-0.97361 3.674006,-2.34383 5.669531,-6.48449 7.072106,-10.46415 2.97948,-8.97366 3.106975,-18.63764 2.050383,-27.9534 -0.983419,-7.76595 -3.022616,-15.54587 -7.049024,-22.31907 -1.937229,-3.1038 -4.42436,-6.19008 -7.933311,-7.54853 -0.79855,-0.28504 -1.645217,-0.44078 -2.494116,-0.43176 z m 0.733935,8.19528 c 3.273264,0.0848 5.832139,2.62888 7.625966,5.10187 3.06464,4.43848 4.717124,9.7306 5.791648,14.99077 1.268155,6.71713 1.376074,13.66448 0.22521,20.36426 -0.837406,4.25975 -2.250884,8.73035 -5.423754,11.87274 -1.473679,1.49286 -3.623408,2.27575 -5.708502,1.88748 -3.142723,-0.62964 -5.398188,-3.24037 -7.072106,-5.80746 -3.980771,-6.39508 -5.700642,-13.9831 -6.209858,-21.4413 -0.231711,-5.02781 -0.112348,-10.11718 1.118317,-15.01894 0.811205,-3.19123 1.925283,-6.4623 4.089185,-9.02725 1.276671,-1.5044 2.987059,-2.80652 5.032238,-2.90499 0.176818,-0.0143 0.354298,-0.0192 0.531656,-0.0172 z"
       style="opacity:0.996;fill:#000000;stroke:none;stroke-width:1.32291;stroke-linecap:square;stroke-miterlimit:4;stroke-dasharray:none" />
    <path
       id="path1005"
       d="m 37.960971,219.38941 c -2.197074,0.34879 -4.365649,1.09404 -6.274395,2.23926 -0.663366,0.30492 -0.468424,1.47299 0.332803,1.2854 2.215235,-0.53232 4.595715,-0.0808 6.498458,1.15993 4.143544,2.63903 6.617194,7.06647 8.614936,11.3939 0.199615,0.55803 0.545121,1.62026 1.283602,1.03195 0.307949,-0.36213 1.086282,-0.21006 0.995008,-0.88464 -0.619733,-1.80273 -1.711264,-3.41889 -2.612199,-5.09471 -2.340433,-4.01519 -5.101445,-7.85008 -8.492834,-11.03035 -0.115541,-0.0315 -0.212786,-0.15335 -0.345379,-0.10074 z"
       style="opacity:0.996;fill:#000000;stroke:none;stroke-width:1.32291;stroke-linecap:square;stroke-miterlimit:4;stroke-dasharray:none" />
    <path
       id="path1007"
       d="m 478.25012,269.14118 c -7.5166,0.67397 -14.73533,3.17005 -22.12242,4.6173 -13.01453,3.07913 -26.19454,5.43454 -39.19143,8.57083 -3.19209,0.65016 -6.07809,2.85078 -6.80667,6.14408 -1.44571,4.78525 -2.60226,9.78087 -2.75304,14.78173 0.82875,1.86262 3.45551,0.59528 4.97067,0.63708 21.18701,-3.20637 42.0982,-8.40614 62.303,-15.54424 3.10242,-1.40531 6.90343,-2.07408 9.25274,-4.69205 0.74729,-2.82831 -0.12504,-5.88664 -0.34313,-8.76654 -0.37193,-2.18804 -0.74055,-5.68183 -3.6848,-5.68806 -0.53893,-0.0642 -1.08286,-0.0738 -1.62492,-0.0601 z m -26.99437,11.33218 c 3.06652,-0.23256 5.6352,3.21026 3.94559,5.94061 -1.94378,3.60621 -8.45158,4.54264 -10.22836,0.42233 -1.0817,-3.61194 3.01781,-6.62093 6.28277,-6.36294 z"
       style="opacity:0.996;fill:#000000;stroke:none;stroke-width:1.32292;stroke-linecap:square;stroke-miterlimit:4;stroke-dasharray:none" />
    <path
       id="path1009"
       d="m 481.9237,315.71472 c -20.20517,8.71715 -41.90222,12.89772 -63.10188,18.39591 -2.32918,0.29771 -1.95474,3.29743 -2.79527,4.91269 -0.82348,3.15941 -2.0253,6.28894 -2.43665,9.52044 1.18787,1.12552 3.16074,-0.27199 4.58073,-0.32778 19.41248,-5.37169 38.52511,-11.80381 57.47173,-18.62433 4.28517,-1.96278 5.78602,-6.8086 6.68436,-11.05874 0.005,-0.73046 1.14945,-2.97783 -0.40302,-2.81819 z"
       style="opacity:0.996;fill:#000000;stroke:none;stroke-width:1.32292;stroke-linecap:square;stroke-miterlimit:4;stroke-dasharray:none" />
    <path
       id="path1011"
       d="m 385.64133,216.816 c -13.74696,0.7077 -27.47928,2.25156 -41.01161,4.78241 -2.15643,0.52337 -5.24449,1.36453 -5.83179,3.79959 0.67612,1.56793 2.83816,-0.0331 4.05908,0.18303 14.84442,-2.114 29.7782,-3.50358 44.67553,-5.13294 1.79753,0.0432 2.98651,-2.87692 0.85326,-3.41734 -0.88382,-0.27122 -1.8315,-0.21643 -2.74447,-0.21475 z"
       style="opacity:0.996;fill:#000000;stroke:none;stroke-width:1.32292;stroke-linecap:square;stroke-miterlimit:4;stroke-dasharray:none" />
    <path
       id="path1022"
       d="m 386.52191,325.50943 c -4.95281,0.28696 -10.00302,0.6097 -14.87479,1.14818 -1.15649,1.21912 1.20711,2.1937 1.98927,2.81891 4.46124,3.08827 3.94835,9.38716 2.32714,13.89124 -1.92984,6.42895 -7.90069,12.24918 -14.96068,11.98644 -1.94757,0.20177 -3.89847,-1.48164 -5.73519,-0.81675 -0.19415,1.6671 1.68434,3.02156 2.33315,4.49116 1.06527,2.34044 4.13555,1.29204 6.20448,1.72146 7.6113,0.31161 15.82002,-0.0118 22.49543,-4.08305 5.35763,-4.43785 6.63263,-11.834 7.80876,-18.31494 0.50773,-3.96418 1.64814,-9.21119 -2.03708,-12.04379 -1.63931,-1.02241 -3.71049,-0.79129 -5.55049,-0.79886 z"
       style="opacity:0.996;fill:#1a1a1a;stroke:none;stroke-width:1.32292;stroke-linecap:square;stroke-miterlimit:4;stroke-dasharray:none" />
    <path
       id="path1024"
       d="m 493.62466,302.71049 c -11.2055,5.17575 -23.06499,8.82829 -34.91198,12.23378 -11.19417,3.25928 -22.57046,5.79884 -33.85563,8.68111 -4.1492,0.98795 -6.31354,5.23784 -6.99357,9.10741 0.0443,1.89849 2.44245,0.63922 3.4876,0.52413 24.13646,-5.75782 48.87545,-10.88014 70.93736,-22.7201 2.8725,-0.52767 1.7195,-3.68796 2.05261,-5.76171 -0.10128,-0.62607 0.50424,-2.33727 -0.71639,-2.06462 z"
       style="opacity:0.996;fill:#1a1a1a;stroke:none;stroke-width:1.32292;stroke-linecap:square;stroke-miterlimit:4;stroke-dasharray:none" />
    <path
       id="path1026"
       d="m 180.02549,184.91194 c -1.35489,2.86848 -1.54049,6.28678 -2.31744,9.38555 0.0134,1.59231 -1.29143,3.59272 -0.32251,5.01107 1.04492,0.5669 3.16378,-0.78553 3.27059,1.10523 0.13527,2.24459 0.38406,5.97422 -2.69006,6.22551 -2.88002,0.68596 -6.11707,-0.42229 -8.80819,0.89191 -1.03721,0.80383 -0.32127,2.13839 0.92412,2.0537 2.60467,0.50394 5.03033,1.45853 7.44408,2.46956 5.14041,1.56767 10.34816,3.05292 15.56531,4.26203 1.05286,-1.2695 0.28544,-3.37401 0.5426,-4.93345 0.0566,-1.29267 0.0626,-3.13999 -1.61991,-3.23122 -3.17204,-1.50104 -3.3504,-5.59857 -4.7878,-8.40849 -2.04208,-4.95657 -3.71835,-10.1689 -6.52148,-14.74693 -0.18086,-0.15904 -0.457,-0.21708 -0.67931,-0.0845 z"
       style="opacity:0.996;fill:#1a1a1a;stroke:none;stroke-width:1.32292;stroke-linecap:square;stroke-miterlimit:4;stroke-dasharray:none" />
    <path
       id="path1028"
       d="m 121.93481,136.71791 c -3.18557,6.66693 -5.77755,13.62842 -8.0646,20.65873 -3.30603,10.32608 -5.94449,20.86548 -8.00986,31.50716 -0.0485,1.01294 1.27938,1.03266 1.96654,1.29125 0.75875,0.1598 1.61528,0.67805 2.3037,0.0511 0.68195,-0.38328 1.61481,-0.71462 1.49547,-1.67582 2.06039,-13.87442 4.62172,-27.76823 9.54698,-40.92537 1.28377,-3.48979 2.88395,-6.85781 4.48033,-10.18917 0.0322,-0.89792 -1.17963,-0.68787 -1.80709,-0.79226 -0.63383,0.0144 -1.31292,-0.16626 -1.91147,0.0744 z"
       style="opacity:0.996;fill:#1a1a1a;stroke:none;stroke-width:1.32291;stroke-linecap:square;stroke-miterlimit:4;stroke-dasharray:none" />
    <path
       id="path1030"
       d="m 107.48437,190.43241 c -1.15752,0.0335 -1.51306,1.53492 -1.30463,2.44603 1.32769,0.65778 2.88594,0.82589 4.30521,1.28919 10.0823,2.68453 20.14426,5.46146 30.24394,8.07001 0.80081,0.0274 0.68229,-0.93365 0.36182,-1.3867 -0.38842,-0.59348 -0.20974,-1.40243 -0.66755,-1.93271 -2.78114,-0.88655 -5.66192,-1.50342 -8.48242,-2.27938 -8.04155,-2.05065 -16.05589,-4.21546 -24.1185,-6.17886 -0.11157,-0.0184 -0.2247,-0.0296 -0.33787,-0.0276 z"
       style="opacity:0.996;fill:#1a1a1a;stroke:none;stroke-width:1.32291;stroke-linecap:square;stroke-miterlimit:4;stroke-dasharray:none" />
    <path
       id="path1032"
       d="m 51.530608,175.56792 c -0.79213,0.27612 -0.967393,1.31105 -1.060664,2.04667 0.217046,0.80396 1.310947,0.64487 1.932739,0.9483 16.155728,4.37734 32.325765,8.70338 48.503927,12.9971 1.51462,0.33695 3.00676,0.8792 4.54982,1.0393 0.78577,-0.3122 0.44359,-1.36848 0.87187,-1.96948 0.0533,-0.96973 -1.2537,-0.81909 -1.90338,-1.11644 -17.20287,-4.57065 -34.442458,-9.0057 -51.623804,-13.65281 -0.423404,-0.0807 -0.833966,-0.31579 -1.270508,-0.29264 z"
       style="opacity:0.996;fill:#1a1a1a;stroke:none;stroke-width:1.32291;stroke-linecap:square;stroke-miterlimit:4;stroke-dasharray:none" />
    <path
       id="path1034"
       d="m 105.12313,133.105 c -2.46809,-0.0219 -4.95088,0.0161 -7.362133,0.6074 -4.558009,0.95673 -8.940043,2.72568 -12.959791,5.0639 -2.992422,2.17338 -5.685825,4.73073 -8.467815,7.16164 -7.710514,7.02566 -15.172912,14.44372 -21.246216,22.96087 -1.220828,1.86832 -2.60413,3.681 -3.479869,5.74191 -0.05272,0.90432 1.152525,0.91988 1.763482,1.1881 1.630159,0.3847 3.294187,1.01858 4.988729,0.84515 0.513083,-0.0959 0.744128,-0.69023 0.545643,-1.13886 1.101471,-3.05624 2.545577,-5.98896 3.875182,-8.94289 2.574634,-5.48787 5.890797,-10.68703 10.239185,-14.91611 4.851177,-4.82797 10.063043,-9.41609 16.020793,-12.81933 4.046752,-2.30625 8.729252,-3.36714 13.33374,-3.4817 6.76295,-0.22163 13.51192,0.50621 20.27093,0.96356 11.40016,1.09928 23.01853,2.73783 33.57148,7.4631 3.61461,1.58504 6.41994,4.60862 8.23125,8.06704 8.26072,15.38815 16.36694,30.91714 22.74111,47.19975 0.95112,2.35335 1.69988,4.77543 2.59635,7.1408 0.64973,1.00045 1.81014,1.58757 2.90284,1.98239 0.59095,0.25942 1.61985,-0.0795 1.35501,-0.86909 -1.79838,-5.23654 -3.99431,-10.33003 -6.1177,-15.44161 -6.29692,-14.75813 -13.51817,-29.137 -21.82705,-42.86758 -2.27398,-3.79695 -5.55242,-7.19089 -9.80513,-8.68448 -5.01205,-1.5982 -10.15462,-2.75189 -15.2622,-3.99904 -8.09128,-1.84729 -16.37212,-2.85707 -24.66457,-3.11946 -3.74696,-0.0859 -7.49535,-0.11464 -11.24325,-0.10546 z"
       style="opacity:0.996;fill:#1a1a1a;stroke:none;stroke-width:1.32291;stroke-linecap:square;stroke-miterlimit:4;stroke-dasharray:none" />
    <path
       id="path1036"
       d="m 164.17277,132.65474 c -0.67904,-0.0188 -0.76362,0.94316 -0.1845,1.17485 2.2862,1.27628 4.70327,2.45375 6.53881,4.3725 0.64529,0.58399 1.14319,1.32331 1.7191,1.98454 0.61689,0.42108 1.16422,-0.35098 1.72344,-0.52631 0.63296,-0.26899 0.32336,-0.96593 -0.0613,-1.31085 -2.58209,-2.70494 -6.03911,-4.35857 -9.48929,-5.66484 -0.0802,-0.0214 -0.16304,-0.0344 -0.24625,-0.0299 z"
       style="opacity:0.996;fill:#1a1a1a;stroke:none;stroke-width:1.32291;stroke-linecap:square;stroke-miterlimit:4;stroke-dasharray:none" />
    <path
       id="path1038"
       d="m 379.54125,367.36753 c -6.15304,0.84486 -12.33736,1.20695 -18.53718,1.58681 -0.72218,-0.022 -1.87796,0.25318 -1.7068,1.20973 0.0933,0.88283 0.96806,1.28026 1.76535,1.25203 5.60324,0.55221 11.18685,-0.51401 16.69365,-1.42007 1.04465,-0.23172 2.56027,-0.7356 2.49968,-2.05047 -0.0345,-0.35412 -0.36698,-0.60497 -0.7147,-0.57803 z"
       style="opacity:0.996;fill:#000000;stroke:none;stroke-width:1.32291;stroke-linecap:square;stroke-miterlimit:4;stroke-dasharray:none" />
    <path
       id="path1040"
       d="m 345.80741,350.3267 c -0.36793,0.0443 -0.8001,0.27816 -0.78147,0.70319 0.0406,0.4341 0.39534,0.74732 0.61912,1.09691 0.34967,0.43938 0.64762,0.92993 1.06521,1.30938 0.32055,0.25536 0.84865,0.024 0.87286,-0.38626 -0.003,-0.37856 -0.28773,-0.67817 -0.43034,-1.01245 -0.28366,-0.50248 -0.52615,-1.03267 -0.83651,-1.51717 -0.11075,-0.16185 -0.32242,-0.21587 -0.50887,-0.1936 z"
       style="opacity:0.996;fill:#000000;stroke:none;stroke-width:1.32292;stroke-linecap:square;stroke-miterlimit:4;stroke-dasharray:none" />
    <path
       id="path1042"
       d="m 340.61777,339.64618 c -0.36936,0.0575 -0.53587,0.47886 -0.42321,0.80758 0.41672,1.80687 0.98881,3.58224 1.74057,5.27801 0.14419,0.35931 0.6468,0.43561 0.91508,0.16893 0.28202,-0.17276 0.34097,-0.55083 0.17466,-0.8251 -0.65461,-1.54276 -1.2254,-3.12131 -1.675,-4.73623 -0.0772,-0.29798 -0.21498,-0.6617 -0.57044,-0.69569 -0.0538,-0.0112 -0.10764,1.7e-4 -0.16166,0.002 z"
       style="opacity:0.996;fill:#000000;stroke:none;stroke-width:1.32292;stroke-linecap:square;stroke-miterlimit:4;stroke-dasharray:none" />
    <path
       id="path1044"
       d="m 360.56018,329.1517 c -0.2453,0.0584 -0.43564,0.23932 -0.64656,0.36774 -0.85014,0.57988 -1.60862,1.30415 -2.19663,2.15045 -0.17139,0.21387 -0.1674,0.55392 0.0412,0.74171 0.20672,0.21622 0.57936,0.18863 0.7796,-0.0238 0.31488,-0.31209 0.61306,-0.63239 0.93731,-0.93321 0.46186,-0.44055 0.93408,-0.85323 1.42676,-1.26515 0.19159,-0.14339 0.34039,-0.38617 0.27102,-0.6308 -0.0515,-0.27307 -0.34306,-0.45592 -0.61275,-0.40693 z"
       style="opacity:0.996;fill:#000000;stroke:none;stroke-width:1.32292;stroke-linecap:square;stroke-miterlimit:4;stroke-dasharray:none" />
    <path
       id="path1046"
       d="m 371.25347,326.73205 c -0.24498,0.0294 -0.51305,0.008 -0.73154,0.14075 -0.26898,0.16668 -0.32796,0.58047 -0.10475,0.80846 0.1737,0.18802 0.44426,0.22782 0.67241,0.32023 0.21995,0.0994 0.509,0.0754 0.66741,-0.12132 0.14423,-0.14435 0.15891,-0.3671 0.11266,-0.55575 0.007,-0.30082 -0.23992,-0.58109 -0.54464,-0.59085 -0.0238,-0.002 -0.0477,-0.002 -0.0716,-0.002 z m 0.61384,0.61578 c 0.003,0.0111 -0.003,-0.01 0,0 z"
       style="opacity:0.996;fill:#1a1a1a;stroke:none;stroke-width:1.32292;stroke-linecap:square;stroke-miterlimit:4;stroke-dasharray:none" />
    <path
       id="path1140"
       d="m 161.35815,131.71138 c -0.23665,0.0172 -0.44545,0.2084 -0.4809,0.44334 -0.0447,0.24222 0.10109,0.49906 0.32933,0.5895 0.42627,0.16643 0.85516,0.32637 1.27855,0.50019 0.31537,0.12385 0.62397,0.26443 0.93998,0.3865 0.22246,0.0829 0.49466,-0.001 0.62361,-0.20226 0.0741,-0.1121 0.10078,-0.24815 0.12743,-0.37778 0.0302,-0.2335 -0.11331,-0.46996 -0.32864,-0.56097 -0.29585,-0.11755 -0.60052,-0.2118 -0.90137,-0.31567 -0.4625,-0.15203 -0.92329,-0.31041 -1.39154,-0.444 -0.0641,-0.0179 -0.13025,-0.0213 -0.19645,-0.0189 z"
       style="opacity:0.996;fill:#1a1a1a;fill-opacity:1;stroke:none;stroke-width:1.32291;stroke-linecap:square;stroke-miterlimit:4;stroke-dasharray:none" />
    <path
       id="path1170"
       d="m 55.293854,251.40622 c -0.288952,0.0932 -0.434181,0.4259 -0.342792,0.70827 0.790581,3.62895 2.274115,7.07756 4.134742,10.28161 0.977612,1.68803 2.051018,3.31984 3.184924,4.90648 0.25817,0.27356 0.652974,0.33428 0.986293,0.47606 0.264837,0.0906 0.574014,0.25679 0.840468,0.0795 0.298587,-0.16937 0.328821,-0.61376 0.09417,-0.85103 -1.782424,-2.40442 -3.446259,-4.89061 -4.785707,-7.57122 -1.186881,-2.35264 -2.132528,-4.80546 -2.999247,-7.28175 -0.08162,-0.25095 -0.185733,-0.53928 -0.46213,-0.62997 -0.206449,-0.0853 -0.423039,-0.18899 -0.650721,-0.11795 z"
       style="opacity:0.996;fill:#1a1a1a;fill-opacity:1;stroke:none;stroke-width:1.32292;stroke-linecap:square;stroke-miterlimit:4;stroke-dasharray:none" />
    <path
       id="path1172"
       d="m 312.64059,279.61538 c -1.1304,-0.0439 -1.80655,1.24803 -1.38152,2.22527 1.60621,4.19733 3.5547,8.26343 5.61742,12.2543 1.61414,2.96323 3.31237,6.20018 6.45438,7.7946 2.32436,1.1485 4.97171,1.79059 7.56833,1.58389 0.88484,-0.0328 1.5512,-1.0388 1.04013,-1.82575 -2.28648,-5.44195 -4.60846,-10.8752 -7.13978,-16.20782 -1.54877,-3.0294 -4.83934,-4.62596 -8.06011,-5.1979 -1.35385,-0.26614 -2.71741,-0.56208 -4.09885,-0.62659 z"
       style="opacity:0.996;fill:#ff0000;fill-opacity:1;stroke:none;stroke-width:1.32292;stroke-linecap:square;stroke-miterlimit:4;stroke-dasharray:none" />
  </g>
  <g
     inkscape:label="Body"
     id="layer2"
     inkscape:groupmode="layer">
    <path
       sodipodi:nodetypes="ccccccccscccccccccccccscccccccccccccc"
       id="path840"
       d="m 498.78542,326.93135 c 2.31052,-2.18617 2.89282,-6.45092 2.59456,-7.97159 -1.13315,-9.88787 0.32729,-17.83349 2.27684,-25.41284 1.16821,-2.85777 3.48555,-5.23289 1.31771,-9.49184 -1.78249,-1.89146 -6.84755,-5.7263 -9.71069,-5.58552 -0.63076,-11.58618 -2.28137,-30.7531 -12.76773,-38.21915 -31.92644,-18.26397 -85.77096,-33.19947 -120.70407,-43.13814 -30.46951,-25.28867 -62.72424,-52.03604 -76.73479,-58.24975 -2.69686,-1.34048 -7.2802,-3.65971 -10.93999,-4.47827 -49.79686,-11.13768 -114.88794,-12.50775 -166.29296,-8.69893 -29.396161,2.25224 -56.342104,33.1134 -67.28919,41.71768 -8.489514,0.14219 -19.240893,-1.2227 -23.634559,1.64855 -9.1711873,13.52436 -7.7544038,23.03172 -10.0350792,36.65139 -0.247157,2.31513 0.00179,4.17568 -1.7757658,4.75674 -3.7974615,1.31855 -2.8521622,4.79612 -2.8051017,6.96065 0.2266133,6.12604 0.6258598,12.54665 2.1113658,15.20112 2.9743039,6.06791 2.3812679,11.27006 2.8889951,13.70407 l 10.0986188,11.98 c -4.099467,-19.42698 -2.150121,-33.03089 5.16071,-41.47342 12.804595,-9.9138 29.469243,17.02228 32.099439,34.42189 1.191609,6.29503 4.195558,11.44562 7.649509,16.31205 -4.567362,3.0777 -3.076541,6.63037 -2.822953,8.93802 0.327316,3.14132 0.21347,5.97877 1.616297,6.29412 1.868048,0.41994 5.182795,1.83552 8.033514,2.6128 27.750918,6.85374 67.4534,24.71073 105.2449,38.214 7.03053,2.83152 15.05761,5.72644 18.48238,8.32852 3.35022,2.49013 8.40872,6.27419 7.73475,0.0444 -0.0354,-3.6228 -2.65072,-9.48294 0.23697,-10.57092 1.97316,-0.91985 0.15465,-5.00242 -1.6144,-9.04373 -8.18387,-29.55262 9.54321,-49.72534 25.16113,-49.92904 20.17543,0.62576 35.86927,13.04572 48.67215,34.66049 6.51747,15.19849 12.50119,30.87675 12.99453,51.48999 -0.48164,5.96577 1.27441,11.12835 2.28338,16.55909 16.44694,3.91955 55.40794,13.8218 83.45673,8.57102 16.91415,-2.22201 33.87171,-7.64336 51.15684,-13.68488 22.94179,-8.03098 46.09214,-13.99706 68.65204,-25.80926 2.82696,-1.50914 5.85326,-2.584 7.20392,-7.30931 z"
       style="fill:none;stroke:#000000;stroke-width:1.32292;stroke-linecap:butt;stroke-linejoin:miter;stroke-miterlimit:4;stroke-dasharray:none;stroke-opacity:1" />
    <path
       sodipodi:nodetypes="ccc"
       id="path842"
       d="M 62.293242,267.56604 192.80058,314.6249 c 2.75515,2.26868 5.84822,2.90096 8.79164,4.25794"
       style="fill:none;stroke:#000000;stroke-width:1.32292;stroke-linecap:butt;stroke-linejoin:miter;stroke-miterlimit:4;stroke-dasharray:none;stroke-opacity:1" />
    <path
       sodipodi:nodetypes="sssss"
       d="m 387.2915,281.3116 c 2.04909,3.28832 8.93297,15.86747 0.89352,23.41219 -12.66426,11.88496 -32.88622,1.67666 -40.74757,-5.50862 -5.97014,-5.45671 -13.85548,-27.68669 -1.16961,-34.13356 11.77655,-5.98476 35.72287,7.72345 41.02366,16.22999 z"
       style="opacity:0.996;fill:none;stroke:#000000;stroke-width:1.32292;stroke-linecap:square;stroke-miterlimit:4;stroke-dasharray:none"
       id="path844" />
    <path
       sodipodi:nodetypes="ccc"
       id="path847"
       d="m 347.44733,299.2242 c -6.98071,3.34474 -7.11835,10.80675 -26.96721,6.40912 -15.51326,-2.35486 -31.01537,-4.69176 -47.44214,-8.51862"
       style="fill:none;stroke:#000000;stroke-width:1.32292;stroke-linecap:butt;stroke-linejoin:miter;stroke-miterlimit:4;stroke-dasharray:none;stroke-opacity:1" />
    <path
       sodipodi:nodetypes="cccccccc"
       id="path849"
       d="m 281.42546,138.74658 c -35.5951,-4.45551 -97.14788,-1.51067 -106.5231,0.66706 -4.20217,1.28475 -3.40188,4.67509 -1.83325,8.38884 l 32.60498,62.4467 10.30075,3.77459 c 53.30248,-0.0898 96.51434,-7.46137 150.76633,-10.50613 11.13444,-1.59801 -1.22913,-3.85149 -6.79684,-5.10284 -24.41969,-19.70718 -68.61869,-59.02662 -78.51887,-59.66822 z"
       style="fill:none;stroke:#000000;stroke-width:1.32292;stroke-linecap:butt;stroke-linejoin:miter;stroke-miterlimit:4;stroke-dasharray:none;stroke-opacity:1" />
    <path
       sodipodi:nodetypes="cc"
       id="path851"
       d="M 346.27136,265.07982 C 335.44824,254.7758 261.70739,231.17424 215.97484,214.02377"
       style="fill:none;stroke:#000000;stroke-width:1.32292;stroke-linecap:butt;stroke-linejoin:miter;stroke-miterlimit:4;stroke-dasharray:none;stroke-opacity:1" />
    <path
       sodipodi:nodetypes="cccccccccccccccccccc"
       id="path853"
       d="m 50.128064,178.08016 c 1.03908,-5.07433 10.262528,-19.35687 34.278025,-39.25616 5.255008,-3.05617 10.837525,-5.08517 16.844711,-5.78231 29.91526,-0.79854 40.46303,3.46015 54.34038,6.84942 7.18819,2.71568 8.92496,6.63095 11.13921,9.88893 12.27394,20.71995 20.71348,39.51305 27.65281,57.92542 -1.25753,2.09771 -0.88301,4.06611 -0.94471,6.06907 l 0.68249,2.9047 -3.31501,13.80183 c -1.60596,23.77975 -2.79538,47.48122 0.24368,72.93271 l 3.18915,10.61165 -88.30864,-30.72461 c 0.73243,-2.41684 -1.63349,-6.70229 -2.59128,-10.1385 -1.63601,-5.0904 -2.51356,-9.01663 -2.73679,-12.30216 l -0.46219,-5.82038 -0.0494,-5.96469 0.38379,-2.53183 c -0.44108,-19.66419 -3.408522,-41.98326 4.36376,-53.01627 l 0.98447,-0.69303 c 0.48191,-0.92862 -0.14779,-2.37902 1.93354,-2.5569 l 33.00622,8.54242"
       style="fill:none;stroke:#000000;stroke-width:1.32292;stroke-linecap:butt;stroke-linejoin:miter;stroke-miterlimit:4;stroke-dasharray:none;stroke-opacity:1" />
    <path
       sodipodi:nodetypes="cccccccccc"
       id="path855"
       d="m 194.12098,216.67923 -27.8203,-7.45757 M 142.75623,202.91028 49.2684,177.84972 c -3.016749,3.24325 -5.096804,7.73021 -6.938984,12.53301 l -0.434247,5.83143 c -1.762403,3.11224 -2.580694,5.48726 -3.401012,7.86385 0.575359,4.97104 -0.545809,9.44095 4.280172,15.66756 5.887944,9.27181 10.812107,19.47153 13.545574,31.78042 2.329363,6.68158 4.005852,10.34405 9.399682,17.27553"
       style="fill:none;stroke:#000000;stroke-width:1.32292;stroke-linecap:butt;stroke-linejoin:miter;stroke-miterlimit:4;stroke-dasharray:none;stroke-opacity:1" />
    <path
       id="path857"
       d="m 56.319903,251.52599 -1.736365,-0.65562"
       style="fill:none;stroke:#000000;stroke-width:1.32292;stroke-linecap:butt;stroke-linejoin:miter;stroke-miterlimit:4;stroke-dasharray:none;stroke-opacity:1" />
    <path
       sodipodi:nodetypes="cc"
       id="path859"
       d="M 22.544294,216.8321 C 18.232381,214.4887 8.8436457,209.97465 6.8249813,206.12395"
       style="fill:none;stroke:#000000;stroke-width:1.32292;stroke-linecap:butt;stroke-linejoin:miter;stroke-miterlimit:4;stroke-dasharray:none;stroke-opacity:1" />
    <path
       sodipodi:nodetypes="cc"
       id="path861"
       d="M 107.75606,190.27705 55.170568,176.4333"
       style="fill:none;stroke:#000000;stroke-width:1.32292;stroke-linecap:butt;stroke-linejoin:miter;stroke-miterlimit:4;stroke-dasharray:none;stroke-opacity:1" />
    <path
       sodipodi:nodetypes="ccscsccccc"
       id="path863"
       d="m 51.149537,175.2318 c 2.164244,0.71839 9.229713,3.1097 7.805608,0.19946 2.220372,-4.88971 4.425809,-11.04821 8.890383,-17.51375 3.031728,-4.39051 7.188886,-8.31081 12.673049,-13.00403 7.315315,-5.8718 12.081397,-8.74517 20.420073,-9.39782 5.89346,-0.46127 14.92749,0.50534 21.93152,0.90265 11.62829,1.23292 21.23274,2.59139 31.02533,6.49955 7.12095,2.4951 9.53439,6.95901 11.57903,11.12236 10.71866,19.81539 19.57763,37.99986 24.27573,52.53532 1.65541,1.24561 3.37687,2.73239 4.63294,1.12992"
       style="fill:none;stroke:#000000;stroke-width:1.32292;stroke-linecap:butt;stroke-linejoin:miter;stroke-miterlimit:4;stroke-dasharray:none;stroke-opacity:1" />
    <path
       sodipodi:nodetypes="ccc"
       id="path865"
       d="m 286.14416,353.98353 44.88691,10.74663 c 32.68312,5.74645 57.51094,0.62291 78.4615,-3.01504"
       style="fill:none;stroke:#000000;stroke-width:1.32292;stroke-linecap:butt;stroke-linejoin:miter;stroke-miterlimit:4;stroke-dasharray:none;stroke-opacity:1" />
    <path
       sodipodi:nodetypes="ccccc"
       id="path867"
       d="m 392.17879,365.64379 c -9.89472,1.24552 -19.48748,2.78449 -30.32588,3.11288 -3.76515,-0.0196 -2.65522,1.66245 -2.14974,2.57672 1.03786,1.20195 2.14645,2.37716 8.13298,1.70852 8.15168,-0.75091 15.0277,-2.55884 21.83579,-4.42304"
       style="fill:none;stroke:#000000;stroke-width:1.32292;stroke-linecap:butt;stroke-linejoin:miter;stroke-miterlimit:4;stroke-dasharray:none;stroke-opacity:1" />
    <path
       sodipodi:nodetypes="ccc"
       id="path869"
       d="m 359.70317,371.33339 c 6.10433,0.98227 12.04861,-0.29706 17.83962,-1.16603 3.57422,-0.79182 2.56287,-1.8994 2.86573,-2.99155"
       style="fill:none;stroke:#000000;stroke-width:1.32292;stroke-linecap:butt;stroke-linejoin:miter;stroke-miterlimit:4;stroke-dasharray:none;stroke-opacity:1" />
    <path
       sodipodi:nodetypes="cc"
       id="path871"
       d="M 483.42929,255.45832 C 464.43516,236.31194 410.6177,219.20378 370.49433,202.67003"
       style="fill:none;stroke:#000000;stroke-width:1.32292;stroke-linecap:butt;stroke-linejoin:miter;stroke-miterlimit:4;stroke-dasharray:none;stroke-opacity:1" />
    <path
       sodipodi:nodetypes="cc"
       id="path873"
       d="M 383.92165,271.77258 C 373.84933,260.89401 289.81025,229.71454 230.15343,213.83062"
       style="fill:none;stroke:#000000;stroke-width:1.32292;stroke-linecap:butt;stroke-linejoin:miter;stroke-miterlimit:4;stroke-dasharray:none;stroke-opacity:1" />
    <path
       sodipodi:nodetypes="cc"
       id="path875"
       d="m 387.9608,304.9312 c 9.37465,0.47182 13.45725,-0.70835 19.06805,-1.50248"
       style="fill:none;stroke:#000000;stroke-width:1.32292;stroke-linecap:butt;stroke-linejoin:miter;stroke-miterlimit:4;stroke-dasharray:none;stroke-opacity:1" />
    <path
       sodipodi:nodetypes="ccccccccc"
       id="path877"
       d="m 491.44866,303.74296 c 4.61116,-2.73011 5.72813,-0.54651 5.54004,2.88885 l -4.77188,21.73064 c -0.71624,2.37554 -2.475,4.02723 -5.08669,5.0867 -21.2571,10.83504 -44.90988,17.20679 -68.09632,24.44736 -6.2957,1.9944 -7.7171,0.0662 -7.35703,-3.2957 l 6.60165,-23.94766 c 1.15523,-3.49427 2.81946,-6.6798 8.22269,-7.59742 24.48437,-5.5604 47.15587,-11.68169 64.94754,-19.31277 z"
       style="fill:none;stroke:#000000;stroke-width:1.32292;stroke-linecap:butt;stroke-linejoin:miter;stroke-miterlimit:4;stroke-dasharray:none;stroke-opacity:1" />
    <path
       sodipodi:nodetypes="ccc"
       id="path879"
       d="m 494.59164,302.52119 -0.0717,6.82934 c -22.93411,13.00424 -47.10762,17.64145 -77.2483,24.95475"
       style="fill:none;stroke:#000000;stroke-width:1.32292;stroke-linecap:butt;stroke-linejoin:miter;stroke-miterlimit:4;stroke-dasharray:none;stroke-opacity:1" />
    <path
       sodipodi:nodetypes="csc"
       id="path881"
       d="m 413.05643,349.5961 c 20.03187,-5.01066 46.22836,-14.10131 61.21193,-19.34833 6.53774,-2.28942 7.25063,-7.30564 8.74027,-15.07754"
       style="fill:none;stroke:#000000;stroke-width:1.32292;stroke-linecap:butt;stroke-linejoin:miter;stroke-miterlimit:4;stroke-dasharray:none;stroke-opacity:1" />
    <path
       sodipodi:nodetypes="cccccc"
       id="path883"
       d="m 395.19774,361.01289 c -8.09993,1.87595 -16.665,3.41159 -28.03975,2.8915 -6.1383,-0.35824 -10.43429,-3.79386 -12.63295,-10.73285 0.14999,-6.28767 -1.58997,-11.49707 2.1378,-19.82597 1.82833,-4.5216 6.47082,-6.00903 12.03564,-6.502 14.28338,-1.38538 27.01823,-2.07787 38.12132,-2.04025"
       style="fill:none;stroke:#000000;stroke-width:1.32292;stroke-linecap:butt;stroke-linejoin:miter;stroke-miterlimit:4;stroke-dasharray:none;stroke-opacity:1" />
    <path
       sodipodi:nodetypes="cccc"
       id="path885"
       d="m 358.79737,360.50049 c 8.68745,0.57452 15.69735,1.39214 25.83855,-2.64736 4.58288,-2.05392 7.89888,-8.53826 9.43401,-18.79263 0.58162,-4.06948 2.61068,-12.57006 -4.45995,-13.80549"
       style="fill:none;stroke:#000000;stroke-width:1.32292;stroke-linecap:butt;stroke-linejoin:miter;stroke-miterlimit:4;stroke-dasharray:none;stroke-opacity:1" />
    <path
       sodipodi:nodetypes="cc"
       id="path887"
       d="m 386.50605,280.18651 c 8.29549,0.87425 22.36481,2.08576 24.70702,5.63156"
       style="fill:none;stroke:#000000;stroke-width:1.32292;stroke-linecap:butt;stroke-linejoin:miter;stroke-miterlimit:4;stroke-dasharray:none;stroke-opacity:1" />
    <path
       sodipodi:nodetypes="ccccccccc"
       id="path889"
       d="m 412.10358,305.42736 c -3.00458,0.57457 -5.29455,0.54693 -5.07473,-1.99864 0.93486,-5.71395 1.40098,-12.01539 4.18422,-17.61065 1.01562,-1.9549 3.55332,-3.0666 6.99583,-4.00761 20.01258,-4.14356 40.44782,-8.21012 58.53406,-13.25146 4.24732,-1.25675 4.99727,-0.61227 6.06366,0.11502 2.69232,2.4921 2.70334,9.48817 2.74032,14.74055 0.21919,1.49477 -1.08502,2.88086 -4.24915,4.13425 -20.52652,7.89742 -39.66062,12.50107 -69.19421,17.87854 z"
       style="fill:none;stroke:#000000;stroke-width:1.32292;stroke-linecap:butt;stroke-linejoin:miter;stroke-miterlimit:4;stroke-dasharray:none;stroke-opacity:1" />
    <path
       sodipodi:nodetypes="ccccsc"
       id="path922"
       d="m 465.53308,271.49966 c 3.27811,-0.64769 15.93633,-4.81762 17.21422,-0.67117 1.01657,2.63135 1.34467,7.27475 1.44688,10.90683 0.19537,1.41974 -0.23346,2.75334 -2.43724,3.84199 -14.07866,6.39361 -45.97916,14.85095 -64.2568,17.55627 -7.66505,1.13452 -9.63689,1.92506 -10.47129,0.29514"
       style="fill:none;stroke:#000000;stroke-width:1.32292;stroke-linecap:butt;stroke-linejoin:miter;stroke-miterlimit:4;stroke-dasharray:none;stroke-opacity:1" />
    <path
       sodipodi:nodetypes="ccccc"
       id="path924"
       d="m 482.49611,240.25041 c -3.03709,2.17764 0.55118,10.07734 0.93318,15.20791 1.21121,2.67445 0.82312,4.19537 1.22381,6.28521 3.46834,7.01094 3.94295,18.82309 7.42325,18.58331 2.42427,0.17349 2.29429,-3.18585 2.96736,-5.43447"
       style="fill:none;stroke:#000000;stroke-width:1.32292;stroke-linecap:butt;stroke-linejoin:miter;stroke-miterlimit:4;stroke-dasharray:none;stroke-opacity:1" />
    <path
       id="path926"
       d="m 484.6531,261.74353 -1.84648,6.93049 v 0 l -0.78692,1.1301"
       style="fill:none;stroke:#000000;stroke-width:1.32292;stroke-linecap:butt;stroke-linejoin:miter;stroke-miterlimit:4;stroke-dasharray:none;stroke-opacity:1" />
    <path
       sodipodi:nodetypes="csc"
       id="path928"
       d="m 383.57526,322.33119 c 30.86878,-1.70844 46.83885,-6.3967 72.90239,-13.86468 26.78862,-7.67575 50.62498,-15.31512 48.49688,-24.41143"
       style="fill:none;stroke:#000000;stroke-width:1.32292;stroke-linecap:butt;stroke-linejoin:miter;stroke-miterlimit:4;stroke-dasharray:none;stroke-opacity:1" />
    <path
       sodipodi:nodetypes="ccccccc"
       id="path930"
       d="m 352.59017,327.54817 c -8.85404,-0.78182 -13.86698,-2.94354 -13.31187,6.79535 0.0202,0.57205 0.0541,1.13617 0.10136,1.69258 m 0.58935,3.98945 c 0.49853,2.33478 1.2483,4.52401 2.21693,6.58644 m 2.72392,4.70952 c 2.66697,3.8469 6.14922,7.22148 10.16583,10.28648"
       style="fill:none;stroke:#000000;stroke-width:1.32292;stroke-linecap:butt;stroke-linejoin:miter;stroke-miterlimit:4;stroke-dasharray:none;stroke-opacity:1" />
    <path
       sodipodi:nodetypes="ccc"
       id="path932"
       d="m 339.29345,334.71591 1.39033,-0.43394 c -0.45155,-2.4163 -0.48777,-4.59744 0.51279,-6.77706"
       style="fill:none;stroke:#000000;stroke-width:1.32292;stroke-linecap:butt;stroke-linejoin:miter;stroke-miterlimit:4;stroke-dasharray:none;stroke-opacity:1" />
    <path
       sodipodi:nodetypes="ccc"
       id="path934"
       d="m 340.68378,334.28197 10.38429,3.40966 c -3.56842,-0.0609 -7.34626,-0.43488 -11.6881,-1.65195"
       style="fill:none;stroke:#000000;stroke-width:1.32292;stroke-linecap:butt;stroke-linejoin:miter;stroke-miterlimit:4;stroke-dasharray:none;stroke-opacity:1" />
    <path
       sodipodi:nodetypes="ccc"
       id="path936"
       d="m 350.64376,339.21567 -8.58441,-0.85022 c -2.42623,-0.18139 -2.22244,1.0072 -2.08812,1.67053"
       style="fill:none;stroke:#000000;stroke-width:1.32292;stroke-linecap:butt;stroke-linejoin:miter;stroke-miterlimit:4;stroke-dasharray:none;stroke-opacity:1" />
    <path
       sodipodi:nodetypes="cccc"
       id="path938"
       d="m 343.40698,345.65262 -1.25082,0.89577 c 2.06904,1.88801 5.03406,1.76875 7.19966,1.82345 z"
       style="fill:none;stroke:#000000;stroke-width:1.32292;stroke-linecap:butt;stroke-linejoin:miter;stroke-miterlimit:4;stroke-dasharray:none;stroke-opacity:1" />
    <path
       sodipodi:nodetypes="cc"
       id="path940"
       d="m 343.40698,345.65262 c -0.82599,-1.91898 -1.71708,-4.06919 -2.39552,-7.2665"
       style="fill:none;stroke:#000000;stroke-width:1.32292;stroke-linecap:butt;stroke-linejoin:miter;stroke-miterlimit:4;stroke-dasharray:none;stroke-opacity:1" />
    <path
       sodipodi:nodetypes="cc"
       id="path942"
       d="m 350.51634,350.46563 c -1.68416,-0.22916 -7.78328,-1.3466 -4.8291,1.93355"
       style="fill:none;stroke:#000000;stroke-width:1.32292;stroke-linecap:butt;stroke-linejoin:miter;stroke-miterlimit:4;stroke-dasharray:none;stroke-opacity:1" />
    <path
       id="path944"
       d="m 346.25972,350.12502 3.97224,7.36261"
       style="fill:none;stroke:#000000;stroke-width:1.32292;stroke-linecap:butt;stroke-linejoin:miter;stroke-miterlimit:4;stroke-dasharray:none;stroke-opacity:1" />
    <path
       sodipodi:nodetypes="ccccccc"
       id="path946"
       d="m 311.5371,282.99965 c -0.73833,-1.50931 -1.10296,-4.12118 2.47703,-3.37199 3.70113,0.65987 8.9256,1.18202 11.29945,6.56171 l 6.26719,14.12109 c 1.00491,1.88611 1.04695,3.25555 -1.25921,3.36498 -3.40999,-0.0862 -8.54612,-1.02972 -11.45683,-5.91704 -2.95104,-4.7172 -5.11433,-9.74793 -7.32763,-14.75875 z"
       style="fill:none;stroke:#000000;stroke-width:1.32292;stroke-linecap:butt;stroke-linejoin:miter;stroke-miterlimit:4;stroke-dasharray:none;stroke-opacity:1" />
    <path
       sodipodi:nodetypes="cccccc"
       id="path948"
       d="m 53.876129,155.44226 -34.208267,1.41144 c -3.258049,0.15511 -2.210567,0.82843 -1.558329,1.45419 1.151711,0.91244 2.255899,1.75835 2.522711,2.61624 0.710089,2.09148 2.393891,1.69457 3.244421,1.93082 l 18.228818,3.25882"
       style="fill:none;stroke:#000000;stroke-width:1.32292;stroke-linecap:butt;stroke-linejoin:miter;stroke-miterlimit:4;stroke-dasharray:none;stroke-opacity:1" />
    <path
       sodipodi:nodetypes="cc"
       id="path950"
       d="m 17.488658,157.67016 c -0.362739,2.28446 2.116568,3.75903 4.370063,4.78026"
       style="fill:none;stroke:#000000;stroke-width:1.32292;stroke-linecap:butt;stroke-linejoin:miter;stroke-miterlimit:4;stroke-dasharray:none;stroke-opacity:1" />
    <path
       sodipodi:nodetypes="cc"
       id="path952"
       d="m 36.456472,165.10388 c 0.351377,1.47775 0.536224,2.28841 3.087588,2.30917"
       style="fill:none;stroke:#000000;stroke-width:1.32292;stroke-linecap:butt;stroke-linejoin:miter;stroke-miterlimit:4;stroke-dasharray:none;stroke-opacity:1" />
    <path
       sodipodi:nodetypes="cc"
       id="path954"
       d="m 205.67409,210.24918 c -4.15569,1.05741 -7.95829,-0.12532 -11.68875,-1.76576"
       style="fill:none;stroke:#000000;stroke-width:1.32292;stroke-linecap:butt;stroke-linejoin:miter;stroke-miterlimit:4;stroke-dasharray:none;stroke-opacity:1" />
    <path
       sodipodi:nodetypes="ccc"
       id="path956"
       d="m 444.8418,286.28412 c 1.01236,5.57405 11.74141,3.48163 10.88652,-2.64268 -1.07621,-5.20568 -11.58636,-3.70175 -10.88652,2.64268 z"
       style="fill:none;stroke:#000000;stroke-width:1.32292;stroke-linecap:butt;stroke-linejoin:miter;stroke-miterlimit:4;stroke-dasharray:none;stroke-opacity:1" />
    <path
       style="fill:none;stroke:#000000;stroke-width:1.32292;stroke-linecap:butt;stroke-linejoin:miter;stroke-miterlimit:4;stroke-dasharray:none;stroke-opacity:1"
       d="m 446.36414,285.97414 c 0.77132,4.36782 8.94578,2.72821 8.29444,-2.07079 -0.81996,-4.07916 -8.82765,-2.9007 -8.29444,2.07079 z"
       id="path958"
       sodipodi:nodetypes="ccc" />
    <path
       sodipodi:nodetypes="cccccccccc"
       id="path960"
       d="m 179.92249,182.39973 -2.86205,15.49642 c -0.54832,1.93313 1.15,1.60221 2.13203,1.53376 0.6465,-0.0854 1.6744,-0.60772 1.6296,1.98223 -0.0534,1.96933 -0.0834,5.37001 -3.25372,5.33522 l -5.69409,0.006 c -1.75428,-0.26859 -2.59879,0.2606 -3.12693,1.06723 l -0.58393,1.38759 6.84661,1.67473 0.0191,0.67845"
       style="fill:none;stroke:#000000;stroke-width:1.32292;stroke-linecap:butt;stroke-linejoin:miter;stroke-miterlimit:4;stroke-dasharray:none;stroke-opacity:1" />
    <path
       sodipodi:nodetypes="ccccsc"
       id="path962"
       d="m 168.1634,209.20818 c -5.46478,0.0689 -11.95631,-0.94774 -19.47845,-3.05404 -4.42796,-1.64793 -7.98108,-3.79402 -7.92267,-7.33467 0.24914,-3.83204 -0.32345,-12.00676 9.4455,-12.06332 2.03041,-0.2862 10.89295,0.29959 16.61466,0.88351 5.49206,0.5605 6.46924,3.37017 10.238,10.25649"
       style="fill:none;stroke:#000000;stroke-width:1.32292;stroke-linecap:butt;stroke-linejoin:miter;stroke-miterlimit:4;stroke-dasharray:none;stroke-opacity:1" />
    <path
       sodipodi:nodetypes="ccccc"
       id="path964"
       d="m 126.16854,136.77939 c -8.40579,15.95841 -11.87921,34.16249 -14.58075,52.71801 l -2.10883,1.22556 -3.90203,-1.01959 c 3.85272,-19.89302 9.1587,-37.86427 16.35104,-53.34104"
       style="fill:none;stroke:#000000;stroke-width:1.32292;stroke-linecap:butt;stroke-linejoin:miter;stroke-miterlimit:4;stroke-dasharray:none;stroke-opacity:1" />
    <path
       sodipodi:nodetypes="ccc"
       id="path966"
       d="m 340.66013,179.64312 c 2.32386,-1.83169 8.3704,-1.58577 10.78227,-0.30084 4.39861,3.08986 4.43231,10.87246 2.33736,11.12417"
       style="fill:none;stroke:#000000;stroke-width:1.32292;stroke-linecap:butt;stroke-linejoin:miter;stroke-miterlimit:4;stroke-dasharray:none;stroke-opacity:1" />
    <path
       sodipodi:nodetypes="cc"
       id="path968"
       d="m 172.48243,140.91422 c -7.16098,-13.2112 -46.84501,-14.09137 -66.75135,-15.02032"
       style="fill:none;stroke:#000000;stroke-width:1.32292;stroke-linecap:butt;stroke-linejoin:miter;stroke-miterlimit:4;stroke-dasharray:none;stroke-opacity:1" />
    <path
       sodipodi:nodetypes="cc"
       id="path970"
       d="M 174.90236,139.41364 C 165.81889,126.49447 122.27728,126.36918 105.73108,125.8939"
       style="fill:none;stroke:#000000;stroke-width:1.32292;stroke-linecap:butt;stroke-linejoin:miter;stroke-miterlimit:4;stroke-dasharray:none;stroke-opacity:1" />
    <path
       sodipodi:nodetypes="ccc"
       id="path1013"
       d="m 366.15149,327.15743 c 17.76185,1.26573 9.56737,19.36152 6.07582,23.13925 -7.52597,7.30691 -13.5284,5.36793 -17.70227,2.87482"
       style="fill:none;stroke:#000000;stroke-width:1.32292;stroke-linecap:butt;stroke-linejoin:miter;stroke-miterlimit:4;stroke-dasharray:none;stroke-opacity:1" />
    <path
       sodipodi:nodetypes="cc"
       id="path1016"
       d="m 355.06246,337.85 c 1.45851,-4.18291 8.05835,-10.68486 12.56901,-10.54083"
       style="fill:none;stroke:#000000;stroke-width:1.32292;stroke-linecap:butt;stroke-linejoin:miter;stroke-miterlimit:4;stroke-dasharray:none;stroke-opacity:1" />
    <path
       id="path1018"
       d="m 485.54694,283.41457 6.52941,-3.08773"
       style="fill:none;stroke:#000000;stroke-width:1.32292;stroke-linecap:butt;stroke-linejoin:miter;stroke-miterlimit:4;stroke-dasharray:none;stroke-opacity:1" />
  </g>
  <g
     inkscape:label="Wheels"
     id="layer3"
     inkscape:groupmode="layer">
    <ellipse
       transform="matrix(1,0,0.10901374,0.99404024,0,0)"
       ry="52.634712"
       rx="34.537445"
       cy="332.1221"
       cx="203.73576"
       id="path973"
       style="opacity:0.996;fill:none;stroke:#000000;stroke-width:1.32688;stroke-linecap:square;stroke-miterlimit:4;stroke-dasharray:none" />
    <path
       sodipodi:nodetypes="csssc"
       d="m 264.27815,330.33545 c 3.46821,21.04083 -5.79452,40.80438 -20.3425,40.80439 -14.54798,0 -27.93075,-17.43926 -30.3477,-39.15938 -2.41694,-21.72012 6.80437,-38.94033 21.35234,-38.92217 11.43864,0.0143 25.95149,15.56151 29.33786,37.27716"
       style="opacity:0.996;fill:none;stroke:#000000;stroke-width:1.32291;stroke-linecap:square;stroke-miterlimit:4;stroke-dasharray:none"
       id="ellipse975" />
    <path
       sodipodi:nodetypes="ccc"
       id="path978"
       d="m 239.64564,381.68196 c 10.63245,4.87653 23.85831,1.70642 36.95061,-1.04926 10.67992,-1.85614 12.9733,-8.34471 15.95027,-14.45569"
       style="fill:none;stroke:#000000;stroke-width:1.32292;stroke-linecap:butt;stroke-linejoin:miter;stroke-miterlimit:4;stroke-dasharray:none;stroke-opacity:1" />
    <path
       sodipodi:nodetypes="cc"
       id="path980"
       d="m 221.5163,281.74223 c 8.36211,-6.05139 18.73361,-8.02269 31.0342,-9.01573"
       style="fill:none;stroke:#000000;stroke-width:1.32292;stroke-linecap:butt;stroke-linejoin:miter;stroke-miterlimit:4;stroke-dasharray:none;stroke-opacity:1" />
    <ellipse
       transform="matrix(1,0,0.06625165,0.99780295,0,0)"
       ry="35.107952"
       rx="15.787351"
       cy="258.35052"
       cx="19.237534"
       id="path982"
       style="opacity:0.996;fill:none;stroke:#000000;stroke-width:1.32437;stroke-linecap:square;stroke-miterlimit:4;stroke-dasharray:none" />
    <ellipse
       style="opacity:0.996;fill:none;stroke:#000000;stroke-width:1.32443;stroke-linecap:square;stroke-miterlimit:4;stroke-dasharray:none"
       id="ellipse984"
       cx="19.133411"
       cy="258.81979"
       rx="12.455727"
       ry="27.162872"
       transform="matrix(1,0,0.06755949,0.99771525,0,0)" />
    <path
       sodipodi:nodetypes="cc"
       id="path986"
       d="m 26.87258,226.87266 c 2.514534,-5.16275 6.694191,-6.81568 11.25569,-7.66376"
       style="fill:none;stroke:#000000;stroke-width:1.32292;stroke-linecap:butt;stroke-linejoin:miter;stroke-miterlimit:4;stroke-dasharray:none;stroke-opacity:1" />
    <path
       sodipodi:nodetypes="cccc"
       id="path988"
       d="m 32.030918,289.76069 c 4.485937,6.5483 12.996194,5.87231 17.91549,6.14444 l 10.22621,-1.52491 c 4.00099,-0.82831 8.552153,-5.22386 8.919227,-8.97696"
       style="fill:none;stroke:#000000;stroke-width:1.32292;stroke-linecap:butt;stroke-linejoin:miter;stroke-miterlimit:4;stroke-dasharray:none;stroke-opacity:1" />
    <path
       sodipodi:nodetypes="cccccccccc"
       id="path990"
       d="m 313.25107,220.95631 c -2.86825,-1.33725 -6.03995,-2.66562 0.34851,-4.27386 16.00382,-3.29978 31.87805,-3.832 47.80634,-5.5187 7.70215,-0.39669 15.40564,-1.32211 23.09919,1.67526 2.74096,0.94538 7.08123,2.05742 7.21394,4.98939 0.19203,1.2514 1.90339,2.04075 3.26557,2.67273 2.36821,1.20235 0.62297,1.70939 -0.9012,1.99936 l -44.11639,5.47263 c -5.29897,0.74611 -10.62384,1.38928 -16.61429,-0.614 -8.79983,-2.14802 -14.40564,-4.27512 -20.10167,-6.40281 z"
       style="fill:none;stroke:#000000;stroke-width:1.32292;stroke-linecap:butt;stroke-linejoin:miter;stroke-miterlimit:4;stroke-dasharray:none;stroke-opacity:1" />
    <path
       sodipodi:nodetypes="ccc"
       id="path992"
       d="m 337.00123,224.62825 c 1.39544,-2.37058 4.6314,-3.92215 9.67666,-4.6686 14.06559,-2.15112 27.88699,-4.594 44.16722,-4.09891"
       style="fill:none;stroke:#000000;stroke-width:1.32292;stroke-linecap:butt;stroke-linejoin:miter;stroke-miterlimit:4;stroke-dasharray:none;stroke-opacity:1" />
    <path
       sodipodi:nodetypes="ccccccc"
       id="path994"
       d="m 339.12224,224.30923 c 1.45795,-2.00111 4.66237,-2.64875 7.04379,-3.15791 13.67976,-2.06676 27.56837,-4.21873 40.18145,-4.34541 1.88972,-0.18842 2.91696,0.21196 3.3378,1.02634 -0.0302,1.74197 -0.69259,2.56196 -1.82133,2.70167 -15.65388,1.38938 -31.79458,3.13236 -49.13466,5.7465 -0.0854,-0.64245 -0.0227,-1.32648 0.39295,-1.97119 z"
       style="fill:none;stroke:#000000;stroke-width:1.32292;stroke-linecap:butt;stroke-linejoin:miter;stroke-miterlimit:4;stroke-dasharray:none;stroke-opacity:1" />
  </g>
</svg>
